<?xml version="1.0" encoding="UTF-8" standalone="no"?>
<svg
   viewBox="0 0 512 512"
   version="1.1"
   id="svg18629"
   sodipodi:docname="envelope-solid.svg"
   inkscape:version="1.2.2 (732a01da63, 2022-12-09)"
   xmlns:inkscape="http://www.inkscape.org/namespaces/inkscape"
   xmlns:sodipodi="http://sodipodi.sourceforge.net/DTD/sodipodi-0.dtd"
   xmlns="http://www.w3.org/2000/svg"
   xmlns:svg="http://www.w3.org/2000/svg">
  <defs
     id="defs18633" />
  <sodipodi:namedview
     id="namedview18631"
     pagecolor="#a44f4f"
     bordercolor="#000000"
     borderopacity="0.25"
     inkscape:showpageshadow="2"
     inkscape:pageopacity="0"
     inkscape:pagecheckerboard="0"
     inkscape:deskcolor="#d1d1d1"
     showgrid="false"
     inkscape:zoom="0.4609375"
     inkscape:cx="44.474576"
     inkscape:cy="259.25424"
     inkscape:window-width="1368"
     inkscape:window-height="850"
     inkscape:window-x="-6"
     inkscape:window-y="-6"
     inkscape:window-maximized="1"
     inkscape:current-layer="svg18629" />
  <!--! Font Awesome Pro 6.4.2 by @fontawesome - https://fontawesome.com License - https://fontawesome.com/license (Commercial License) Copyright 2023 Fonticons, Inc. -->
  <path
     d="M 154.4375,162.25 C 141.49805,162.25 131,172.74805 131,185.6875 c 0,7.37305 3.4668,14.30664 9.375,18.75 l 106.25,79.6875 c 5.56641,4.15039 13.18359,4.15039 18.75,0 l 106.25,-79.6875 C 377.5332,199.99414 381,193.06055 381,185.6875 381,172.74805 370.50195,162.25 357.5625,162.25 Z M 131,216.9375 V 318.5 c 0,17.23633 14.01367,31.25 31.25,31.25 h 187.5 c 17.23633,0 31.25,-14.01367 31.25,-31.25 V 216.9375 L 274.75,296.625 c -11.13281,8.34961 -26.36719,8.34961 -37.5,0 z"
     id="path18627"
     style="stroke-width:1;fill:#ffffff" />
</svg>
