<?xml version="1.0" encoding="UTF-8" standalone="no"?>
<svg
   viewBox="0 0 512 512"
   version="1.1"
   id="svg19847"
   sodipodi:docname="github.svg"
   width="512"
   height="512"
   inkscape:version="1.2.2 (732a01da63, 2022-12-09)"
   xmlns:inkscape="http://www.inkscape.org/namespaces/inkscape"
   xmlns:sodipodi="http://sodipodi.sourceforge.net/DTD/sodipodi-0.dtd"
   xmlns="http://www.w3.org/2000/svg"
   xmlns:svg="http://www.w3.org/2000/svg">
  <defs
     id="defs19851" />
  <sodipodi:namedview
     id="namedview19849"
     pagecolor="#875656"
     bordercolor="#000000"
     borderopacity="0.25"
     inkscape:showpageshadow="2"
     inkscape:pageopacity="0"
     inkscape:pagecheckerboard="0"
     inkscape:deskcolor="#d1d1d1"
     showgrid="false"
     inkscape:zoom="0.4609375"
     inkscape:cx="137.76271"
     inkscape:cy="257.08475"
     inkscape:window-width="1368"
     inkscape:window-height="850"
     inkscape:window-x="-6"
     inkscape:window-y="-6"
     inkscape:window-maximized="1"
     inkscape:current-layer="svg19847" />
  <!--! Font Awesome Pro 6.4.2 by @fontawesome - https://fontawesome.com License - https://fontawesome.com/license (Commercial License) Copyright 2023 Fonticons, Inc. -->
  <path
     d="m 214.61895,330.39329 c 0,1.00807 -1.15927,1.81452 -2.62097,1.81452 -1.6633,0.15121 -2.82258,-0.65524 -2.82258,-1.81452 0,-1.00806 1.15928,-1.81451 2.62097,-1.81451 1.5121,-0.15121 2.82258,0.65524 2.82258,1.81451 z m -15.6754,-2.26814 c -0.35282,1.00806 0.65524,2.16734 2.16734,2.46975 1.31048,0.50404 2.82258,0 3.125,-1.00806 0.30242,-1.00806 -0.65525,-2.16734 -2.16734,-2.62097 -1.31049,-0.35282 -2.77218,0.15121 -3.125,1.15928 z m 22.27822,-0.85686 c -1.46169,0.35282 -2.46975,1.31049 -2.31854,2.46976 0.15121,1.00806 1.46169,1.66331 2.97379,1.31048 1.46169,-0.35282 2.46975,-1.31048 2.31854,-2.31854 -0.15121,-0.95767 -1.51209,-1.61291 -2.97379,-1.4617 z M 254.3871,134.12313 C 184.47782,134.12313 131,187.19772 131,257.107 c 0,55.89718 35.18145,103.72984 85.43347,120.56452 6.45161,1.15927 8.71976,-2.82258 8.71976,-6.09879 0,-3.125 -0.15121,-20.36291 -0.15121,-30.94758 0,0 -35.28226,7.56048 -42.69154,-15.02016 0,0 -5.74596,-14.66734 -14.01209,-18.44759 0,0 -11.54234,-7.9133 0.80645,-7.76209 0,0 12.5504,1.00806 19.45564,13.00403 11.03831,19.45565 29.53629,13.86089 36.74396,10.53427 1.15927,-8.06451 4.43548,-13.65927 8.06451,-16.98588 -28.1754,-3.125 -56.60282,-7.20766 -56.60282,-55.69557 0,-13.86088 3.83064,-20.81653 11.89516,-29.6875 -1.31048,-3.27621 -5.59476,-16.78428 1.31048,-34.22379 10.53428,-3.27621 34.77823,13.60887 34.77823,13.60887 10.08065,-2.82258 20.91734,-4.28428 31.65323,-4.28428 10.73588,0 21.57258,1.4617 31.65322,4.28428 0,0 24.24395,-16.93549 34.77823,-13.60887 6.90524,17.48992 2.62097,30.94758 1.31048,34.22379 8.06452,8.92137 13.00403,15.87702 13.00403,29.6875 0,48.63912 -29.6875,52.52016 -57.8629,55.69557 4.6371,3.98185 8.56855,11.54234 8.56855,23.38709 0,16.98589 -0.15121,38.00404 -0.15121,42.1371 0,3.27621 2.31855,7.25807 8.71976,6.09879 C 346.82661,360.83684 381,313.00418 381,257.107 381,187.19772 324.29637,134.12313 254.3871,134.12313 Z m -74.39516,173.84073 c -0.65525,0.50403 -0.50404,1.6633 0.35282,2.62096 0.80645,0.80646 1.96572,1.15928 2.62097,0.50404 0.65524,-0.50404 0.50403,-1.66331 -0.35283,-2.62097 -0.80645,-0.80645 -1.96572,-1.15928 -2.62096,-0.50403 z m -5.44355,-4.08266 c -0.35283,0.65524 0.15121,1.46169 1.15927,1.96572 0.80645,0.50403 1.81452,0.35282 2.16734,-0.35282 0.35282,-0.65524 -0.15121,-1.4617 -1.15927,-1.96573 -1.00807,-0.30242 -1.81452,-0.15121 -2.16734,0.35283 z m 16.33064,17.94354 c -0.80645,0.65525 -0.50403,2.16734 0.65524,3.125 1.15928,1.15928 2.62097,1.31049 3.27621,0.50404 0.65525,-0.65525 0.35283,-2.16734 -0.65524,-3.125 -1.10887,-1.15928 -2.62097,-1.31049 -3.27621,-0.50404 z m -5.74596,-7.40927 c -0.80646,0.50403 -0.80646,1.81452 0,2.97379 0.80645,1.15927 2.16733,1.66331 2.82257,1.15927 0.80646,-0.65524 0.80646,-1.96572 0,-3.125 -0.70564,-1.15927 -2.01612,-1.6633 -2.82257,-1.00806 z"
     id="path19845"
     style="stroke-width:1;fill:#ffffff" />
</svg>
