<?xml version="1.0" encoding="UTF-8" standalone="no"?>
<svg
   viewBox="0 0 512 512"
   version="1.1"
   id="svg1059"
   sodipodi:docname="google_scholar.svg"
   inkscape:version="1.2.2 (732a01da63, 2022-12-09)"
   xml:space="preserve"
   xmlns:inkscape="http://www.inkscape.org/namespaces/inkscape"
   xmlns:sodipodi="http://sodipodi.sourceforge.net/DTD/sodipodi-0.dtd"
   xmlns="http://www.w3.org/2000/svg"
   xmlns:svg="http://www.w3.org/2000/svg"><defs
     id="defs1063" /><sodipodi:namedview
     id="namedview1061"
     pagecolor="#ac5353"
     bordercolor="#000000"
     borderopacity="0.25"
     inkscape:showpageshadow="2"
     inkscape:pageopacity="0"
     inkscape:pagecheckerboard="0"
     inkscape:deskcolor="#d1d1d1"
     showgrid="false"
     inkscape:zoom="0.61621095"
     inkscape:cx="-137.12836"
     inkscape:cy="359.45483"
     inkscape:window-width="1368"
     inkscape:window-height="850"
     inkscape:window-x="-6"
     inkscape:window-y="-6"
     inkscape:window-maximized="1"
     inkscape:current-layer="svg1059" /><!--! Font Awesome Pro 6.4.2 by @fontawesome - https://fontawesome.com License - https://fontawesome.com/license (Commercial License) Copyright 2023 Fonticons, Inc. --><path
     id="path17220"
     style="fill:none;fill-opacity:1;stroke:#ffffff;stroke-width:10;stroke-linecap:butt;stroke-linejoin:bevel;stroke-opacity:1;stroke-dasharray:none"
     d="M 256 140.7168 L 130.5957 239.69141 L 192.54688 290.53125 A 66.35788 66.35788 0 0 1 256 238.6543 L 256 140.7168 z " /><path
     id="path17138"
     style="fill:none;stroke-width:10;stroke:#ffffff;stroke-opacity:1;stroke-dasharray:none"
     d="M 320.55078 289.61133 L 191.5957 289.61133 A 66.35788 66.35788 0 0 0 189.64258 304.92578 A 66.35788 66.35788 0 0 0 256 371.2832 A 66.35788 66.35788 0 0 0 322.35742 304.92578 A 66.35788 66.35788 0 0 0 320.55078 289.61133 z " /><path
     id="path24753"
     style="fill:#ffffff;stroke-width:10;stroke:#ffffff;stroke-opacity:1;stroke-dasharray:none;fill-opacity:1"
     d="M 256 238.56641 A 66.35788 66.35788 0 0 0 191.5957 289.61133 L 320.55078 289.61133 A 66.35788 66.35788 0 0 0 256 238.56641 z " /><path
     id="path24756"
     style="fill:#ffffff;fill-opacity:1;stroke:#ffffff;stroke-width:10;stroke-linecap:butt;stroke-linejoin:bevel;stroke-opacity:1;stroke-dasharray:none"
     d="m 256,140.62891 125.4043,98.97461 -61.95118,50.83984 A 66.35788,66.35788 0 0 0 256,238.56641 Z" /></svg>
