<?xml version="1.0" encoding="UTF-8" standalone="no"?>
<svg
   viewBox="0 0 512 512"
   version="1.1"
   id="svg22779"
   sodipodi:docname="twitter.svg"
   inkscape:version="1.2.2 (732a01da63, 2022-12-09)"
   xmlns:inkscape="http://www.inkscape.org/namespaces/inkscape"
   xmlns:sodipodi="http://sodipodi.sourceforge.net/DTD/sodipodi-0.dtd"
   xmlns="http://www.w3.org/2000/svg"
   xmlns:svg="http://www.w3.org/2000/svg">
  <defs
     id="defs22783" />
  <sodipodi:namedview
     id="namedview22781"
     pagecolor="#b14e4e"
     bordercolor="#000000"
     borderopacity="0.25"
     inkscape:showpageshadow="2"
     inkscape:pageopacity="0"
     inkscape:pagecheckerboard="0"
     inkscape:deskcolor="#d1d1d1"
     showgrid="false"
     inkscape:zoom="0.4609375"
     inkscape:cx="146.44068"
     inkscape:cy="257.08475"
     inkscape:window-width="1368"
     inkscape:window-height="850"
     inkscape:window-x="-6"
     inkscape:window-y="-6"
     inkscape:window-maximized="1"
     inkscape:current-layer="svg22779" />
  <!--! Font Awesome Pro 6.4.2 by @fontawesome - https://fontawesome.com License - https://fontawesome.com/license (Commercial License) Copyright 2023 Fonticons, Inc. -->
  <path
     d="m 355.30263,205.07963 c 0.1587,2.22072 0.1587,4.44192 0.1587,6.66263 0,67.73463 -51.5544,145.78084 -145.78085,145.78084 -29.02941,0 -55.99631,-8.40774 -78.68048,-23.00106 4.12453,0.4756 8.08988,0.6343 12.37309,0.6343 23.95274,0 46.00263,-8.08988 63.61061,-21.89072 -22.52548,-0.4761 -41.40251,-15.22857 -47.90644,-35.53334 3.17286,0.4756 6.34524,0.793 9.67679,0.793 4.60012,0 9.20072,-0.6348 13.48345,-1.74464 -23.47714,-4.75934 -41.0856,-25.38101 -41.0856,-50.28588 v -0.6343 c 6.82082,3.80714 14.75298,6.18655 23.15975,6.50344 -13.80083,-9.2007 -22.84237,-24.90486 -22.84237,-42.67153 0,-9.51762 2.53761,-18.24226 6.97952,-25.85655 25.22227,31.09143 63.13501,51.39571 105.64738,53.61691 -0.793,-3.80714 -1.26904,-7.77249 -1.26904,-11.73833 0,-28.23644 22.84286,-51.2375 51.23751,-51.2375 14.75249,0 28.07725,6.18654 37.43666,16.18023 11.57964,-2.22071 22.68368,-6.50392 32.51917,-12.37309 -3.80763,11.89751 -11.89751,21.8912 -22.52548,28.23595 10.31108,-1.10987 20.30477,-3.96584 29.505,-7.93118 -6.97854,10.15189 -15.70367,19.19343 -25.69737,26.49082 z"
     id="path22777"
     style="stroke-width:0.999999;fill:#ffffff" />
</svg>
