<?xml version="1.0" encoding="utf-8" standalone="no"?>
<!DOCTYPE svg PUBLIC "-//W3C//DTD SVG 1.1//EN"
  "http://www.w3.org/Graphics/SVG/1.1/DTD/svg11.dtd">
<svg xmlns:xlink="http://www.w3.org/1999/xlink" width="648pt" height="504pt" viewBox="0 0 648 504" xmlns="http://www.w3.org/2000/svg" version="1.1">
 <metadata>
  <rdf:RDF xmlns:dc="http://purl.org/dc/elements/1.1/" xmlns:cc="http://creativecommons.org/ns#" xmlns:rdf="http://www.w3.org/1999/02/22-rdf-syntax-ns#">
   <cc:Work>
    <dc:type rdf:resource="http://purl.org/dc/dcmitype/StillImage"/>
    <dc:date>2024-10-25T17:22:59.967489</dc:date>
    <dc:format>image/svg+xml</dc:format>
    <dc:creator>
     <cc:Agent>
      <dc:title>Matplotlib v3.9.2, https://matplotlib.org/</dc:title>
     </cc:Agent>
    </dc:creator>
   </cc:Work>
  </rdf:RDF>
 </metadata>
 <defs>
  <style type="text/css">*{stroke-linejoin: round; stroke-linecap: butt}</style>
 </defs>
 <g id="figure_1">
  <g id="patch_1">
   <path d="M 0 504 
L 648 504 
L 648 0 
L 0 0 
z
" style="fill: #ffffff"/>
  </g>
  <g id="patch_2">
   <path d="M 81 437.138182 
L 446.236364 437.138182 
L 446.236364 71.901818 
L 81 71.901818 
z
" style="fill: #ffffff"/>
  </g>
  <g id="pane3d_1">
   <g id="patch_3">
    <path d="M 428.529753 347.082599 
L 307.916777 245.982412 
L 309.593413 100.177868 
L 435.978341 192.407832 
" style="fill: #f2f2f2; opacity: 0.5; stroke: #f2f2f2; stroke-linejoin: miter"/>
   </g>
  </g>
  <g id="pane3d_2">
   <g id="patch_4">
    <path d="M 114.375987 302.237079 
L 307.916777 245.982412 
L 309.593413 100.177868 
L 107.469198 151.410465 
" style="fill: #e6e6e6; opacity: 0.5; stroke: #e6e6e6; stroke-linejoin: miter"/>
   </g>
  </g>
  <g id="pane3d_3">
   <g id="patch_5">
    <path d="M 223.367062 414.088734 
L 428.529753 347.082599 
L 307.916777 245.982412 
L 114.375987 302.237079 
" style="fill: #ececec; opacity: 0.5; stroke: #ececec; stroke-linejoin: miter"/>
   </g>
  </g>
  <g id="grid3d_1">
   <g id="Line3DCollection_1">
    <path d="M 237.082624 409.609231 
L 127.261396 298.491799 
L 120.95261 147.992813 
" style="fill: none; stroke: #b0b0b0; stroke-width: 0.8"/>
    <path d="M 260.377123 402.001248 
L 149.163371 292.12576 
L 143.862336 142.185865 
" style="fill: none; stroke: #b0b0b0; stroke-width: 0.8"/>
    <path d="M 283.400528 394.481804 
L 170.832013 285.827541 
L 166.517216 136.443513 
" style="fill: none; stroke: #b0b0b0; stroke-width: 0.8"/>
    <path d="M 306.157542 387.049363 
L 192.271031 279.596065 
L 188.92148 130.764686 
" style="fill: none; stroke: #b0b0b0; stroke-width: 0.8"/>
    <path d="M 328.652762 379.702424 
L 213.484056 273.430276 
L 211.079263 125.148333 
" style="fill: none; stroke: #b0b0b0; stroke-width: 0.8"/>
    <path d="M 350.89068 372.43952 
L 234.474643 267.329141 
L 232.994611 119.593432 
" style="fill: none; stroke: #b0b0b0; stroke-width: 0.8"/>
    <path d="M 372.875686 365.259218 
L 255.246272 261.291648 
L 254.67148 114.098977 
" style="fill: none; stroke: #b0b0b0; stroke-width: 0.8"/>
    <path d="M 394.612069 358.160115 
L 275.802351 255.316808 
L 276.113743 108.663989 
" style="fill: none; stroke: #b0b0b0; stroke-width: 0.8"/>
    <path d="M 416.104023 351.140843 
L 296.146219 249.403648 
L 297.325187 103.287506 
" style="fill: none; stroke: #b0b0b0; stroke-width: 0.8"/>
   </g>
  </g>
  <g id="grid3d_2">
   <g id="Line3DCollection_2">
    <path d="M 427.23851 186.029902 
L 420.218499 340.115942 
L 215.825723 406.349465 
" style="fill: none; stroke: #b0b0b0; stroke-width: 0.8"/>
    <path d="M 412.493117 175.269385 
L 406.186297 328.353872 
L 203.103825 393.293668 
" style="fill: none; stroke: #b0b0b0; stroke-width: 0.8"/>
    <path d="M 398.03965 164.721904 
L 392.419845 316.814559 
L 190.635573 380.498174 
" style="fill: none; stroke: #b0b0b0; stroke-width: 0.8"/>
    <path d="M 383.869526 154.381192 
L 378.911665 305.491735 
L 178.413456 367.955276 
" style="fill: none; stroke: #b0b0b0; stroke-width: 0.8"/>
    <path d="M 369.974493 144.24123 
L 365.654556 294.379363 
L 166.430258 355.657566 
" style="fill: none; stroke: #b0b0b0; stroke-width: 0.8"/>
    <path d="M 356.346618 134.296228 
L 352.641581 283.47163 
L 154.67904 343.597926 
" style="fill: none; stroke: #b0b0b0; stroke-width: 0.8"/>
    <path d="M 342.978269 124.540616 
L 339.866061 272.762935 
L 143.15313 331.769508 
" style="fill: none; stroke: #b0b0b0; stroke-width: 0.8"/>
    <path d="M 329.862103 114.969035 
L 327.321552 262.247879 
L 131.846112 320.165725 
" style="fill: none; stroke: #b0b0b0; stroke-width: 0.8"/>
    <path d="M 316.99105 105.576327 
L 315.001847 251.921258 
L 120.751806 308.780238 
" style="fill: none; stroke: #b0b0b0; stroke-width: 0.8"/>
   </g>
  </g>
  <g id="grid3d_3">
   <g id="Line3DCollection_3">
    <path d="M 113.914142 292.151561 
L 308.029112 236.213488 
L 429.027044 336.756023 
" style="fill: none; stroke: #b0b0b0; stroke-width: 0.8"/>
    <path d="M 113.109437 274.578862 
L 308.224765 219.199005 
L 429.893777 318.757751 
" style="fill: none; stroke: #b0b0b0; stroke-width: 0.8"/>
    <path d="M 112.296313 256.822318 
L 308.422367 202.015024 
L 430.769923 300.564002 
" style="fill: none; stroke: #b0b0b0; stroke-width: 0.8"/>
    <path d="M 111.474638 238.87903 
L 308.621947 184.658998 
L 431.655637 282.171574 
" style="fill: none; stroke: #b0b0b0; stroke-width: 0.8"/>
    <path d="M 110.644275 220.746036 
L 308.823536 167.128331 
L 432.551077 263.577195 
" style="fill: none; stroke: #b0b0b0; stroke-width: 0.8"/>
    <path d="M 109.805087 202.420312 
L 309.027163 149.420373 
L 433.456402 244.77752 
" style="fill: none; stroke: #b0b0b0; stroke-width: 0.8"/>
    <path d="M 108.956932 183.898768 
L 309.232861 131.532421 
L 434.371779 225.769131 
" style="fill: none; stroke: #b0b0b0; stroke-width: 0.8"/>
    <path d="M 108.099665 165.178249 
L 309.440659 113.461716 
L 435.297375 206.548532 
" style="fill: none; stroke: #b0b0b0; stroke-width: 0.8"/>
   </g>
  </g>
  <g id="axis3d_1">
   <g id="line2d_1">
    <path d="M 428.529753 347.082599 
L 223.367062 414.088734 
" style="fill: none; stroke: #000000; stroke-width: 0.8; stroke-linecap: square"/>
   </g>
   <g id="xtick_1">
    <g id="line2d_2">
     <path d="M 236.122648 408.637925 
L 239.00689 411.556209 
" style="fill: none; stroke: #000000; stroke-width: 0.8; stroke-linecap: square"/>
    </g>
    <g id="text_1">
     <!-- 0 -->
     <g transform="translate(236.459939 422.971576) scale(0.1 -0.1)">
      <defs>
       <path id="DejaVuSans-30" d="M 2034 4250 
Q 1547 4250 1301 3770 
Q 1056 3291 1056 2328 
Q 1056 1369 1301 889 
Q 1547 409 2034 409 
Q 2525 409 2770 889 
Q 3016 1369 3016 2328 
Q 3016 3291 2770 3770 
Q 2525 4250 2034 4250 
z
M 2034 4750 
Q 2819 4750 3233 4129 
Q 3647 3509 3647 2328 
Q 3647 1150 3233 529 
Q 2819 -91 2034 -91 
Q 1250 -91 836 529 
Q 422 1150 422 2328 
Q 422 3509 836 4129 
Q 1250 4750 2034 4750 
z
" transform="scale(0.015625)"/>
      </defs>
      <use xlink:href="#DejaVuSans-30"/>
     </g>
    </g>
   </g>
   <g id="xtick_2">
    <g id="line2d_3">
     <path d="M 259.405457 401.041274 
L 262.324797 403.925484 
" style="fill: none; stroke: #000000; stroke-width: 0.8; stroke-linecap: square"/>
    </g>
    <g id="text_2">
     <!-- 1 -->
     <g transform="translate(259.76223 415.322383) scale(0.1 -0.1)">
      <defs>
       <path id="DejaVuSans-31" d="M 794 531 
L 1825 531 
L 1825 4091 
L 703 3866 
L 703 4441 
L 1819 4666 
L 2450 4666 
L 2450 531 
L 3481 531 
L 3481 0 
L 794 0 
L 794 531 
z
" transform="scale(0.015625)"/>
      </defs>
      <use xlink:href="#DejaVuSans-31"/>
     </g>
    </g>
   </g>
   <g id="xtick_3">
    <g id="line2d_4">
     <path d="M 282.417507 393.532965 
L 285.370934 396.383695 
" style="fill: none; stroke: #000000; stroke-width: 0.8; stroke-linecap: square"/>
    </g>
    <g id="text_3">
     <!-- 2 -->
     <g transform="translate(282.793072 407.762296) scale(0.1 -0.1)">
      <defs>
       <path id="DejaVuSans-32" d="M 1228 531 
L 3431 531 
L 3431 0 
L 469 0 
L 469 531 
Q 828 903 1448 1529 
Q 2069 2156 2228 2338 
Q 2531 2678 2651 2914 
Q 2772 3150 2772 3378 
Q 2772 3750 2511 3984 
Q 2250 4219 1831 4219 
Q 1534 4219 1204 4116 
Q 875 4013 500 3803 
L 500 4441 
Q 881 4594 1212 4672 
Q 1544 4750 1819 4750 
Q 2544 4750 2975 4387 
Q 3406 4025 3406 3419 
Q 3406 3131 3298 2873 
Q 3191 2616 2906 2266 
Q 2828 2175 2409 1742 
Q 1991 1309 1228 531 
z
" transform="scale(0.015625)"/>
      </defs>
      <use xlink:href="#DejaVuSans-32"/>
     </g>
    </g>
   </g>
   <g id="xtick_4">
    <g id="line2d_5">
     <path d="M 305.163494 386.111467 
L 308.150026 388.929297 
" style="fill: none; stroke: #000000; stroke-width: 0.8; stroke-linecap: square"/>
    </g>
    <g id="text_4">
     <!-- 3 -->
     <g transform="translate(305.557179 400.289768) scale(0.1 -0.1)">
      <defs>
       <path id="DejaVuSans-33" d="M 2597 2516 
Q 3050 2419 3304 2112 
Q 3559 1806 3559 1356 
Q 3559 666 3084 287 
Q 2609 -91 1734 -91 
Q 1441 -91 1130 -33 
Q 819 25 488 141 
L 488 750 
Q 750 597 1062 519 
Q 1375 441 1716 441 
Q 2309 441 2620 675 
Q 2931 909 2931 1356 
Q 2931 1769 2642 2001 
Q 2353 2234 1838 2234 
L 1294 2234 
L 1294 2753 
L 1863 2753 
Q 2328 2753 2575 2939 
Q 2822 3125 2822 3475 
Q 2822 3834 2567 4026 
Q 2313 4219 1838 4219 
Q 1578 4219 1281 4162 
Q 984 4106 628 3988 
L 628 4550 
Q 988 4650 1302 4700 
Q 1616 4750 1894 4750 
Q 2613 4750 3031 4423 
Q 3450 4097 3450 3541 
Q 3450 3153 3228 2886 
Q 3006 2619 2597 2516 
z
" transform="scale(0.015625)"/>
      </defs>
      <use xlink:href="#DejaVuSans-33"/>
     </g>
    </g>
   </g>
   <g id="xtick_5">
    <g id="line2d_6">
     <path d="M 327.648005 378.775283 
L 330.666687 381.560778 
" style="fill: none; stroke: #000000; stroke-width: 0.8; stroke-linecap: square"/>
    </g>
    <g id="text_5">
     <!-- 4 -->
     <g transform="translate(328.05916 392.903284) scale(0.1 -0.1)">
      <defs>
       <path id="DejaVuSans-34" d="M 2419 4116 
L 825 1625 
L 2419 1625 
L 2419 4116 
z
M 2253 4666 
L 3047 4666 
L 3047 1625 
L 3713 1625 
L 3713 1100 
L 3047 1100 
L 3047 0 
L 2419 0 
L 2419 1100 
L 313 1100 
L 313 1709 
L 2253 4666 
z
" transform="scale(0.015625)"/>
      </defs>
      <use xlink:href="#DejaVuSans-34"/>
     </g>
    </g>
   </g>
   <g id="xtick_6">
    <g id="line2d_7">
     <path d="M 349.875523 371.522949 
L 352.925425 374.276663 
" style="fill: none; stroke: #000000; stroke-width: 0.8; stroke-linecap: square"/>
    </g>
    <g id="text_6">
     <!-- 5 -->
     <g transform="translate(350.303515 385.601369) scale(0.1 -0.1)">
      <defs>
       <path id="DejaVuSans-35" d="M 691 4666 
L 3169 4666 
L 3169 4134 
L 1269 4134 
L 1269 2991 
Q 1406 3038 1543 3061 
Q 1681 3084 1819 3084 
Q 2600 3084 3056 2656 
Q 3513 2228 3513 1497 
Q 3513 744 3044 326 
Q 2575 -91 1722 -91 
Q 1428 -91 1123 -41 
Q 819 9 494 109 
L 494 744 
Q 775 591 1075 516 
Q 1375 441 1709 441 
Q 2250 441 2565 725 
Q 2881 1009 2881 1497 
Q 2881 1984 2565 2268 
Q 2250 2553 1709 2553 
Q 1456 2553 1204 2497 
Q 953 2441 691 2322 
L 691 4666 
z
" transform="scale(0.015625)"/>
      </defs>
      <use xlink:href="#DejaVuSans-35"/>
     </g>
    </g>
   </g>
   <g id="xtick_7">
    <g id="line2d_8">
     <path d="M 371.850429 364.353037 
L 374.930649 367.075511 
" style="fill: none; stroke: #000000; stroke-width: 0.8; stroke-linecap: square"/>
    </g>
    <g id="text_7">
     <!-- 6 -->
     <g transform="translate(372.294644 378.382577) scale(0.1 -0.1)">
      <defs>
       <path id="DejaVuSans-36" d="M 2113 2584 
Q 1688 2584 1439 2293 
Q 1191 2003 1191 1497 
Q 1191 994 1439 701 
Q 1688 409 2113 409 
Q 2538 409 2786 701 
Q 3034 994 3034 1497 
Q 3034 2003 2786 2293 
Q 2538 2584 2113 2584 
z
M 3366 4563 
L 3366 3988 
Q 3128 4100 2886 4159 
Q 2644 4219 2406 4219 
Q 1781 4219 1451 3797 
Q 1122 3375 1075 2522 
Q 1259 2794 1537 2939 
Q 1816 3084 2150 3084 
Q 2853 3084 3261 2657 
Q 3669 2231 3669 1497 
Q 3669 778 3244 343 
Q 2819 -91 2113 -91 
Q 1303 -91 875 529 
Q 447 1150 447 2328 
Q 447 3434 972 4092 
Q 1497 4750 2381 4750 
Q 2619 4750 2861 4703 
Q 3103 4656 3366 4563 
z
" transform="scale(0.015625)"/>
      </defs>
      <use xlink:href="#DejaVuSans-36"/>
     </g>
    </g>
   </g>
   <g id="xtick_8">
    <g id="line2d_9">
     <path d="M 393.577005 357.26415 
L 396.686663 359.955912 
" style="fill: none; stroke: #000000; stroke-width: 0.8; stroke-linecap: square"/>
    </g>
    <g id="text_8">
     <!-- 7 -->
     <g transform="translate(394.036847 371.245498) scale(0.1 -0.1)">
      <defs>
       <path id="DejaVuSans-37" d="M 525 4666 
L 3525 4666 
L 3525 4397 
L 1831 0 
L 1172 0 
L 2766 4134 
L 525 4134 
L 525 4666 
z
" transform="scale(0.015625)"/>
      </defs>
      <use xlink:href="#DejaVuSans-37"/>
     </g>
    </g>
   </g>
   <g id="xtick_9">
    <g id="line2d_10">
     <path d="M 415.059438 350.254921 
L 418.197677 352.916488 
" style="fill: none; stroke: #000000; stroke-width: 0.8; stroke-linecap: square"/>
    </g>
    <g id="text_9">
     <!-- 8 -->
     <g transform="translate(415.534326 364.188752) scale(0.1 -0.1)">
      <defs>
       <path id="DejaVuSans-38" d="M 2034 2216 
Q 1584 2216 1326 1975 
Q 1069 1734 1069 1313 
Q 1069 891 1326 650 
Q 1584 409 2034 409 
Q 2484 409 2743 651 
Q 3003 894 3003 1313 
Q 3003 1734 2745 1975 
Q 2488 2216 2034 2216 
z
M 1403 2484 
Q 997 2584 770 2862 
Q 544 3141 544 3541 
Q 544 4100 942 4425 
Q 1341 4750 2034 4750 
Q 2731 4750 3128 4425 
Q 3525 4100 3525 3541 
Q 3525 3141 3298 2862 
Q 3072 2584 2669 2484 
Q 3125 2378 3379 2068 
Q 3634 1759 3634 1313 
Q 3634 634 3220 271 
Q 2806 -91 2034 -91 
Q 1263 -91 848 271 
Q 434 634 434 1313 
Q 434 1759 690 2068 
Q 947 2378 1403 2484 
z
M 1172 3481 
Q 1172 3119 1398 2916 
Q 1625 2713 2034 2713 
Q 2441 2713 2670 2916 
Q 2900 3119 2900 3481 
Q 2900 3844 2670 4047 
Q 2441 4250 2034 4250 
Q 1625 4250 1398 4047 
Q 1172 3844 1172 3481 
z
" transform="scale(0.015625)"/>
      </defs>
      <use xlink:href="#DejaVuSans-38"/>
     </g>
    </g>
   </g>
   <g id="text_10">
    <!-- Kletter Tage -->
    <g transform="translate(312.090662 415.50236) rotate(-18.087038) scale(0.1 -0.1)">
     <defs>
      <path id="DejaVuSans-4b" d="M 628 4666 
L 1259 4666 
L 1259 2694 
L 3353 4666 
L 4166 4666 
L 1850 2491 
L 4331 0 
L 3500 0 
L 1259 2247 
L 1259 0 
L 628 0 
L 628 4666 
z
" transform="scale(0.015625)"/>
      <path id="DejaVuSans-6c" d="M 603 4863 
L 1178 4863 
L 1178 0 
L 603 0 
L 603 4863 
z
" transform="scale(0.015625)"/>
      <path id="DejaVuSans-65" d="M 3597 1894 
L 3597 1613 
L 953 1613 
Q 991 1019 1311 708 
Q 1631 397 2203 397 
Q 2534 397 2845 478 
Q 3156 559 3463 722 
L 3463 178 
Q 3153 47 2828 -22 
Q 2503 -91 2169 -91 
Q 1331 -91 842 396 
Q 353 884 353 1716 
Q 353 2575 817 3079 
Q 1281 3584 2069 3584 
Q 2775 3584 3186 3129 
Q 3597 2675 3597 1894 
z
M 3022 2063 
Q 3016 2534 2758 2815 
Q 2500 3097 2075 3097 
Q 1594 3097 1305 2825 
Q 1016 2553 972 2059 
L 3022 2063 
z
" transform="scale(0.015625)"/>
      <path id="DejaVuSans-74" d="M 1172 4494 
L 1172 3500 
L 2356 3500 
L 2356 3053 
L 1172 3053 
L 1172 1153 
Q 1172 725 1289 603 
Q 1406 481 1766 481 
L 2356 481 
L 2356 0 
L 1766 0 
Q 1100 0 847 248 
Q 594 497 594 1153 
L 594 3053 
L 172 3053 
L 172 3500 
L 594 3500 
L 594 4494 
L 1172 4494 
z
" transform="scale(0.015625)"/>
      <path id="DejaVuSans-72" d="M 2631 2963 
Q 2534 3019 2420 3045 
Q 2306 3072 2169 3072 
Q 1681 3072 1420 2755 
Q 1159 2438 1159 1844 
L 1159 0 
L 581 0 
L 581 3500 
L 1159 3500 
L 1159 2956 
Q 1341 3275 1631 3429 
Q 1922 3584 2338 3584 
Q 2397 3584 2469 3576 
Q 2541 3569 2628 3553 
L 2631 2963 
z
" transform="scale(0.015625)"/>
      <path id="DejaVuSans-20" transform="scale(0.015625)"/>
      <path id="DejaVuSans-54" d="M -19 4666 
L 3928 4666 
L 3928 4134 
L 2272 4134 
L 2272 0 
L 1638 0 
L 1638 4134 
L -19 4134 
L -19 4666 
z
" transform="scale(0.015625)"/>
      <path id="DejaVuSans-61" d="M 2194 1759 
Q 1497 1759 1228 1600 
Q 959 1441 959 1056 
Q 959 750 1161 570 
Q 1363 391 1709 391 
Q 2188 391 2477 730 
Q 2766 1069 2766 1631 
L 2766 1759 
L 2194 1759 
z
M 3341 1997 
L 3341 0 
L 2766 0 
L 2766 531 
Q 2569 213 2275 61 
Q 1981 -91 1556 -91 
Q 1019 -91 701 211 
Q 384 513 384 1019 
Q 384 1609 779 1909 
Q 1175 2209 1959 2209 
L 2766 2209 
L 2766 2266 
Q 2766 2663 2505 2880 
Q 2244 3097 1772 3097 
Q 1472 3097 1187 3025 
Q 903 2953 641 2809 
L 641 3341 
Q 956 3463 1253 3523 
Q 1550 3584 1831 3584 
Q 2591 3584 2966 3190 
Q 3341 2797 3341 1997 
z
" transform="scale(0.015625)"/>
      <path id="DejaVuSans-67" d="M 2906 1791 
Q 2906 2416 2648 2759 
Q 2391 3103 1925 3103 
Q 1463 3103 1205 2759 
Q 947 2416 947 1791 
Q 947 1169 1205 825 
Q 1463 481 1925 481 
Q 2391 481 2648 825 
Q 2906 1169 2906 1791 
z
M 3481 434 
Q 3481 -459 3084 -895 
Q 2688 -1331 1869 -1331 
Q 1566 -1331 1297 -1286 
Q 1028 -1241 775 -1147 
L 775 -588 
Q 1028 -725 1275 -790 
Q 1522 -856 1778 -856 
Q 2344 -856 2625 -561 
Q 2906 -266 2906 331 
L 2906 616 
Q 2728 306 2450 153 
Q 2172 0 1784 0 
Q 1141 0 747 490 
Q 353 981 353 1791 
Q 353 2603 747 3093 
Q 1141 3584 1784 3584 
Q 2172 3584 2450 3431 
Q 2728 3278 2906 2969 
L 2906 3500 
L 3481 3500 
L 3481 434 
z
" transform="scale(0.015625)"/>
     </defs>
     <use xlink:href="#DejaVuSans-4b"/>
     <use xlink:href="#DejaVuSans-6c" x="65.576172"/>
     <use xlink:href="#DejaVuSans-65" x="93.359375"/>
     <use xlink:href="#DejaVuSans-74" x="154.882812"/>
     <use xlink:href="#DejaVuSans-74" x="194.091797"/>
     <use xlink:href="#DejaVuSans-65" x="233.300781"/>
     <use xlink:href="#DejaVuSans-72" x="294.824219"/>
     <use xlink:href="#DejaVuSans-20" x="335.9375"/>
     <use xlink:href="#DejaVuSans-54" x="367.724609"/>
     <use xlink:href="#DejaVuSans-61" x="412.308594"/>
     <use xlink:href="#DejaVuSans-67" x="473.587891"/>
     <use xlink:href="#DejaVuSans-65" x="537.064453"/>
    </g>
   </g>
  </g>
  <g id="axis3d_2">
   <g id="line2d_11">
    <path d="M 114.375987 302.237079 
L 223.367062 414.088734 
" style="fill: none; stroke: #000000; stroke-width: 0.8; stroke-linecap: square"/>
   </g>
   <g id="xtick_10">
    <g id="line2d_12">
     <path d="M 217.548147 405.791313 
L 212.37642 407.467212 
" style="fill: none; stroke: #000000; stroke-width: 0.8; stroke-linecap: square"/>
    </g>
    <g id="text_11">
     <!-- 0 -->
     <g transform="translate(208.166254 418.614788) scale(0.1 -0.1)">
      <use xlink:href="#DejaVuSans-30"/>
     </g>
    </g>
   </g>
   <g id="xtick_11">
    <g id="line2d_13">
     <path d="M 204.814334 392.746697 
L 199.678427 394.389009 
" style="fill: none; stroke: #000000; stroke-width: 0.8; stroke-linecap: square"/>
    </g>
    <g id="text_12">
     <!-- 1 -->
     <g transform="translate(195.487545 405.510031) scale(0.1 -0.1)">
      <use xlink:href="#DejaVuSans-31"/>
     </g>
    </g>
   </g>
   <g id="xtick_12">
    <g id="line2d_14">
     <path d="M 192.334297 379.962052 
L 187.233817 381.571776 
" style="fill: none; stroke: #000000; stroke-width: 0.8; stroke-linecap: square"/>
    </g>
    <g id="text_13">
     <!-- 2 -->
     <g transform="translate(183.061658 392.666593) scale(0.1 -0.1)">
      <use xlink:href="#DejaVuSans-32"/>
     </g>
    </g>
   </g>
   <g id="xtick_13">
    <g id="line2d_15">
     <path d="M 180.100526 367.429683 
L 175.035082 369.00778 
" style="fill: none; stroke: #000000; stroke-width: 0.8; stroke-linecap: square"/>
    </g>
    <g id="text_14">
     <!-- 3 -->
     <g transform="translate(170.881107 380.076734) scale(0.1 -0.1)">
      <use xlink:href="#DejaVuSans-33"/>
     </g>
    </g>
   </g>
   <g id="xtick_14">
    <g id="line2d_16">
     <path d="M 168.105802 355.142196 
L 163.075005 356.689588 
" style="fill: none; stroke: #000000; stroke-width: 0.8; stroke-linecap: square"/>
    </g>
    <g id="text_15">
     <!-- 4 -->
     <g transform="translate(158.938696 367.733017) scale(0.1 -0.1)">
      <use xlink:href="#DejaVuSans-34"/>
     </g>
    </g>
   </g>
   <g id="xtick_15">
    <g id="line2d_17">
     <path d="M 156.343186 343.092482 
L 151.346651 344.610058 
" style="fill: none; stroke: #000000; stroke-width: 0.8; stroke-linecap: square"/>
    </g>
    <g id="text_16">
     <!-- 5 -->
     <g transform="translate(147.227509 355.628295) scale(0.1 -0.1)">
      <use xlink:href="#DejaVuSans-35"/>
     </g>
    </g>
   </g>
   <g id="xtick_16">
    <g id="line2d_18">
     <path d="M 144.806006 331.273706 
L 139.84335 332.762319 
" style="fill: none; stroke: #000000; stroke-width: 0.8; stroke-linecap: square"/>
    </g>
    <g id="text_17">
     <!-- 6 -->
     <g transform="translate(135.740896 343.755693) scale(0.1 -0.1)">
      <use xlink:href="#DejaVuSans-36"/>
     </g>
    </g>
   </g>
   <g id="xtick_17">
    <g id="line2d_19">
     <path d="M 133.487843 319.679293 
L 128.558686 321.139763 
" style="fill: none; stroke: #000000; stroke-width: 0.8; stroke-linecap: square"/>
    </g>
    <g id="text_18">
     <!-- 7 -->
     <g transform="translate(124.472457 332.108597) scale(0.1 -0.1)">
      <use xlink:href="#DejaVuSans-37"/>
     </g>
    </g>
   </g>
   <g id="xtick_18">
    <g id="line2d_20">
     <path d="M 122.382518 308.302912 
L 117.486484 309.736032 
" style="fill: none; stroke: #000000; stroke-width: 0.8; stroke-linecap: square"/>
    </g>
    <g id="text_19">
     <!-- 8 -->
     <g transform="translate(113.416036 320.680643) scale(0.1 -0.1)">
      <use xlink:href="#DejaVuSans-38"/>
     </g>
    </g>
   </g>
   <g id="text_20">
    <!-- Boulder Tage -->
    <g transform="translate(123.454345 353.35245) rotate(-314.257888) scale(0.1 -0.1)">
     <defs>
      <path id="DejaVuSans-42" d="M 1259 2228 
L 1259 519 
L 2272 519 
Q 2781 519 3026 730 
Q 3272 941 3272 1375 
Q 3272 1813 3026 2020 
Q 2781 2228 2272 2228 
L 1259 2228 
z
M 1259 4147 
L 1259 2741 
L 2194 2741 
Q 2656 2741 2882 2914 
Q 3109 3088 3109 3444 
Q 3109 3797 2882 3972 
Q 2656 4147 2194 4147 
L 1259 4147 
z
M 628 4666 
L 2241 4666 
Q 2963 4666 3353 4366 
Q 3744 4066 3744 3513 
Q 3744 3084 3544 2831 
Q 3344 2578 2956 2516 
Q 3422 2416 3680 2098 
Q 3938 1781 3938 1306 
Q 3938 681 3513 340 
Q 3088 0 2303 0 
L 628 0 
L 628 4666 
z
" transform="scale(0.015625)"/>
      <path id="DejaVuSans-6f" d="M 1959 3097 
Q 1497 3097 1228 2736 
Q 959 2375 959 1747 
Q 959 1119 1226 758 
Q 1494 397 1959 397 
Q 2419 397 2687 759 
Q 2956 1122 2956 1747 
Q 2956 2369 2687 2733 
Q 2419 3097 1959 3097 
z
M 1959 3584 
Q 2709 3584 3137 3096 
Q 3566 2609 3566 1747 
Q 3566 888 3137 398 
Q 2709 -91 1959 -91 
Q 1206 -91 779 398 
Q 353 888 353 1747 
Q 353 2609 779 3096 
Q 1206 3584 1959 3584 
z
" transform="scale(0.015625)"/>
      <path id="DejaVuSans-75" d="M 544 1381 
L 544 3500 
L 1119 3500 
L 1119 1403 
Q 1119 906 1312 657 
Q 1506 409 1894 409 
Q 2359 409 2629 706 
Q 2900 1003 2900 1516 
L 2900 3500 
L 3475 3500 
L 3475 0 
L 2900 0 
L 2900 538 
Q 2691 219 2414 64 
Q 2138 -91 1772 -91 
Q 1169 -91 856 284 
Q 544 659 544 1381 
z
M 1991 3584 
L 1991 3584 
z
" transform="scale(0.015625)"/>
      <path id="DejaVuSans-64" d="M 2906 2969 
L 2906 4863 
L 3481 4863 
L 3481 0 
L 2906 0 
L 2906 525 
Q 2725 213 2448 61 
Q 2172 -91 1784 -91 
Q 1150 -91 751 415 
Q 353 922 353 1747 
Q 353 2572 751 3078 
Q 1150 3584 1784 3584 
Q 2172 3584 2448 3432 
Q 2725 3281 2906 2969 
z
M 947 1747 
Q 947 1113 1208 752 
Q 1469 391 1925 391 
Q 2381 391 2643 752 
Q 2906 1113 2906 1747 
Q 2906 2381 2643 2742 
Q 2381 3103 1925 3103 
Q 1469 3103 1208 2742 
Q 947 2381 947 1747 
z
" transform="scale(0.015625)"/>
     </defs>
     <use xlink:href="#DejaVuSans-42"/>
     <use xlink:href="#DejaVuSans-6f" x="68.603516"/>
     <use xlink:href="#DejaVuSans-75" x="129.785156"/>
     <use xlink:href="#DejaVuSans-6c" x="193.164062"/>
     <use xlink:href="#DejaVuSans-64" x="220.947266"/>
     <use xlink:href="#DejaVuSans-65" x="284.423828"/>
     <use xlink:href="#DejaVuSans-72" x="345.947266"/>
     <use xlink:href="#DejaVuSans-20" x="387.060547"/>
     <use xlink:href="#DejaVuSans-54" x="418.847656"/>
     <use xlink:href="#DejaVuSans-61" x="463.431641"/>
     <use xlink:href="#DejaVuSans-67" x="524.710938"/>
     <use xlink:href="#DejaVuSans-65" x="588.1875"/>
    </g>
   </g>
  </g>
  <g id="axis3d_3">
   <g id="line2d_21">
    <path d="M 114.375987 302.237079 
L 107.469198 151.410465 
" style="fill: none; stroke: #000000; stroke-width: 0.8; stroke-linecap: square"/>
   </g>
   <g id="xtick_19">
    <g id="line2d_22">
     <path d="M 115.543529 291.68202 
L 110.651479 293.091761 
" style="fill: none; stroke: #000000; stroke-width: 0.8; stroke-linecap: square"/>
    </g>
    <g id="text_21">
     <!-- 80 -->
     <g transform="translate(93.209701 297.719886) scale(0.1 -0.1)">
      <use xlink:href="#DejaVuSans-38"/>
      <use xlink:href="#DejaVuSans-30" x="63.623047"/>
     </g>
    </g>
   </g>
   <g id="xtick_20">
    <g id="line2d_23">
     <path d="M 114.747621 274.113893 
L 109.82914 275.509913 
" style="fill: none; stroke: #000000; stroke-width: 0.8; stroke-linecap: square"/>
    </g>
    <g id="text_22">
     <!-- 100 -->
     <g transform="translate(89.150632 280.166969) scale(0.1 -0.1)">
      <use xlink:href="#DejaVuSans-31"/>
      <use xlink:href="#DejaVuSans-30" x="63.623047"/>
      <use xlink:href="#DejaVuSans-30" x="127.246094"/>
     </g>
    </g>
   </g>
   <g id="xtick_21">
    <g id="line2d_24">
     <path d="M 113.943389 256.362044 
L 108.99819 257.743976 
" style="fill: none; stroke: #000000; stroke-width: 0.8; stroke-linecap: square"/>
    </g>
    <g id="text_23">
     <!-- 120 -->
     <g transform="translate(88.263645 262.430733) scale(0.1 -0.1)">
      <use xlink:href="#DejaVuSans-31"/>
      <use xlink:href="#DejaVuSans-32" x="63.623047"/>
      <use xlink:href="#DejaVuSans-30" x="127.246094"/>
     </g>
    </g>
   </g>
   <g id="xtick_22">
    <g id="line2d_25">
     <path d="M 113.130703 238.423574 
L 108.158494 239.791046 
" style="fill: none; stroke: #000000; stroke-width: 0.8; stroke-linecap: square"/>
    </g>
    <g id="text_24">
     <!-- 140 -->
     <g transform="translate(87.367346 244.508292) scale(0.1 -0.1)">
      <use xlink:href="#DejaVuSans-31"/>
      <use xlink:href="#DejaVuSans-34" x="63.623047"/>
      <use xlink:href="#DejaVuSans-30" x="127.246094"/>
     </g>
    </g>
   </g>
   <g id="xtick_23">
    <g id="line2d_26">
     <path d="M 112.309428 220.295527 
L 107.309913 221.648153 
" style="fill: none; stroke: #000000; stroke-width: 0.8; stroke-linecap: square"/>
    </g>
    <g id="text_25">
     <!-- 160 -->
     <g transform="translate(86.461588 226.396697) scale(0.1 -0.1)">
      <use xlink:href="#DejaVuSans-31"/>
      <use xlink:href="#DejaVuSans-36" x="63.623047"/>
      <use xlink:href="#DejaVuSans-30" x="127.246094"/>
     </g>
    </g>
   </g>
   <g id="xtick_24">
    <g id="line2d_27">
     <path d="M 111.479428 201.97488 
L 106.452305 203.312268 
" style="fill: none; stroke: #000000; stroke-width: 0.8; stroke-linecap: square"/>
    </g>
    <g id="text_26">
     <!-- 180 -->
     <g transform="translate(85.546219 208.092938) scale(0.1 -0.1)">
      <use xlink:href="#DejaVuSans-31"/>
      <use xlink:href="#DejaVuSans-38" x="63.623047"/>
      <use xlink:href="#DejaVuSans-30" x="127.246094"/>
     </g>
    </g>
   </g>
   <g id="xtick_25">
    <g id="line2d_28">
     <path d="M 110.640562 183.458547 
L 105.585526 184.780293 
" style="fill: none; stroke: #000000; stroke-width: 0.8; stroke-linecap: square"/>
    </g>
    <g id="text_27">
     <!-- 200 -->
     <g transform="translate(84.621087 189.593941) scale(0.1 -0.1)">
      <use xlink:href="#DejaVuSans-32"/>
      <use xlink:href="#DejaVuSans-30" x="63.623047"/>
      <use xlink:href="#DejaVuSans-30" x="127.246094"/>
     </g>
    </g>
   </g>
   <g id="xtick_26">
    <g id="line2d_29">
     <path d="M 109.792688 164.743378 
L 104.709428 166.049066 
" style="fill: none; stroke: #000000; stroke-width: 0.8; stroke-linecap: square"/>
    </g>
    <g id="text_28">
     <!-- 220 -->
     <g transform="translate(83.686034 170.896565) scale(0.1 -0.1)">
      <use xlink:href="#DejaVuSans-32"/>
      <use xlink:href="#DejaVuSans-32" x="63.623047"/>
      <use xlink:href="#DejaVuSans-30" x="127.246094"/>
     </g>
    </g>
   </g>
   <g id="text_29">
    <!-- Maximaler Preis / Monat -->
    <g transform="translate(74.713875 164.401188) rotate(-272.621908) scale(0.1 -0.1)">
     <defs>
      <path id="DejaVuSans-4d" d="M 628 4666 
L 1569 4666 
L 2759 1491 
L 3956 4666 
L 4897 4666 
L 4897 0 
L 4281 0 
L 4281 4097 
L 3078 897 
L 2444 897 
L 1241 4097 
L 1241 0 
L 628 0 
L 628 4666 
z
" transform="scale(0.015625)"/>
      <path id="DejaVuSans-78" d="M 3513 3500 
L 2247 1797 
L 3578 0 
L 2900 0 
L 1881 1375 
L 863 0 
L 184 0 
L 1544 1831 
L 300 3500 
L 978 3500 
L 1906 2253 
L 2834 3500 
L 3513 3500 
z
" transform="scale(0.015625)"/>
      <path id="DejaVuSans-69" d="M 603 3500 
L 1178 3500 
L 1178 0 
L 603 0 
L 603 3500 
z
M 603 4863 
L 1178 4863 
L 1178 4134 
L 603 4134 
L 603 4863 
z
" transform="scale(0.015625)"/>
      <path id="DejaVuSans-6d" d="M 3328 2828 
Q 3544 3216 3844 3400 
Q 4144 3584 4550 3584 
Q 5097 3584 5394 3201 
Q 5691 2819 5691 2113 
L 5691 0 
L 5113 0 
L 5113 2094 
Q 5113 2597 4934 2840 
Q 4756 3084 4391 3084 
Q 3944 3084 3684 2787 
Q 3425 2491 3425 1978 
L 3425 0 
L 2847 0 
L 2847 2094 
Q 2847 2600 2669 2842 
Q 2491 3084 2119 3084 
Q 1678 3084 1418 2786 
Q 1159 2488 1159 1978 
L 1159 0 
L 581 0 
L 581 3500 
L 1159 3500 
L 1159 2956 
Q 1356 3278 1631 3431 
Q 1906 3584 2284 3584 
Q 2666 3584 2933 3390 
Q 3200 3197 3328 2828 
z
" transform="scale(0.015625)"/>
      <path id="DejaVuSans-50" d="M 1259 4147 
L 1259 2394 
L 2053 2394 
Q 2494 2394 2734 2622 
Q 2975 2850 2975 3272 
Q 2975 3691 2734 3919 
Q 2494 4147 2053 4147 
L 1259 4147 
z
M 628 4666 
L 2053 4666 
Q 2838 4666 3239 4311 
Q 3641 3956 3641 3272 
Q 3641 2581 3239 2228 
Q 2838 1875 2053 1875 
L 1259 1875 
L 1259 0 
L 628 0 
L 628 4666 
z
" transform="scale(0.015625)"/>
      <path id="DejaVuSans-73" d="M 2834 3397 
L 2834 2853 
Q 2591 2978 2328 3040 
Q 2066 3103 1784 3103 
Q 1356 3103 1142 2972 
Q 928 2841 928 2578 
Q 928 2378 1081 2264 
Q 1234 2150 1697 2047 
L 1894 2003 
Q 2506 1872 2764 1633 
Q 3022 1394 3022 966 
Q 3022 478 2636 193 
Q 2250 -91 1575 -91 
Q 1294 -91 989 -36 
Q 684 19 347 128 
L 347 722 
Q 666 556 975 473 
Q 1284 391 1588 391 
Q 1994 391 2212 530 
Q 2431 669 2431 922 
Q 2431 1156 2273 1281 
Q 2116 1406 1581 1522 
L 1381 1569 
Q 847 1681 609 1914 
Q 372 2147 372 2553 
Q 372 3047 722 3315 
Q 1072 3584 1716 3584 
Q 2034 3584 2315 3537 
Q 2597 3491 2834 3397 
z
" transform="scale(0.015625)"/>
      <path id="DejaVuSans-2f" d="M 1625 4666 
L 2156 4666 
L 531 -594 
L 0 -594 
L 1625 4666 
z
" transform="scale(0.015625)"/>
      <path id="DejaVuSans-6e" d="M 3513 2113 
L 3513 0 
L 2938 0 
L 2938 2094 
Q 2938 2591 2744 2837 
Q 2550 3084 2163 3084 
Q 1697 3084 1428 2787 
Q 1159 2491 1159 1978 
L 1159 0 
L 581 0 
L 581 3500 
L 1159 3500 
L 1159 2956 
Q 1366 3272 1645 3428 
Q 1925 3584 2291 3584 
Q 2894 3584 3203 3211 
Q 3513 2838 3513 2113 
z
" transform="scale(0.015625)"/>
     </defs>
     <use xlink:href="#DejaVuSans-4d"/>
     <use xlink:href="#DejaVuSans-61" x="86.279297"/>
     <use xlink:href="#DejaVuSans-78" x="147.558594"/>
     <use xlink:href="#DejaVuSans-69" x="206.738281"/>
     <use xlink:href="#DejaVuSans-6d" x="234.521484"/>
     <use xlink:href="#DejaVuSans-61" x="331.933594"/>
     <use xlink:href="#DejaVuSans-6c" x="393.212891"/>
     <use xlink:href="#DejaVuSans-65" x="420.996094"/>
     <use xlink:href="#DejaVuSans-72" x="482.519531"/>
     <use xlink:href="#DejaVuSans-20" x="523.632812"/>
     <use xlink:href="#DejaVuSans-50" x="555.419922"/>
     <use xlink:href="#DejaVuSans-72" x="613.972656"/>
     <use xlink:href="#DejaVuSans-65" x="652.835938"/>
     <use xlink:href="#DejaVuSans-69" x="714.359375"/>
     <use xlink:href="#DejaVuSans-73" x="742.142578"/>
     <use xlink:href="#DejaVuSans-20" x="794.242188"/>
     <use xlink:href="#DejaVuSans-2f" x="826.029297"/>
     <use xlink:href="#DejaVuSans-20" x="859.720703"/>
     <use xlink:href="#DejaVuSans-4d" x="891.507812"/>
     <use xlink:href="#DejaVuSans-6f" x="977.787109"/>
     <use xlink:href="#DejaVuSans-6e" x="1038.96875"/>
     <use xlink:href="#DejaVuSans-61" x="1102.347656"/>
     <use xlink:href="#DejaVuSans-74" x="1163.626953"/>
    </g>
   </g>
  </g>
  <g id="axes_1">
   <g id="Path3DCollection_1">
    <defs>
     <path id="m688df5ec81" d="M 0 2.236068 
C 0.593012 2.236068 1.161816 2.000462 1.581139 1.581139 
C 2.000462 1.161816 2.236068 0.593012 2.236068 0 
C 2.236068 -0.593012 2.000462 -1.161816 1.581139 -1.581139 
C 1.161816 -2.000462 0.593012 -2.236068 0 -2.236068 
C -0.593012 -2.236068 -1.161816 -2.000462 -1.581139 -1.581139 
C -2.000462 -1.161816 -2.236068 -0.593012 -2.236068 0 
C -2.236068 0.593012 -2.000462 1.161816 -1.581139 1.581139 
C -1.161816 2.000462 -0.593012 2.236068 0 2.236068 
z
" style="stroke: #000000"/>
    </defs>
    <g clip-path="url(#pf1a2984d0b)">
     <use xlink:href="#m688df5ec81" x="304.580602" y="118.42723" style="stroke: #000000"/>
    </g>
   </g>
   <g id="Path3DCollection_2">
    <g clip-path="url(#pf1a2984d0b)">
     <use xlink:href="#m688df5ec81" x="283.289254" y="138.546527" style="stroke: #000000"/>
    </g>
   </g>
   <g id="Path3DCollection_3">
    <g clip-path="url(#pf1a2984d0b)">
     <use xlink:href="#m688df5ec81" x="261.943644" y="158.717099" style="stroke: #000000"/>
    </g>
   </g>
   <g id="Path3DCollection_4">
    <g clip-path="url(#pf1a2984d0b)">
     <use xlink:href="#m688df5ec81" x="240.543564" y="178.939142" style="stroke: #000000"/>
    </g>
   </g>
   <g id="Path3DCollection_5">
    <g clip-path="url(#pf1a2984d0b)">
     <use xlink:href="#m688df5ec81" x="219.088805" y="199.212854" style="stroke: #000000"/>
    </g>
   </g>
   <g id="Path3DCollection_6">
    <g clip-path="url(#pf1a2984d0b)">
     <use xlink:href="#m688df5ec81" x="317.188111" y="138.97212" style="stroke: #000000"/>
    </g>
   </g>
   <g id="Path3DCollection_7">
    <g clip-path="url(#pf1a2984d0b)">
     <use xlink:href="#m688df5ec81" x="197.579158" y="219.538433" style="stroke: #000000"/>
    </g>
   </g>
   <g id="Path3DCollection_8">
    <g clip-path="url(#pf1a2984d0b)">
     <use xlink:href="#m688df5ec81" x="295.778756" y="159.244496" style="stroke: #000000"/>
    </g>
   </g>
   <g id="Path3DCollection_9">
    <g clip-path="url(#pf1a2984d0b)">
     <use xlink:href="#m688df5ec81" x="176.014411" y="239.916078" style="stroke: #000000"/>
    </g>
   </g>
   <g id="Path3DCollection_10">
    <g clip-path="url(#pf1a2984d0b)">
     <use xlink:href="#m688df5ec81" x="274.314494" y="179.568864" style="stroke: #000000"/>
    </g>
   </g>
   <g id="Path3DCollection_11">
    <g clip-path="url(#pf1a2984d0b)">
     <use xlink:href="#m688df5ec81" x="154.394353" y="260.34599" style="stroke: #000000"/>
    </g>
   </g>
   <g id="Path3DCollection_12">
    <g clip-path="url(#pf1a2984d0b)">
     <use xlink:href="#m688df5ec81" x="252.795114" y="199.945422" style="stroke: #000000"/>
    </g>
   </g>
   <g id="Path3DCollection_13">
    <g clip-path="url(#pf1a2984d0b)">
     <use xlink:href="#m688df5ec81" x="132.71877" y="280.82837" style="stroke: #000000"/>
    </g>
   </g>
   <g id="Path3DCollection_14">
    <g clip-path="url(#pf1a2984d0b)">
     <use xlink:href="#m688df5ec81" x="231.220402" y="220.374374" style="stroke: #000000"/>
    </g>
   </g>
   <g id="Path3DCollection_15">
    <g clip-path="url(#pf1a2984d0b)">
     <use xlink:href="#m688df5ec81" x="329.955297" y="159.777216" style="stroke: #000000"/>
    </g>
   </g>
   <g id="Path3DCollection_16">
    <g clip-path="url(#pf1a2984d0b)">
     <use xlink:href="#m688df5ec81" x="209.590145" y="240.855921" style="stroke: #000000"/>
    </g>
   </g>
   <g id="Path3DCollection_17">
    <g clip-path="url(#pf1a2984d0b)">
     <use xlink:href="#m688df5ec81" x="308.426645" y="180.204948" style="stroke: #000000"/>
    </g>
   </g>
   <g id="Path3DCollection_18">
    <g clip-path="url(#pf1a2984d0b)">
     <use xlink:href="#m688df5ec81" x="187.904128" y="261.390267" style="stroke: #000000"/>
    </g>
   </g>
   <g id="Path3DCollection_19">
    <g clip-path="url(#pf1a2984d0b)">
     <use xlink:href="#m688df5ec81" x="286.842429" y="200.685403" style="stroke: #000000"/>
    </g>
   </g>
   <g id="Path3DCollection_20">
    <g clip-path="url(#pf1a2984d0b)">
     <use xlink:href="#m688df5ec81" x="166.162135" y="281.977615" style="stroke: #000000"/>
    </g>
   </g>
   <g id="Path3DCollection_21">
    <g clip-path="url(#pf1a2984d0b)">
     <use xlink:href="#m688df5ec81" x="265.202434" y="221.218784" style="stroke: #000000"/>
    </g>
   </g>
   <g id="Path3DCollection_22">
    <g clip-path="url(#pf1a2984d0b)">
     <use xlink:href="#m688df5ec81" x="144.36395" y="302.618172" style="stroke: #000000"/>
    </g>
   </g>
   <g id="Path3DCollection_23">
    <g clip-path="url(#pf1a2984d0b)">
     <use xlink:href="#m688df5ec81" x="243.506443" y="241.805297" style="stroke: #000000"/>
    </g>
   </g>
   <g id="Path3DCollection_24">
    <g clip-path="url(#pf1a2984d0b)">
     <use xlink:href="#m688df5ec81" x="342.885213" y="180.847492" style="stroke: #000000"/>
    </g>
   </g>
   <g id="Path3DCollection_25">
    <g clip-path="url(#pf1a2984d0b)">
     <use xlink:href="#m688df5ec81" x="221.754239" y="262.445149" style="stroke: #000000"/>
    </g>
   </g>
   <g id="Path3DCollection_26">
    <g clip-path="url(#pf1a2984d0b)">
     <use xlink:href="#m688df5ec81" x="321.235952" y="201.432907" style="stroke: #000000"/>
    </g>
   </g>
   <g id="Path3DCollection_27">
    <g clip-path="url(#pf1a2984d0b)">
     <use xlink:href="#m688df5ec81" x="199.945603" y="283.138548" style="stroke: #000000"/>
    </g>
   </g>
   <g id="Path3DCollection_28">
    <g clip-path="url(#pf1a2984d0b)">
     <use xlink:href="#m688df5ec81" x="299.530458" y="222.071791" style="stroke: #000000"/>
    </g>
   </g>
   <g id="Path3DCollection_29">
    <g clip-path="url(#pf1a2984d0b)">
     <use xlink:href="#m688df5ec81" x="178.080315" y="303.885701" style="stroke: #000000"/>
    </g>
   </g>
   <g id="Path3DCollection_30">
    <g clip-path="url(#pf1a2984d0b)">
     <use xlink:href="#m688df5ec81" x="277.768514" y="242.764352" style="stroke: #000000"/>
    </g>
   </g>
   <g id="Path3DCollection_31">
    <g clip-path="url(#pf1a2984d0b)">
     <use xlink:href="#m688df5ec81" x="255.949897" y="263.5108" style="stroke: #000000"/>
    </g>
   </g>
   <g id="Path3DCollection_32">
    <defs>
     <path id="m204ad263e0" d="M 0 2.236068 
C 0.593012 2.236068 1.161816 2.000462 1.581139 1.581139 
C 2.000462 1.161816 2.236068 0.593012 2.236068 0 
C 2.236068 -0.593012 2.000462 -1.161816 1.581139 -1.581139 
C 1.161816 -2.000462 0.593012 -2.236068 0 -2.236068 
C -0.593012 -2.236068 -1.161816 -2.000462 -1.581139 -1.581139 
C -2.000462 -1.161816 -2.236068 -0.593012 -2.236068 0 
C -2.236068 0.593012 -2.000462 1.161816 -1.581139 1.581139 
C -1.161816 2.000462 -0.593012 2.236068 0 2.236068 
z
" style="stroke: #008080"/>
    </defs>
    <g clip-path="url(#pf1a2984d0b)">
     <use xlink:href="#m204ad263e0" x="155.950176" y="318.498317" style="fill: #008080; stroke: #008080"/>
    </g>
   </g>
   <g id="Path3DCollection_33">
    <g clip-path="url(#pf1a2984d0b)">
     <use xlink:href="#m688df5ec81" x="355.98099" y="202.188052" style="stroke: #000000"/>
    </g>
   </g>
   <g id="Path3DCollection_34">
    <g clip-path="url(#pf1a2984d0b)">
     <use xlink:href="#m688df5ec81" x="234.074387" y="284.311346" style="stroke: #000000"/>
    </g>
   </g>
   <g id="Path3DCollection_35">
    <g clip-path="url(#pf1a2984d0b)">
     <use xlink:href="#m688df5ec81" x="334.209787" y="222.933528" style="stroke: #000000"/>
    </g>
   </g>
   <g id="Path3DCollection_36">
    <g clip-path="url(#pf1a2984d0b)">
     <use xlink:href="#m688df5ec81" x="212.14176" y="305.166202" style="stroke: #000000"/>
    </g>
   </g>
   <g id="Path3DCollection_37">
    <g clip-path="url(#pf1a2984d0b)">
     <use xlink:href="#m688df5ec81" x="312.381671" y="243.733234" style="stroke: #000000"/>
    </g>
   </g>
   <g id="Path3DCollection_38">
    <g clip-path="url(#pf1a2984d0b)">
     <use xlink:href="#m204ad263e0" x="190.089364" y="323.413686" style="fill: #008080; stroke: #008080"/>
    </g>
   </g>
   <g id="Path3DCollection_39">
    <g clip-path="url(#pf1a2984d0b)">
     <use xlink:href="#m688df5ec81" x="290.49642" y="264.587385" style="stroke: #000000"/>
    </g>
   </g>
   <g id="Path3DCollection_40">
    <g clip-path="url(#pf1a2984d0b)">
     <use xlink:href="#m688df5ec81" x="268.553808" y="285.496194" style="stroke: #000000"/>
    </g>
   </g>
   <g id="Path3DCollection_41">
    <g clip-path="url(#pf1a2984d0b)">
     <use xlink:href="#m688df5ec81" x="369.24584" y="223.804128" style="stroke: #000000"/>
    </g>
   </g>
   <g id="Path3DCollection_42">
    <g clip-path="url(#pf1a2984d0b)">
     <use xlink:href="#m688df5ec81" x="246.55361" y="306.459877" style="stroke: #000000"/>
    </g>
   </g>
   <g id="Path3DCollection_43">
    <g clip-path="url(#pf1a2984d0b)">
     <use xlink:href="#m688df5ec81" x="347.351341" y="244.712096" style="stroke: #000000"/>
    </g>
   </g>
   <g id="Path3DCollection_44">
    <g clip-path="url(#pf1a2984d0b)">
     <use xlink:href="#m688df5ec81" x="224.495599" y="327.478648" style="stroke: #000000"/>
    </g>
   </g>
   <g id="Path3DCollection_45">
    <g clip-path="url(#pf1a2984d0b)">
     <use xlink:href="#m688df5ec81" x="325.399237" y="265.675074" style="stroke: #000000"/>
    </g>
   </g>
   <g id="Path3DCollection_46">
    <g clip-path="url(#pf1a2984d0b)">
     <use xlink:href="#m204ad263e0" x="167.594867" y="330.19317" style="fill: #008080; stroke: #008080"/>
    </g>
   </g>
   <g id="Path3DCollection_47">
    <g clip-path="url(#pf1a2984d0b)">
     <use xlink:href="#m688df5ec81" x="303.3893" y="286.693278" style="stroke: #000000"/>
    </g>
   </g>
   <g id="Path3DCollection_48">
    <g clip-path="url(#pf1a2984d0b)">
     <use xlink:href="#m688df5ec81" x="281.321301" y="307.766928" style="stroke: #000000"/>
    </g>
   </g>
   <g id="Path3DCollection_49">
    <g clip-path="url(#pf1a2984d0b)">
     <use xlink:href="#m688df5ec81" x="382.683058" y="245.701092" style="stroke: #000000"/>
    </g>
   </g>
   <g id="Path3DCollection_50">
    <g clip-path="url(#pf1a2984d0b)">
     <use xlink:href="#m688df5ec81" x="259.195011" y="328.896244" style="stroke: #000000"/>
    </g>
   </g>
   <g id="Path3DCollection_51">
    <g clip-path="url(#pf1a2984d0b)">
     <use xlink:href="#m204ad263e0" x="202.113528" y="335.204311" style="fill: #008080; stroke: #008080"/>
    </g>
   </g>
   <g id="Path3DCollection_52">
    <g clip-path="url(#pf1a2984d0b)">
     <use xlink:href="#m688df5ec81" x="360.663887" y="266.774038" style="stroke: #000000"/>
    </g>
   </g>
   <g id="Path3DCollection_53">
    <g clip-path="url(#pf1a2984d0b)">
     <use xlink:href="#m688df5ec81" x="338.586405" y="287.902789" style="stroke: #000000"/>
    </g>
   </g>
   <g id="Path3DCollection_54">
    <g clip-path="url(#pf1a2984d0b)">
     <use xlink:href="#m688df5ec81" x="316.450381" y="309.087566" style="stroke: #000000"/>
    </g>
   </g>
   <g id="Path3DCollection_55">
    <g clip-path="url(#pf1a2984d0b)">
     <use xlink:href="#m204ad263e0" x="236.916824" y="340.256773" style="fill: #008080; stroke: #008080"/>
    </g>
   </g>
   <g id="Path3DCollection_56">
    <g clip-path="url(#pf1a2984d0b)">
     <use xlink:href="#m688df5ec81" x="294.255581" y="330.328594" style="stroke: #000000"/>
    </g>
   </g>
   <g id="Path3DCollection_57">
    <g clip-path="url(#pf1a2984d0b)">
     <use xlink:href="#m204ad263e0" x="179.467089" y="342.116534" style="fill: #008080; stroke: #008080"/>
    </g>
   </g>
   <g id="Path3DCollection_58">
    <g clip-path="url(#pf1a2984d0b)">
     <use xlink:href="#m688df5ec81" x="396.296027" y="267.884455" style="stroke: #000000"/>
    </g>
   </g>
   <g id="Path3DCollection_59">
    <g clip-path="url(#pf1a2984d0b)">
     <use xlink:href="#m688df5ec81" x="374.150784" y="289.12492" style="stroke: #000000"/>
    </g>
   </g>
   <g id="Path3DCollection_60">
    <g clip-path="url(#pf1a2984d0b)">
     <use xlink:href="#m204ad263e0" x="272.008292" y="345.35107" style="fill: #008080; stroke: #008080"/>
    </g>
   </g>
   <g id="Path3DCollection_61">
    <g clip-path="url(#pf1a2984d0b)">
     <use xlink:href="#m688df5ec81" x="351.946513" y="310.422003" style="stroke: #000000"/>
    </g>
   </g>
   <g id="Path3DCollection_62">
    <g clip-path="url(#pf1a2984d0b)">
     <use xlink:href="#m204ad263e0" x="214.37361" y="347.226273" style="fill: #008080; stroke: #008080"/>
    </g>
   </g>
   <g id="Path3DCollection_63">
    <g clip-path="url(#pf1a2984d0b)">
     <use xlink:href="#m688df5ec81" x="329.682976" y="331.77593" style="stroke: #000000"/>
    </g>
   </g>
   <g id="Path3DCollection_64">
    <g clip-path="url(#pf1a2984d0b)">
     <use xlink:href="#m688df5ec81" x="410.088217" y="290.359871" style="stroke: #000000"/>
    </g>
   </g>
   <g id="Path3DCollection_65">
    <defs>
     <path id="ma1078f3b8a" d="M 0 2.236068 
C 0.593012 2.236068 1.161816 2.000462 1.581139 1.581139 
C 2.000462 1.161816 2.236068 0.593012 2.236068 0 
C 2.236068 -0.593012 2.000462 -1.161816 1.581139 -1.581139 
C 1.161816 -2.000462 0.593012 -2.236068 0 -2.236068 
C -0.593012 -2.236068 -1.161816 -2.000462 -1.581139 -1.581139 
C -2.000462 -1.161816 -2.236068 -0.593012 -2.236068 0 
C -2.236068 0.593012 -2.000462 1.161816 -1.581139 1.581139 
C -1.161816 2.000462 -0.593012 2.236068 0 2.236068 
z
" style="stroke: #f08080"/>
    </defs>
    <g clip-path="url(#pf1a2984d0b)">
     <use xlink:href="#ma1078f3b8a" x="307.412613" y="348.685809" style="fill: #f08080; stroke: #f08080"/>
    </g>
   </g>
   <g id="Path3DCollection_66">
    <g clip-path="url(#pf1a2984d0b)">
     <use xlink:href="#m204ad263e0" x="249.570802" y="352.378561" style="fill: #008080; stroke: #008080"/>
    </g>
   </g>
   <g id="Path3DCollection_67">
    <g clip-path="url(#pf1a2984d0b)">
     <use xlink:href="#m688df5ec81" x="387.815481" y="311.770456" style="stroke: #000000"/>
    </g>
   </g>
   <g id="Path3DCollection_68">
    <g clip-path="url(#pf1a2984d0b)">
     <use xlink:href="#m204ad263e0" x="191.573575" y="354.275172" style="fill: #008080; stroke: #008080"/>
    </g>
   </g>
   <g id="Path3DCollection_69">
    <g clip-path="url(#pf1a2984d0b)">
     <use xlink:href="#m688df5ec81" x="365.482985" y="333.238489" style="stroke: #000000"/>
    </g>
   </g>
   <g id="Path3DCollection_70">
    <g clip-path="url(#pf1a2984d0b)">
     <use xlink:href="#m204ad263e0" x="285.062308" y="357.573932" style="fill: #008080; stroke: #008080"/>
    </g>
   </g>
   <g id="Path3DCollection_71">
    <g clip-path="url(#pf1a2984d0b)">
     <use xlink:href="#ma1078f3b8a" x="343.192199" y="350.241498" style="fill: #f08080; stroke: #f08080"/>
    </g>
   </g>
   <g id="Path3DCollection_72">
    <g clip-path="url(#pf1a2984d0b)">
     <use xlink:href="#m204ad263e0" x="226.876624" y="359.486448" style="fill: #008080; stroke: #008080"/>
    </g>
   </g>
   <g id="Path3DCollection_73">
    <g clip-path="url(#pf1a2984d0b)">
     <use xlink:href="#ma1078f3b8a" x="320.880517" y="360.999865" style="fill: #f08080; stroke: #f08080"/>
    </g>
   </g>
   <g id="Path3DCollection_74">
    <g clip-path="url(#pf1a2984d0b)">
     <use xlink:href="#m204ad263e0" x="262.476569" y="364.74155" style="fill: #008080; stroke: #008080"/>
    </g>
   </g>
   <g id="Path3DCollection_75">
    <g clip-path="url(#pf1a2984d0b)">
     <use xlink:href="#m204ad263e0" x="203.921329" y="366.676117" style="fill: #008080; stroke: #008080"/>
    </g>
   </g>
   <g id="Path3DCollection_76">
    <g clip-path="url(#pf1a2984d0b)">
     <use xlink:href="#m204ad263e0" x="298.377172" y="370.041034" style="fill: #008080; stroke: #008080"/>
    </g>
   </g>
   <g id="Path3DCollection_77">
    <g clip-path="url(#pf1a2984d0b)">
     <use xlink:href="#m204ad263e0" x="239.629861" y="371.991986" style="fill: #008080; stroke: #008080"/>
    </g>
   </g>
   <g id="Path3DCollection_78">
    <g clip-path="url(#pf1a2984d0b)">
     <use xlink:href="#m204ad263e0" x="275.641718" y="377.353011" style="fill: #008080; stroke: #008080"/>
    </g>
   </g>
   <g id="Path3DCollection_79">
    <g clip-path="url(#pf1a2984d0b)">
     <use xlink:href="#m204ad263e0" x="216.517636" y="379.326685" style="fill: #008080; stroke: #008080"/>
    </g>
   </g>
   <g id="Path3DCollection_80">
    <g clip-path="url(#pf1a2984d0b)">
     <use xlink:href="#m204ad263e0" x="252.64091" y="384.750329" style="fill: #008080; stroke: #008080"/>
    </g>
   </g>
   <g id="Poly3DCollection_1">
    <path d="M 295.778756 159.244496 
L 317.188111 138.97212 
L 304.580602 118.42723 
L 283.289254 138.546527 
z
" clip-path="url(#pf1a2984d0b)" style="fill: #fde725; fill-opacity: 0.15"/>
    <path d="M 274.314494 179.568864 
L 295.778756 159.244496 
L 283.289254 138.546527 
L 261.943644 158.717099 
z
" clip-path="url(#pf1a2984d0b)" style="fill: #addc30; fill-opacity: 0.15"/>
    <path d="M 252.795114 199.945422 
L 274.314494 179.568864 
L 261.943644 158.717099 
L 240.543564 178.939142 
z
" clip-path="url(#pf1a2984d0b)" style="fill: #60ca60; fill-opacity: 0.15"/>
    <path d="M 231.220402 220.374374 
L 252.795114 199.945422 
L 240.543564 178.939142 
L 219.088805 199.212854 
z
" clip-path="url(#pf1a2984d0b)" style="fill: #2ab07f; fill-opacity: 0.15"/>
    <path d="M 209.590145 240.855921 
L 231.220402 220.374374 
L 219.088805 199.212854 
L 197.579158 219.538433 
z
" clip-path="url(#pf1a2984d0b)" style="fill: #20928c; fill-opacity: 0.15"/>
    <path d="M 308.426645 180.204948 
L 329.955297 159.777216 
L 317.188111 138.97212 
L 295.778756 159.244496 
z
" clip-path="url(#pf1a2984d0b)" style="fill: #c2df23; fill-opacity: 0.15"/>
    <path d="M 187.904128 261.390267 
L 209.590145 240.855921 
L 197.579158 219.538433 
L 176.014411 239.916078 
z
" clip-path="url(#pf1a2984d0b)" style="fill: #2b758e; fill-opacity: 0.15"/>
    <path d="M 286.842429 200.685403 
L 308.426645 180.204948 
L 295.778756 159.244496 
L 274.314494 179.568864 
z
" clip-path="url(#pf1a2984d0b)" style="fill: #73d056; fill-opacity: 0.15"/>
    <path d="M 166.162135 281.977615 
L 187.904128 261.390267 
L 176.014411 239.916078 
L 154.394353 260.34599 
z
" clip-path="url(#pf1a2984d0b)" style="fill: #39568c; fill-opacity: 0.15"/>
    <path d="M 265.202434 221.218784 
L 286.842429 200.685403 
L 274.314494 179.568864 
L 252.795114 199.945422 
z
" clip-path="url(#pf1a2984d0b)" style="fill: #35b779; fill-opacity: 0.15"/>
    <path d="M 144.36395 302.618172 
L 166.162135 281.977615 
L 154.394353 260.34599 
L 132.71877 280.82837 
z
" clip-path="url(#pf1a2984d0b)" style="fill: #46337f; fill-opacity: 0.15"/>
    <path d="M 243.506443 241.805297 
L 265.202434 221.218784 
L 252.795114 199.945422 
L 231.220402 220.374374 
z
" clip-path="url(#pf1a2984d0b)" style="fill: #1f9a8a; fill-opacity: 0.15"/>
    <path d="M 221.754239 262.445149 
L 243.506443 241.805297 
L 231.220402 220.374374 
L 209.590145 240.855921 
z
" clip-path="url(#pf1a2984d0b)" style="fill: #287d8e; fill-opacity: 0.15"/>
    <path d="M 321.235952 201.432907 
L 342.885213 180.847492 
L 329.955297 159.777216 
L 308.426645 180.204948 
z
" clip-path="url(#pf1a2984d0b)" style="fill: #86d549; fill-opacity: 0.15"/>
    <path d="M 199.945603 283.138548 
L 221.754239 262.445149 
L 209.590145 240.855921 
L 187.904128 261.390267 
z
" clip-path="url(#pf1a2984d0b)" style="fill: #355f8d; fill-opacity: 0.15"/>
    <path d="M 299.530458 222.071791 
L 321.235952 201.432907 
L 308.426645 180.204948 
L 286.842429 200.685403 
z
" clip-path="url(#pf1a2984d0b)" style="fill: #40bd72; fill-opacity: 0.15"/>
    <path d="M 178.080315 303.885701 
L 199.945603 283.138548 
L 187.904128 261.390267 
L 166.162135 281.977615 
z
" clip-path="url(#pf1a2984d0b)" style="fill: #443b84; fill-opacity: 0.15"/>
    <path d="M 277.768514 242.764352 
L 299.530458 222.071791 
L 286.842429 200.685403 
L 265.202434 221.218784 
z
" clip-path="url(#pf1a2984d0b)" style="fill: #1fa187; fill-opacity: 0.15"/>
    <path d="M 155.950176 318.498317 
L 178.080315 303.885701 
L 166.162135 281.977615 
L 144.36395 302.618172 
z
" clip-path="url(#pf1a2984d0b)" style="fill: #481a6c; fill-opacity: 0.15"/>
    <path d="M 255.949897 263.5108 
L 277.768514 242.764352 
L 265.202434 221.218784 
L 243.506443 241.805297 
z
" clip-path="url(#pf1a2984d0b)" style="fill: #25848e; fill-opacity: 0.15"/>
    <path d="M 234.074387 284.311346 
L 255.949897 263.5108 
L 243.506443 241.805297 
L 221.754239 262.445149 
z
" clip-path="url(#pf1a2984d0b)" style="fill: #31678e; fill-opacity: 0.15"/>
    <path d="M 334.209787 222.933528 
L 355.98099 202.188052 
L 342.885213 180.847492 
L 321.235952 201.432907 
z
" clip-path="url(#pf1a2984d0b)" style="fill: #50c46a; fill-opacity: 0.15"/>
    <path d="M 212.14176 305.166202 
L 234.074387 284.311346 
L 221.754239 262.445149 
L 199.945603 283.138548 
z
" clip-path="url(#pf1a2984d0b)" style="fill: #404588; fill-opacity: 0.15"/>
    <path d="M 312.381671 243.733234 
L 334.209787 222.933528 
L 321.235952 201.432907 
L 299.530458 222.071791 
z
" clip-path="url(#pf1a2984d0b)" style="fill: #23a983; fill-opacity: 0.15"/>
    <path d="M 190.089364 323.413686 
L 212.14176 305.166202 
L 199.945603 283.138548 
L 178.080315 303.885701 
z
" clip-path="url(#pf1a2984d0b)" style="fill: #482071; fill-opacity: 0.15"/>
    <path d="M 290.49642 264.587385 
L 312.381671 243.733234 
L 299.530458 222.071791 
L 277.768514 242.764352 
z
" clip-path="url(#pf1a2984d0b)" style="fill: #228c8d; fill-opacity: 0.15"/>
    <path d="M 268.553808 285.496194 
L 290.49642 264.587385 
L 277.768514 242.764352 
L 255.949897 263.5108 
z
" clip-path="url(#pf1a2984d0b)" style="fill: #2e6e8e; fill-opacity: 0.15"/>
    <path d="M 167.594867 330.19317 
L 190.089364 323.413686 
L 178.080315 303.885701 
L 155.950176 318.498317 
z
" clip-path="url(#pf1a2984d0b)" style="fill: #46075a; fill-opacity: 0.15"/>
    <path d="M 246.55361 306.459877 
L 268.553808 285.496194 
L 255.949897 263.5108 
L 234.074387 284.311346 
z
" clip-path="url(#pf1a2984d0b)" style="fill: #3d4e8a; fill-opacity: 0.15"/>
    <path d="M 347.351341 244.712096 
L 369.24584 223.804128 
L 355.98099 202.188052 
L 334.209787 222.933528 
z
" clip-path="url(#pf1a2984d0b)" style="fill: #2ab07f; fill-opacity: 0.15"/>
    <path d="M 224.495599 327.478648 
L 246.55361 306.459877 
L 234.074387 284.311346 
L 212.14176 305.166202 
z
" clip-path="url(#pf1a2984d0b)" style="fill: #482979; fill-opacity: 0.15"/>
    <path d="M 325.399237 265.675074 
L 347.351341 244.712096 
L 334.209787 222.933528 
L 312.381671 243.733234 
z
" clip-path="url(#pf1a2984d0b)" style="fill: #20928c; fill-opacity: 0.15"/>
    <path d="M 303.3893 286.693278 
L 325.399237 265.675074 
L 312.381671 243.733234 
L 290.49642 264.587385 
z
" clip-path="url(#pf1a2984d0b)" style="fill: #2b758e; fill-opacity: 0.15"/>
    <path d="M 202.113528 335.204311 
L 224.495599 327.478648 
L 212.14176 305.166202 
L 190.089364 323.413686 
z
" clip-path="url(#pf1a2984d0b)" style="fill: #460a5d; fill-opacity: 0.15"/>
    <path d="M 281.321301 307.766928 
L 303.3893 286.693278 
L 290.49642 264.587385 
L 268.553808 285.496194 
z
" clip-path="url(#pf1a2984d0b)" style="fill: #39568c; fill-opacity: 0.15"/>
    <path d="M 259.195011 328.896244 
L 281.321301 307.766928 
L 268.553808 285.496194 
L 246.55361 306.459877 
z
" clip-path="url(#pf1a2984d0b)" style="fill: #46337f; fill-opacity: 0.15"/>
    <path d="M 360.663887 266.774038 
L 382.683058 245.701092 
L 369.24584 223.804128 
L 347.351341 244.712096 
z
" clip-path="url(#pf1a2984d0b)" style="fill: #1f9a8a; fill-opacity: 0.15"/>
    <path d="M 179.467089 342.116534 
L 202.113528 335.204311 
L 190.089364 323.413686 
L 167.594867 330.19317 
z
" clip-path="url(#pf1a2984d0b)" style="fill: #440154; fill-opacity: 0.15"/>
    <path d="M 236.916824 340.256773 
L 259.195011 328.896244 
L 246.55361 306.459877 
L 224.495599 327.478648 
z
" clip-path="url(#pf1a2984d0b)" style="fill: #471164; fill-opacity: 0.15"/>
    <path d="M 338.586405 287.902789 
L 360.663887 266.774038 
L 347.351341 244.712096 
L 325.399237 265.675074 
z
" clip-path="url(#pf1a2984d0b)" style="fill: #287d8e; fill-opacity: 0.15"/>
    <path d="M 316.450381 309.087566 
L 338.586405 287.902789 
L 325.399237 265.675074 
L 303.3893 286.693278 
z
" clip-path="url(#pf1a2984d0b)" style="fill: #355f8d; fill-opacity: 0.15"/>
    <path d="M 294.255581 330.328594 
L 316.450381 309.087566 
L 303.3893 286.693278 
L 281.321301 307.766928 
z
" clip-path="url(#pf1a2984d0b)" style="fill: #443b84; fill-opacity: 0.15"/>
    <path d="M 214.37361 347.226273 
L 236.916824 340.256773 
L 224.495599 327.478648 
L 202.113528 335.204311 
z
" clip-path="url(#pf1a2984d0b)" style="fill: #440154; fill-opacity: 0.15"/>
    <path d="M 272.008292 345.35107 
L 294.255581 330.328594 
L 281.321301 307.766928 
L 259.195011 328.896244 
z
" clip-path="url(#pf1a2984d0b)" style="fill: #481a6c; fill-opacity: 0.15"/>
    <path d="M 374.150784 289.12492 
L 396.296027 267.884455 
L 382.683058 245.701092 
L 360.663887 266.774038 
z
" clip-path="url(#pf1a2984d0b)" style="fill: #25848e; fill-opacity: 0.15"/>
    <path d="M 351.946513 310.422003 
L 374.150784 289.12492 
L 360.663887 266.774038 
L 338.586405 287.902789 
z
" clip-path="url(#pf1a2984d0b)" style="fill: #31678e; fill-opacity: 0.15"/>
    <path d="M 329.682976 331.77593 
L 351.946513 310.422003 
L 338.586405 287.902789 
L 316.450381 309.087566 
z
" clip-path="url(#pf1a2984d0b)" style="fill: #404588; fill-opacity: 0.15"/>
    <path d="M 249.570802 352.378561 
L 272.008292 345.35107 
L 259.195011 328.896244 
L 236.916824 340.256773 
z
" clip-path="url(#pf1a2984d0b)" style="fill: #450457; fill-opacity: 0.15"/>
    <path d="M 191.573575 354.275172 
L 214.37361 347.226273 
L 202.113528 335.204311 
L 179.467089 342.116534 
z
" clip-path="url(#pf1a2984d0b)" style="fill: #440154; fill-opacity: 0.15"/>
    <path d="M 307.412613 348.685809 
L 329.682976 331.77593 
L 316.450381 309.087566 
L 294.255581 330.328594 
z
" clip-path="url(#pf1a2984d0b)" style="fill: #482173; fill-opacity: 0.15"/>
    <path d="M 387.815481 311.770456 
L 410.088217 290.359871 
L 396.296027 267.884455 
L 374.150784 289.12492 
z
" clip-path="url(#pf1a2984d0b)" style="fill: #2e6e8e; fill-opacity: 0.15"/>
    <path d="M 285.062308 357.573932 
L 307.412613 348.685809 
L 294.255581 330.328594 
L 272.008292 345.35107 
z
" clip-path="url(#pf1a2984d0b)" style="fill: #46085c; fill-opacity: 0.15"/>
    <path d="M 365.482985 333.238489 
L 387.815481 311.770456 
L 374.150784 289.12492 
L 351.946513 310.422003 
z
" clip-path="url(#pf1a2984d0b)" style="fill: #3d4e8a; fill-opacity: 0.15"/>
    <path d="M 226.876624 359.486448 
L 249.570802 352.378561 
L 236.916824 340.256773 
L 214.37361 347.226273 
z
" clip-path="url(#pf1a2984d0b)" style="fill: #440154; fill-opacity: 0.15"/>
    <path d="M 343.192199 350.241498 
L 365.482985 333.238489 
L 351.946513 310.422003 
L 329.682976 331.77593 
z
" clip-path="url(#pf1a2984d0b)" style="fill: #472c7a; fill-opacity: 0.15"/>
    <path d="M 262.476569 364.74155 
L 285.062308 357.573932 
L 272.008292 345.35107 
L 249.570802 352.378561 
z
" clip-path="url(#pf1a2984d0b)" style="fill: #440154; fill-opacity: 0.15"/>
    <path d="M 320.880517 360.999865 
L 343.192199 350.241498 
L 329.682976 331.77593 
L 307.412613 348.685809 
z
" clip-path="url(#pf1a2984d0b)" style="fill: #471164; fill-opacity: 0.15"/>
    <path d="M 203.921329 366.676117 
L 226.876624 359.486448 
L 214.37361 347.226273 
L 191.573575 354.275172 
z
" clip-path="url(#pf1a2984d0b)" style="fill: #440154; fill-opacity: 0.15"/>
    <path d="M 298.377172 370.041034 
L 320.880517 360.999865 
L 307.412613 348.685809 
L 285.062308 357.573932 
z
" clip-path="url(#pf1a2984d0b)" style="fill: #440256; fill-opacity: 0.15"/>
    <path d="M 239.629861 371.991986 
L 262.476569 364.74155 
L 249.570802 352.378561 
L 226.876624 359.486448 
z
" clip-path="url(#pf1a2984d0b)" style="fill: #440154; fill-opacity: 0.15"/>
    <path d="M 275.641718 377.353011 
L 298.377172 370.041034 
L 285.062308 357.573932 
L 262.476569 364.74155 
z
" clip-path="url(#pf1a2984d0b)" style="fill: #440154; fill-opacity: 0.15"/>
    <path d="M 216.517636 379.326685 
L 239.629861 371.991986 
L 226.876624 359.486448 
L 203.921329 366.676117 
z
" clip-path="url(#pf1a2984d0b)" style="fill: #440154; fill-opacity: 0.15"/>
    <path d="M 252.64091 384.750329 
L 275.641718 377.353011 
L 262.476569 364.74155 
L 239.629861 371.991986 
z
" clip-path="url(#pf1a2984d0b)" style="fill: #440154; fill-opacity: 0.15"/>
    <path d="M 229.370077 392.23449 
L 252.64091 384.750329 
L 239.629861 371.991986 
L 216.517636 379.326685 
z
" clip-path="url(#pf1a2984d0b)" style="fill: #440154; fill-opacity: 0.15"/>
   </g>
   <g id="Line3DCollection_4">
    <path d="M 229.370077 392.23449 
L 252.64091 384.750329 
L 275.641718 377.353011 
L 298.377172 370.041034 
L 320.880517 360.999865 
L 343.192199 350.241498 
L 365.482985 333.238489 
L 387.815481 311.770456 
L 410.088217 290.359871 
" clip-path="url(#pf1a2984d0b)" style="fill: none; stroke: #000000; stroke-opacity: 0.15; stroke-width: 1.5"/>
    <path d="M 216.517636 379.326685 
L 239.629861 371.991986 
L 262.476569 364.74155 
L 285.062308 357.573932 
L 307.412613 348.685809 
L 329.682976 331.77593 
L 351.946513 310.422003 
L 374.150784 289.12492 
L 396.296027 267.884455 
" clip-path="url(#pf1a2984d0b)" style="fill: none; stroke: #000000; stroke-opacity: 0.15; stroke-width: 1.5"/>
    <path d="M 203.921329 366.676117 
L 226.876624 359.486448 
L 249.570802 352.378561 
L 272.008292 345.35107 
L 294.255581 330.328594 
L 316.450381 309.087566 
L 338.586405 287.902789 
L 360.663887 266.774038 
L 382.683058 245.701092 
" clip-path="url(#pf1a2984d0b)" style="fill: none; stroke: #000000; stroke-opacity: 0.15; stroke-width: 1.5"/>
    <path d="M 191.573575 354.275172 
L 214.37361 347.226273 
L 236.916824 340.256773 
L 259.195011 328.896244 
L 281.321301 307.766928 
L 303.3893 286.693278 
L 325.399237 265.675074 
L 347.351341 244.712096 
L 369.24584 223.804128 
" clip-path="url(#pf1a2984d0b)" style="fill: none; stroke: #000000; stroke-opacity: 0.15; stroke-width: 1.5"/>
    <path d="M 179.467089 342.116534 
L 202.113528 335.204311 
L 224.495599 327.478648 
L 246.55361 306.459877 
L 268.553808 285.496194 
L 290.49642 264.587385 
L 312.381671 243.733234 
L 334.209787 222.933528 
L 355.98099 202.188052 
" clip-path="url(#pf1a2984d0b)" style="fill: none; stroke: #000000; stroke-opacity: 0.15; stroke-width: 1.5"/>
    <path d="M 167.594867 330.19317 
L 190.089364 323.413686 
L 212.14176 305.166202 
L 234.074387 284.311346 
L 255.949897 263.5108 
L 277.768514 242.764352 
L 299.530458 222.071791 
L 321.235952 201.432907 
L 342.885213 180.847492 
" clip-path="url(#pf1a2984d0b)" style="fill: none; stroke: #000000; stroke-opacity: 0.15; stroke-width: 1.5"/>
    <path d="M 155.950176 318.498317 
L 178.080315 303.885701 
L 199.945603 283.138548 
L 221.754239 262.445149 
L 243.506443 241.805297 
L 265.202434 221.218784 
L 286.842429 200.685403 
L 308.426645 180.204948 
L 329.955297 159.777216 
" clip-path="url(#pf1a2984d0b)" style="fill: none; stroke: #000000; stroke-opacity: 0.15; stroke-width: 1.5"/>
    <path d="M 144.36395 302.618172 
L 166.162135 281.977615 
L 187.904128 261.390267 
L 209.590145 240.855921 
L 231.220402 220.374374 
L 252.795114 199.945422 
L 274.314494 179.568864 
L 295.778756 159.244496 
L 317.188111 138.97212 
" clip-path="url(#pf1a2984d0b)" style="fill: none; stroke: #000000; stroke-opacity: 0.15; stroke-width: 1.5"/>
    <path d="M 132.71877 280.82837 
L 154.394353 260.34599 
L 176.014411 239.916078 
L 197.579158 219.538433 
L 219.088805 199.212854 
L 240.543564 178.939142 
L 261.943644 158.717099 
L 283.289254 138.546527 
L 304.580602 118.42723 
" clip-path="url(#pf1a2984d0b)" style="fill: none; stroke: #000000; stroke-opacity: 0.15; stroke-width: 1.5"/>
    <path d="M 229.370077 392.23449 
L 216.517636 379.326685 
L 203.921329 366.676117 
L 191.573575 354.275172 
L 179.467089 342.116534 
L 167.594867 330.19317 
L 155.950176 318.498317 
L 144.36395 302.618172 
L 132.71877 280.82837 
" clip-path="url(#pf1a2984d0b)" style="fill: none; stroke: #000000; stroke-opacity: 0.15; stroke-width: 1.5"/>
    <path d="M 252.64091 384.750329 
L 239.629861 371.991986 
L 226.876624 359.486448 
L 214.37361 347.226273 
L 202.113528 335.204311 
L 190.089364 323.413686 
L 178.080315 303.885701 
L 166.162135 281.977615 
L 154.394353 260.34599 
" clip-path="url(#pf1a2984d0b)" style="fill: none; stroke: #000000; stroke-opacity: 0.15; stroke-width: 1.5"/>
    <path d="M 275.641718 377.353011 
L 262.476569 364.74155 
L 249.570802 352.378561 
L 236.916824 340.256773 
L 224.495599 327.478648 
L 212.14176 305.166202 
L 199.945603 283.138548 
L 187.904128 261.390267 
L 176.014411 239.916078 
" clip-path="url(#pf1a2984d0b)" style="fill: none; stroke: #000000; stroke-opacity: 0.15; stroke-width: 1.5"/>
    <path d="M 298.377172 370.041034 
L 285.062308 357.573932 
L 272.008292 345.35107 
L 259.195011 328.896244 
L 246.55361 306.459877 
L 234.074387 284.311346 
L 221.754239 262.445149 
L 209.590145 240.855921 
L 197.579158 219.538433 
" clip-path="url(#pf1a2984d0b)" style="fill: none; stroke: #000000; stroke-opacity: 0.15; stroke-width: 1.5"/>
    <path d="M 320.880517 360.999865 
L 307.412613 348.685809 
L 294.255581 330.328594 
L 281.321301 307.766928 
L 268.553808 285.496194 
L 255.949897 263.5108 
L 243.506443 241.805297 
L 231.220402 220.374374 
L 219.088805 199.212854 
" clip-path="url(#pf1a2984d0b)" style="fill: none; stroke: #000000; stroke-opacity: 0.15; stroke-width: 1.5"/>
    <path d="M 343.192199 350.241498 
L 329.682976 331.77593 
L 316.450381 309.087566 
L 303.3893 286.693278 
L 290.49642 264.587385 
L 277.768514 242.764352 
L 265.202434 221.218784 
L 252.795114 199.945422 
L 240.543564 178.939142 
" clip-path="url(#pf1a2984d0b)" style="fill: none; stroke: #000000; stroke-opacity: 0.15; stroke-width: 1.5"/>
    <path d="M 365.482985 333.238489 
L 351.946513 310.422003 
L 338.586405 287.902789 
L 325.399237 265.675074 
L 312.381671 243.733234 
L 299.530458 222.071791 
L 286.842429 200.685403 
L 274.314494 179.568864 
L 261.943644 158.717099 
" clip-path="url(#pf1a2984d0b)" style="fill: none; stroke: #000000; stroke-opacity: 0.15; stroke-width: 1.5"/>
    <path d="M 387.815481 311.770456 
L 374.150784 289.12492 
L 360.663887 266.774038 
L 347.351341 244.712096 
L 334.209787 222.933528 
L 321.235952 201.432907 
L 308.426645 180.204948 
L 295.778756 159.244496 
L 283.289254 138.546527 
" clip-path="url(#pf1a2984d0b)" style="fill: none; stroke: #000000; stroke-opacity: 0.15; stroke-width: 1.5"/>
    <path d="M 410.088217 290.359871 
L 396.296027 267.884455 
L 382.683058 245.701092 
L 369.24584 223.804128 
L 355.98099 202.188052 
L 342.885213 180.847492 
L 329.955297 159.777216 
L 317.188111 138.97212 
L 304.580602 118.42723 
" clip-path="url(#pf1a2984d0b)" style="fill: none; stroke: #000000; stroke-opacity: 0.15; stroke-width: 1.5"/>
   </g>
   <g id="Path3DCollection_81">
    <g clip-path="url(#pf1a2984d0b)">
     <use xlink:href="#m204ad263e0" x="229.370077" y="392.23449" style="fill: #008080; stroke: #008080"/>
    </g>
   </g>
  </g>
  <g id="patch_6">
   <path d="M 491.890909 300.174545 
L 583.2 300.174545 
L 583.2 208.865455 
L 491.890909 208.865455 
z
" style="fill: #ffffff"/>
  </g>
  <g id="axes_2">
   <g id="legend_1">
    <g id="patch_7">
     <path d="M 469.300923 329.410625 
L 605.789986 329.410625 
Q 607.789986 329.410625 607.789986 327.410625 
L 607.789986 181.629375 
Q 607.789986 179.629375 605.789986 179.629375 
L 469.300923 179.629375 
Q 467.300923 179.629375 467.300923 181.629375 
L 467.300923 327.410625 
Q 467.300923 329.410625 469.300923 329.410625 
z
" style="fill: #ffffff; opacity: 0.8; stroke: #cccccc; stroke-linejoin: miter"/>
    </g>
    <g id="Path3DCollection_82">
     <g>
      <use xlink:href="#m204ad263e0" x="481.300923" y="188.602813" style="fill: #008080; stroke: #008080"/>
     </g>
    </g>
    <g id="text_30">
     <!-- Monatsk. K -->
     <g transform="translate(499.300923 191.227813) scale(0.1 -0.1)">
      <defs>
       <path id="DejaVuSans-6b" d="M 581 4863 
L 1159 4863 
L 1159 1991 
L 2875 3500 
L 3609 3500 
L 1753 1863 
L 3688 0 
L 2938 0 
L 1159 1709 
L 1159 0 
L 581 0 
L 581 4863 
z
" transform="scale(0.015625)"/>
       <path id="DejaVuSans-2e" d="M 684 794 
L 1344 794 
L 1344 0 
L 684 0 
L 684 794 
z
" transform="scale(0.015625)"/>
      </defs>
      <use xlink:href="#DejaVuSans-4d"/>
      <use xlink:href="#DejaVuSans-6f" x="86.279297"/>
      <use xlink:href="#DejaVuSans-6e" x="147.460938"/>
      <use xlink:href="#DejaVuSans-61" x="210.839844"/>
      <use xlink:href="#DejaVuSans-74" x="272.119141"/>
      <use xlink:href="#DejaVuSans-73" x="311.328125"/>
      <use xlink:href="#DejaVuSans-6b" x="363.427734"/>
      <use xlink:href="#DejaVuSans-2e" x="421.337891"/>
      <use xlink:href="#DejaVuSans-20" x="453.125"/>
      <use xlink:href="#DejaVuSans-4b" x="484.912109"/>
     </g>
    </g>
    <g id="Path3DCollection_83">
     <g>
      <use xlink:href="#ma1078f3b8a" x="481.300923" y="203.280938" style="fill: #f08080; stroke: #f08080"/>
     </g>
    </g>
    <g id="text_31">
     <!-- Monatsk. B; +4 K -->
     <g transform="translate(499.300923 205.905938) scale(0.1 -0.1)">
      <defs>
       <path id="DejaVuSans-3b" d="M 750 3309 
L 1409 3309 
L 1409 2516 
L 750 2516 
L 750 3309 
z
M 750 794 
L 1409 794 
L 1409 256 
L 897 -744 
L 494 -744 
L 750 256 
L 750 794 
z
" transform="scale(0.015625)"/>
       <path id="DejaVuSans-2b" d="M 2944 4013 
L 2944 2272 
L 4684 2272 
L 4684 1741 
L 2944 1741 
L 2944 0 
L 2419 0 
L 2419 1741 
L 678 1741 
L 678 2272 
L 2419 2272 
L 2419 4013 
L 2944 4013 
z
" transform="scale(0.015625)"/>
       <path id="DejaVuSans-20ac" d="M 3647 4306 
L 3647 3641 
Q 3363 3969 3098 4109 
Q 2834 4250 2516 4250 
Q 2025 4250 1709 3937 
Q 1394 3625 1294 3041 
L 3097 3041 
L 2925 2656 
L 1244 2656 
Q 1238 2581 1236 2509 
Q 1234 2438 1234 2328 
Q 1234 2228 1236 2156 
Q 1238 2084 1244 2009 
L 2638 2009 
L 2463 1625 
L 1294 1625 
Q 1394 1041 1709 725 
Q 2025 409 2516 409 
Q 2834 409 3098 550 
Q 3363 691 3647 1019 
L 3647 359 
Q 3369 134 3080 21 
Q 2791 -91 2491 -91 
Q 1750 -91 1267 362 
Q 784 816 659 1625 
L 0 1625 
L 172 2009 
L 606 2009 
Q 606 2081 604 2154 
Q 603 2228 603 2328 
Q 603 2438 604 2511 
Q 606 2584 606 2656 
L 0 2656 
L 172 3041 
L 659 3041 
Q 784 3844 1268 4297 
Q 1753 4750 2491 4750 
Q 2797 4750 3086 4639 
Q 3375 4528 3647 4306 
z
" transform="scale(0.015625)"/>
      </defs>
      <use xlink:href="#DejaVuSans-4d"/>
      <use xlink:href="#DejaVuSans-6f" x="86.279297"/>
      <use xlink:href="#DejaVuSans-6e" x="147.460938"/>
      <use xlink:href="#DejaVuSans-61" x="210.839844"/>
      <use xlink:href="#DejaVuSans-74" x="272.119141"/>
      <use xlink:href="#DejaVuSans-73" x="311.328125"/>
      <use xlink:href="#DejaVuSans-6b" x="363.427734"/>
      <use xlink:href="#DejaVuSans-2e" x="421.337891"/>
      <use xlink:href="#DejaVuSans-20" x="453.125"/>
      <use xlink:href="#DejaVuSans-42" x="484.912109"/>
      <use xlink:href="#DejaVuSans-3b" x="553.515625"/>
      <use xlink:href="#DejaVuSans-20" x="587.207031"/>
      <use xlink:href="#DejaVuSans-2b" x="618.994141"/>
      <use xlink:href="#DejaVuSans-34" x="702.783203"/>
      <use xlink:href="#DejaVuSans-20ac" x="766.40625"/>
      <use xlink:href="#DejaVuSans-20" x="830.029297"/>
      <use xlink:href="#DejaVuSans-4b" x="861.816406"/>
     </g>
    </g>
    <g id="Path3DCollection_84">
     <g>
      <use xlink:href="#m688df5ec81" x="481.300923" y="217.959063" style="stroke: #000000"/>
     </g>
    </g>
    <g id="text_32">
     <!-- Tagesk. B; Tagesk. K -->
     <g transform="translate(499.300923 220.584063) scale(0.1 -0.1)">
      <use xlink:href="#DejaVuSans-54"/>
      <use xlink:href="#DejaVuSans-61" x="44.583984"/>
      <use xlink:href="#DejaVuSans-67" x="105.863281"/>
      <use xlink:href="#DejaVuSans-65" x="169.339844"/>
      <use xlink:href="#DejaVuSans-73" x="230.863281"/>
      <use xlink:href="#DejaVuSans-6b" x="282.962891"/>
      <use xlink:href="#DejaVuSans-2e" x="340.873047"/>
      <use xlink:href="#DejaVuSans-20" x="372.660156"/>
      <use xlink:href="#DejaVuSans-42" x="404.447266"/>
      <use xlink:href="#DejaVuSans-3b" x="473.050781"/>
      <use xlink:href="#DejaVuSans-20" x="506.742188"/>
      <use xlink:href="#DejaVuSans-54" x="538.529297"/>
      <use xlink:href="#DejaVuSans-61" x="583.113281"/>
      <use xlink:href="#DejaVuSans-67" x="644.392578"/>
      <use xlink:href="#DejaVuSans-65" x="707.869141"/>
      <use xlink:href="#DejaVuSans-73" x="769.392578"/>
      <use xlink:href="#DejaVuSans-6b" x="821.492188"/>
      <use xlink:href="#DejaVuSans-2e" x="879.402344"/>
      <use xlink:href="#DejaVuSans-20" x="911.189453"/>
      <use xlink:href="#DejaVuSans-4b" x="942.976562"/>
     </g>
    </g>
    <g id="line2d_30">
     <defs>
      <path id="m7b46201cf1" d="M -2.5 2.5 
L 2.5 -2.5 
M -2.5 -2.5 
L 2.5 2.5 
" style="stroke: #808080"/>
     </defs>
     <g>
      <use xlink:href="#m7b46201cf1" x="481.300923" y="231.762188" style="fill: #808080; stroke: #808080"/>
     </g>
    </g>
    <g id="text_33">
     <!-- (10er B; +4 K) -->
     <g transform="translate(499.300923 235.262188) scale(0.1 -0.1)">
      <defs>
       <path id="DejaVuSans-28" d="M 1984 4856 
Q 1566 4138 1362 3434 
Q 1159 2731 1159 2009 
Q 1159 1288 1364 580 
Q 1569 -128 1984 -844 
L 1484 -844 
Q 1016 -109 783 600 
Q 550 1309 550 2009 
Q 550 2706 781 3412 
Q 1013 4119 1484 4856 
L 1984 4856 
z
" transform="scale(0.015625)"/>
       <path id="DejaVuSans-29" d="M 513 4856 
L 1013 4856 
Q 1481 4119 1714 3412 
Q 1947 2706 1947 2009 
Q 1947 1309 1714 600 
Q 1481 -109 1013 -844 
L 513 -844 
Q 928 -128 1133 580 
Q 1338 1288 1338 2009 
Q 1338 2731 1133 3434 
Q 928 4138 513 4856 
z
" transform="scale(0.015625)"/>
      </defs>
      <use xlink:href="#DejaVuSans-28"/>
      <use xlink:href="#DejaVuSans-31" x="39.013672"/>
      <use xlink:href="#DejaVuSans-30" x="102.636719"/>
      <use xlink:href="#DejaVuSans-65" x="166.259766"/>
      <use xlink:href="#DejaVuSans-72" x="227.783203"/>
      <use xlink:href="#DejaVuSans-20" x="268.896484"/>
      <use xlink:href="#DejaVuSans-42" x="300.683594"/>
      <use xlink:href="#DejaVuSans-3b" x="369.287109"/>
      <use xlink:href="#DejaVuSans-20" x="402.978516"/>
      <use xlink:href="#DejaVuSans-2b" x="434.765625"/>
      <use xlink:href="#DejaVuSans-34" x="518.554688"/>
      <use xlink:href="#DejaVuSans-20ac" x="582.177734"/>
      <use xlink:href="#DejaVuSans-20" x="645.800781"/>
      <use xlink:href="#DejaVuSans-4b" x="677.587891"/>
      <use xlink:href="#DejaVuSans-29" x="743.164062"/>
     </g>
    </g>
    <g id="line2d_31">
     <defs>
      <path id="m50f7b41aee" d="M -2.5 2.5 
L 2.5 -2.5 
M -2.5 -2.5 
L 2.5 2.5 
" style="stroke: #b22222"/>
     </defs>
     <g>
      <use xlink:href="#m50f7b41aee" x="481.300923" y="246.440313" style="fill: #b22222; stroke: #b22222"/>
     </g>
    </g>
    <g id="text_34">
     <!-- (Jahresk. B; +4 K) -->
     <g transform="translate(499.300923 249.940313) scale(0.1 -0.1)">
      <defs>
       <path id="DejaVuSans-4a" d="M 628 4666 
L 1259 4666 
L 1259 325 
Q 1259 -519 939 -900 
Q 619 -1281 -91 -1281 
L -331 -1281 
L -331 -750 
L -134 -750 
Q 284 -750 456 -515 
Q 628 -281 628 325 
L 628 4666 
z
" transform="scale(0.015625)"/>
       <path id="DejaVuSans-68" d="M 3513 2113 
L 3513 0 
L 2938 0 
L 2938 2094 
Q 2938 2591 2744 2837 
Q 2550 3084 2163 3084 
Q 1697 3084 1428 2787 
Q 1159 2491 1159 1978 
L 1159 0 
L 581 0 
L 581 4863 
L 1159 4863 
L 1159 2956 
Q 1366 3272 1645 3428 
Q 1925 3584 2291 3584 
Q 2894 3584 3203 3211 
Q 3513 2838 3513 2113 
z
" transform="scale(0.015625)"/>
      </defs>
      <use xlink:href="#DejaVuSans-28"/>
      <use xlink:href="#DejaVuSans-4a" x="39.013672"/>
      <use xlink:href="#DejaVuSans-61" x="68.505859"/>
      <use xlink:href="#DejaVuSans-68" x="129.785156"/>
      <use xlink:href="#DejaVuSans-72" x="193.164062"/>
      <use xlink:href="#DejaVuSans-65" x="232.027344"/>
      <use xlink:href="#DejaVuSans-73" x="293.550781"/>
      <use xlink:href="#DejaVuSans-6b" x="345.650391"/>
      <use xlink:href="#DejaVuSans-2e" x="403.560547"/>
      <use xlink:href="#DejaVuSans-20" x="435.347656"/>
      <use xlink:href="#DejaVuSans-42" x="467.134766"/>
      <use xlink:href="#DejaVuSans-3b" x="535.738281"/>
      <use xlink:href="#DejaVuSans-20" x="569.429688"/>
      <use xlink:href="#DejaVuSans-2b" x="601.216797"/>
      <use xlink:href="#DejaVuSans-34" x="685.005859"/>
      <use xlink:href="#DejaVuSans-20ac" x="748.628906"/>
      <use xlink:href="#DejaVuSans-20" x="812.251953"/>
      <use xlink:href="#DejaVuSans-4b" x="844.039062"/>
      <use xlink:href="#DejaVuSans-29" x="909.615234"/>
     </g>
    </g>
    <g id="line2d_32">
     <defs>
      <path id="md59e5673da" d="M -2.5 2.5 
L 2.5 -2.5 
M -2.5 -2.5 
L 2.5 2.5 
" style="stroke: #ffd700"/>
     </defs>
     <g>
      <use xlink:href="#md59e5673da" x="481.300923" y="261.118438" style="fill: #ffd700; stroke: #ffd700"/>
     </g>
    </g>
    <g id="text_35">
     <!-- (Jahresabo B; +4 K) -->
     <g transform="translate(499.300923 264.618438) scale(0.1 -0.1)">
      <defs>
       <path id="DejaVuSans-62" d="M 3116 1747 
Q 3116 2381 2855 2742 
Q 2594 3103 2138 3103 
Q 1681 3103 1420 2742 
Q 1159 2381 1159 1747 
Q 1159 1113 1420 752 
Q 1681 391 2138 391 
Q 2594 391 2855 752 
Q 3116 1113 3116 1747 
z
M 1159 2969 
Q 1341 3281 1617 3432 
Q 1894 3584 2278 3584 
Q 2916 3584 3314 3078 
Q 3713 2572 3713 1747 
Q 3713 922 3314 415 
Q 2916 -91 2278 -91 
Q 1894 -91 1617 61 
Q 1341 213 1159 525 
L 1159 0 
L 581 0 
L 581 4863 
L 1159 4863 
L 1159 2969 
z
" transform="scale(0.015625)"/>
      </defs>
      <use xlink:href="#DejaVuSans-28"/>
      <use xlink:href="#DejaVuSans-4a" x="39.013672"/>
      <use xlink:href="#DejaVuSans-61" x="68.505859"/>
      <use xlink:href="#DejaVuSans-68" x="129.785156"/>
      <use xlink:href="#DejaVuSans-72" x="193.164062"/>
      <use xlink:href="#DejaVuSans-65" x="232.027344"/>
      <use xlink:href="#DejaVuSans-73" x="293.550781"/>
      <use xlink:href="#DejaVuSans-61" x="345.650391"/>
      <use xlink:href="#DejaVuSans-62" x="406.929688"/>
      <use xlink:href="#DejaVuSans-6f" x="470.40625"/>
      <use xlink:href="#DejaVuSans-20" x="531.587891"/>
      <use xlink:href="#DejaVuSans-42" x="563.375"/>
      <use xlink:href="#DejaVuSans-3b" x="631.978516"/>
      <use xlink:href="#DejaVuSans-20" x="665.669922"/>
      <use xlink:href="#DejaVuSans-2b" x="697.457031"/>
      <use xlink:href="#DejaVuSans-34" x="781.246094"/>
      <use xlink:href="#DejaVuSans-20ac" x="844.869141"/>
      <use xlink:href="#DejaVuSans-20" x="908.492188"/>
      <use xlink:href="#DejaVuSans-4b" x="940.279297"/>
      <use xlink:href="#DejaVuSans-29" x="1005.855469"/>
     </g>
    </g>
    <g id="line2d_33">
     <defs>
      <path id="m03cb5bfc86" d="M -2.5 2.5 
L 2.5 -2.5 
M -2.5 -2.5 
L 2.5 2.5 
" style="stroke: #98fb98"/>
     </defs>
     <g>
      <use xlink:href="#m03cb5bfc86" x="481.300923" y="275.796563" style="fill: #98fb98; stroke: #98fb98"/>
     </g>
    </g>
    <g id="text_36">
     <!-- (Tagesk. B; 10er K) -->
     <g transform="translate(499.300923 279.296563) scale(0.1 -0.1)">
      <use xlink:href="#DejaVuSans-28"/>
      <use xlink:href="#DejaVuSans-54" x="39.013672"/>
      <use xlink:href="#DejaVuSans-61" x="83.597656"/>
      <use xlink:href="#DejaVuSans-67" x="144.876953"/>
      <use xlink:href="#DejaVuSans-65" x="208.353516"/>
      <use xlink:href="#DejaVuSans-73" x="269.876953"/>
      <use xlink:href="#DejaVuSans-6b" x="321.976562"/>
      <use xlink:href="#DejaVuSans-2e" x="379.886719"/>
      <use xlink:href="#DejaVuSans-20" x="411.673828"/>
      <use xlink:href="#DejaVuSans-42" x="443.460938"/>
      <use xlink:href="#DejaVuSans-3b" x="512.064453"/>
      <use xlink:href="#DejaVuSans-20" x="545.755859"/>
      <use xlink:href="#DejaVuSans-31" x="577.542969"/>
      <use xlink:href="#DejaVuSans-30" x="641.166016"/>
      <use xlink:href="#DejaVuSans-65" x="704.789062"/>
      <use xlink:href="#DejaVuSans-72" x="766.3125"/>
      <use xlink:href="#DejaVuSans-20" x="807.425781"/>
      <use xlink:href="#DejaVuSans-4b" x="839.212891"/>
      <use xlink:href="#DejaVuSans-29" x="904.789062"/>
     </g>
    </g>
    <g id="line2d_34">
     <defs>
      <path id="med2ac00e85" d="M -2.5 2.5 
L 2.5 -2.5 
M -2.5 -2.5 
L 2.5 2.5 
" style="stroke: #006400"/>
     </defs>
     <g>
      <use xlink:href="#med2ac00e85" x="481.300923" y="290.474688" style="fill: #006400; stroke: #006400"/>
     </g>
    </g>
    <g id="text_37">
     <!-- (10er B; 10er K) -->
     <g transform="translate(499.300923 293.974688) scale(0.1 -0.1)">
      <use xlink:href="#DejaVuSans-28"/>
      <use xlink:href="#DejaVuSans-31" x="39.013672"/>
      <use xlink:href="#DejaVuSans-30" x="102.636719"/>
      <use xlink:href="#DejaVuSans-65" x="166.259766"/>
      <use xlink:href="#DejaVuSans-72" x="227.783203"/>
      <use xlink:href="#DejaVuSans-20" x="268.896484"/>
      <use xlink:href="#DejaVuSans-42" x="300.683594"/>
      <use xlink:href="#DejaVuSans-3b" x="369.287109"/>
      <use xlink:href="#DejaVuSans-20" x="402.978516"/>
      <use xlink:href="#DejaVuSans-31" x="434.765625"/>
      <use xlink:href="#DejaVuSans-30" x="498.388672"/>
      <use xlink:href="#DejaVuSans-65" x="562.011719"/>
      <use xlink:href="#DejaVuSans-72" x="623.535156"/>
      <use xlink:href="#DejaVuSans-20" x="664.648438"/>
      <use xlink:href="#DejaVuSans-4b" x="696.435547"/>
      <use xlink:href="#DejaVuSans-29" x="762.011719"/>
     </g>
    </g>
    <g id="line2d_35">
     <defs>
      <path id="mb5a652b606" d="M -2.5 2.5 
L 2.5 -2.5 
M -2.5 -2.5 
L 2.5 2.5 
" style="stroke: #4169e1"/>
     </defs>
     <g>
      <use xlink:href="#mb5a652b606" x="481.300923" y="305.152813" style="fill: #4169e1; stroke: #4169e1"/>
     </g>
    </g>
    <g id="text_38">
     <!-- (Jahresk. K) -->
     <g transform="translate(499.300923 308.652813) scale(0.1 -0.1)">
      <use xlink:href="#DejaVuSans-28"/>
      <use xlink:href="#DejaVuSans-4a" x="39.013672"/>
      <use xlink:href="#DejaVuSans-61" x="68.505859"/>
      <use xlink:href="#DejaVuSans-68" x="129.785156"/>
      <use xlink:href="#DejaVuSans-72" x="193.164062"/>
      <use xlink:href="#DejaVuSans-65" x="232.027344"/>
      <use xlink:href="#DejaVuSans-73" x="293.550781"/>
      <use xlink:href="#DejaVuSans-6b" x="345.650391"/>
      <use xlink:href="#DejaVuSans-2e" x="403.560547"/>
      <use xlink:href="#DejaVuSans-20" x="435.347656"/>
      <use xlink:href="#DejaVuSans-4b" x="467.134766"/>
      <use xlink:href="#DejaVuSans-29" x="532.710938"/>
     </g>
    </g>
    <g id="line2d_36">
     <defs>
      <path id="mb92f9aab9e" d="M -2.5 2.5 
L 2.5 -2.5 
M -2.5 -2.5 
L 2.5 2.5 
" style="stroke: #ff00ff"/>
     </defs>
     <g>
      <use xlink:href="#mb92f9aab9e" x="481.300923" y="319.830938" style="fill: #ff00ff; stroke: #ff00ff"/>
     </g>
    </g>
    <g id="text_39">
     <!-- (Jahresabo K.) -->
     <g transform="translate(499.300923 323.330938) scale(0.1 -0.1)">
      <use xlink:href="#DejaVuSans-28"/>
      <use xlink:href="#DejaVuSans-4a" x="39.013672"/>
      <use xlink:href="#DejaVuSans-61" x="68.505859"/>
      <use xlink:href="#DejaVuSans-68" x="129.785156"/>
      <use xlink:href="#DejaVuSans-72" x="193.164062"/>
      <use xlink:href="#DejaVuSans-65" x="232.027344"/>
      <use xlink:href="#DejaVuSans-73" x="293.550781"/>
      <use xlink:href="#DejaVuSans-61" x="345.650391"/>
      <use xlink:href="#DejaVuSans-62" x="406.929688"/>
      <use xlink:href="#DejaVuSans-6f" x="470.40625"/>
      <use xlink:href="#DejaVuSans-20" x="531.587891"/>
      <use xlink:href="#DejaVuSans-4b" x="563.375"/>
      <use xlink:href="#DejaVuSans-2e" x="628.951172"/>
      <use xlink:href="#DejaVuSans-29" x="660.738281"/>
     </g>
    </g>
   </g>
  </g>
 </g>
 <defs>
  <clipPath id="pf1a2984d0b">
   <rect x="81" y="71.901818" width="365.236364" height="365.236364"/>
  </clipPath>
 </defs>
</svg>
