<?xml version="1.0" encoding="utf-8" standalone="no"?>
<!DOCTYPE svg PUBLIC "-//W3C//DTD SVG 1.1//EN"
  "http://www.w3.org/Graphics/SVG/1.1/DTD/svg11.dtd">
<svg xmlns:xlink="http://www.w3.org/1999/xlink" width="576pt" height="432pt" viewBox="0 0 576 432" xmlns="http://www.w3.org/2000/svg" version="1.1">
 <metadata>
  <rdf:RDF xmlns:dc="http://purl.org/dc/elements/1.1/" xmlns:cc="http://creativecommons.org/ns#" xmlns:rdf="http://www.w3.org/1999/02/22-rdf-syntax-ns#">
   <cc:Work>
    <dc:type rdf:resource="http://purl.org/dc/dcmitype/StillImage"/>
    <dc:date>2024-10-25T17:18:20.090334</dc:date>
    <dc:format>image/svg+xml</dc:format>
    <dc:creator>
     <cc:Agent>
      <dc:title>Matplotlib v3.9.2, https://matplotlib.org/</dc:title>
     </cc:Agent>
    </dc:creator>
   </cc:Work>
  </rdf:RDF>
 </metadata>
 <defs>
  <style type="text/css">*{stroke-linejoin: round; stroke-linecap: butt}</style>
 </defs>
 <g id="figure_1">
  <g id="patch_1">
   <path d="M 0 432 
L 576 432 
L 576 0 
L 0 0 
z
" style="fill: #ffffff"/>
  </g>
  <g id="patch_2">
   <path d="M 72 380.487273 
L 396.654545 380.487273 
L 396.654545 55.832727 
L 72 55.832727 
z
" style="fill: #ffffff"/>
  </g>
  <g id="pane3d_1">
   <g id="patch_3">
    <path d="M 380.915336 300.437866 
L 273.703802 210.571033 
L 275.194145 80.966994 
L 387.536303 162.949184 
" style="fill: #f2f2f2; opacity: 0.5; stroke: #f2f2f2; stroke-linejoin: miter"/>
   </g>
  </g>
  <g id="pane3d_2">
   <g id="patch_4">
    <path d="M 101.667544 260.575181 
L 273.703802 210.571033 
L 275.194145 80.966994 
L 95.528176 126.50708 
" style="fill: #e6e6e6; opacity: 0.5; stroke: #e6e6e6; stroke-linejoin: miter"/>
   </g>
  </g>
  <g id="pane3d_3">
   <g id="patch_5">
    <path d="M 198.548499 359.998875 
L 380.915336 300.437866 
L 273.703802 210.571033 
L 101.667544 260.575181 
" style="fill: #ececec; opacity: 0.5; stroke: #ececec; stroke-linejoin: miter"/>
   </g>
  </g>
  <g id="grid3d_1">
   <g id="Line3DCollection_1">
    <path d="M 210.74011 356.017094 
L 113.121241 257.246043 
L 107.513431 123.469167 
" style="fill: none; stroke: #b0b0b0; stroke-width: 0.8"/>
    <path d="M 231.446332 349.254442 
L 132.589663 251.587342 
L 127.877632 118.307436 
" style="fill: none; stroke: #b0b0b0; stroke-width: 0.8"/>
    <path d="M 251.91158 342.570492 
L 151.850678 245.988925 
L 148.015303 113.203123 
" style="fill: none; stroke: #b0b0b0; stroke-width: 0.8"/>
    <path d="M 272.140037 335.963878 
L 170.907583 240.449835 
L 167.930205 108.155276 
" style="fill: none; stroke: #b0b0b0; stroke-width: 0.8"/>
    <path d="M 292.135788 329.433266 
L 189.763605 234.969134 
L 187.626012 103.162963 
" style="fill: none; stroke: #b0b0b0; stroke-width: 0.8"/>
    <path d="M 311.902827 322.977351 
L 208.421905 229.545903 
L 207.106321 98.225273 
" style="fill: none; stroke: #b0b0b0; stroke-width: 0.8"/>
    <path d="M 331.445054 316.59486 
L 226.885575 224.179243 
L 226.374649 93.341313 
" style="fill: none; stroke: #b0b0b0; stroke-width: 0.8"/>
    <path d="M 350.766283 310.284547 
L 245.157646 218.868273 
L 245.434438 88.510212 
" style="fill: none; stroke: #b0b0b0; stroke-width: 0.8"/>
    <path d="M 369.870243 304.045193 
L 263.241083 213.612132 
L 264.289055 83.731116 
" style="fill: none; stroke: #b0b0b0; stroke-width: 0.8"/>
   </g>
  </g>
  <g id="grid3d_2">
   <g id="Line3DCollection_2">
    <path d="M 379.767565 157.279913 
L 373.527555 294.245282 
L 191.845087 353.119524 
" style="fill: none; stroke: #b0b0b0; stroke-width: 0.8"/>
    <path d="M 366.660548 147.715009 
L 361.054486 283.790109 
L 180.536733 341.514371 
" style="fill: none; stroke: #b0b0b0; stroke-width: 0.8"/>
    <path d="M 353.813022 138.33947 
L 348.81764 273.532942 
L 169.453842 330.140599 
" style="fill: none; stroke: #b0b0b0; stroke-width: 0.8"/>
    <path d="M 341.217356 129.147726 
L 336.810369 263.468209 
L 158.589739 318.991356 
" style="fill: none; stroke: #b0b0b0; stroke-width: 0.8"/>
    <path d="M 328.866216 120.134427 
L 325.026272 253.590545 
L 147.938007 308.060059 
" style="fill: none; stroke: #b0b0b0; stroke-width: 0.8"/>
    <path d="M 316.752549 111.294425 
L 313.459184 243.894782 
L 137.49248 297.340379 
" style="fill: none; stroke: #b0b0b0; stroke-width: 0.8"/>
    <path d="M 304.869572 102.622769 
L 302.103165 234.375942 
L 127.247227 286.826229 
" style="fill: none; stroke: #b0b0b0; stroke-width: 0.8"/>
    <path d="M 293.210758 94.114698 
L 290.952491 225.029226 
L 117.196544 276.511755 
" style="fill: none; stroke: #b0b0b0; stroke-width: 0.8"/>
    <path d="M 281.769822 85.765624 
L 280.001642 215.850007 
L 107.334939 266.391323 
" style="fill: none; stroke: #b0b0b0; stroke-width: 0.8"/>
   </g>
  </g>
  <g id="grid3d_3">
   <g id="Line3DCollection_3">
    <path d="M 101.292585 252.387041 
L 273.795004 202.639829 
L 381.319068 292.0541 
" style="fill: none; stroke: #b0b0b0; stroke-width: 0.8"/>
    <path d="M 100.504811 235.18406 
L 273.986541 185.983328 
L 382.167566 274.434493 
" style="fill: none; stroke: #b0b0b0; stroke-width: 0.8"/>
    <path d="M 99.707952 217.782709 
L 274.18018 169.143943 
L 383.026221 256.603958 
" style="fill: none; stroke: #b0b0b0; stroke-width: 0.8"/>
    <path d="M 98.901852 200.179537 
L 274.375958 152.118644 
L 383.895218 238.558684 
" style="fill: none; stroke: #b0b0b0; stroke-width: 0.8"/>
    <path d="M 98.086348 182.371012 
L 274.573908 134.904337 
L 384.774743 220.294769 
" style="fill: none; stroke: #b0b0b0; stroke-width: 0.8"/>
    <path d="M 97.261274 164.35352 
L 274.774069 117.497855 
L 385.66499 201.808214 
" style="fill: none; stroke: #b0b0b0; stroke-width: 0.8"/>
    <path d="M 96.426463 146.12336 
L 274.976477 99.895962 
L 386.566156 183.094923 
" style="fill: none; stroke: #b0b0b0; stroke-width: 0.8"/>
    <path d="M 95.581739 127.676747 
L 275.18117 82.095351 
L 387.478442 164.1507 
" style="fill: none; stroke: #b0b0b0; stroke-width: 0.8"/>
   </g>
  </g>
  <g id="axis3d_1">
   <g id="line2d_1">
    <path d="M 380.915336 300.437866 
L 198.548499 359.998875 
" style="fill: none; stroke: #000000; stroke-width: 0.8; stroke-linecap: square"/>
   </g>
   <g id="xtick_1">
    <g id="line2d_2">
     <path d="M 209.886798 355.153711 
L 212.450569 357.747741 
" style="fill: none; stroke: #000000; stroke-width: 0.8; stroke-linecap: square"/>
    </g>
    <g id="text_1">
     <!-- 0 -->
     <g transform="translate(210.11774 369.380148) scale(0.1 -0.1)">
      <defs>
       <path id="DejaVuSans-30" d="M 2034 4250 
Q 1547 4250 1301 3770 
Q 1056 3291 1056 2328 
Q 1056 1369 1301 889 
Q 1547 409 2034 409 
Q 2525 409 2770 889 
Q 3016 1369 3016 2328 
Q 3016 3291 2770 3770 
Q 2525 4250 2034 4250 
z
M 2034 4750 
Q 2819 4750 3233 4129 
Q 3647 3509 3647 2328 
Q 3647 1150 3233 529 
Q 2819 -91 2034 -91 
Q 1250 -91 836 529 
Q 422 1150 422 2328 
Q 422 3509 836 4129 
Q 1250 4750 2034 4750 
z
" transform="scale(0.015625)"/>
      </defs>
      <use xlink:href="#DejaVuSans-30"/>
     </g>
    </g>
   </g>
   <g id="xtick_2">
    <g id="line2d_3">
     <path d="M 230.582629 348.401132 
L 233.177597 350.964875 
" style="fill: none; stroke: #000000; stroke-width: 0.8; stroke-linecap: square"/>
    </g>
    <g id="text_2">
     <!-- 1 -->
     <g transform="translate(230.831752 362.576278) scale(0.1 -0.1)">
      <defs>
       <path id="DejaVuSans-31" d="M 794 531 
L 1825 531 
L 1825 4091 
L 703 3866 
L 703 4441 
L 1819 4666 
L 2450 4666 
L 2450 531 
L 3481 531 
L 3481 0 
L 794 0 
L 794 531 
z
" transform="scale(0.015625)"/>
      </defs>
      <use xlink:href="#DejaVuSans-31"/>
     </g>
    </g>
   </g>
   <g id="xtick_3">
    <g id="line2d_4">
     <path d="M 251.037784 341.72708 
L 253.663053 344.261063 
" style="fill: none; stroke: #000000; stroke-width: 0.8; stroke-linecap: square"/>
    </g>
    <g id="text_3">
     <!-- 2 -->
     <g transform="translate(251.304437 355.851676) scale(0.1 -0.1)">
      <defs>
       <path id="DejaVuSans-32" d="M 1228 531 
L 3431 531 
L 3431 0 
L 469 0 
L 469 531 
Q 828 903 1448 1529 
Q 2069 2156 2228 2338 
Q 2531 2678 2651 2914 
Q 2772 3150 2772 3378 
Q 2772 3750 2511 3984 
Q 2250 4219 1831 4219 
Q 1534 4219 1204 4116 
Q 875 4013 500 3803 
L 500 4441 
Q 881 4594 1212 4672 
Q 1544 4750 1819 4750 
Q 2544 4750 2975 4387 
Q 3406 4025 3406 3419 
Q 3406 3131 3298 2873 
Q 3191 2616 2906 2266 
Q 2828 2175 2409 1742 
Q 1991 1309 1228 531 
z
" transform="scale(0.015625)"/>
      </defs>
      <use xlink:href="#DejaVuSans-32"/>
     </g>
    </g>
   </g>
   <g id="xtick_4">
    <g id="line2d_5">
     <path d="M 271.256439 335.130193 
L 273.911134 337.63493 
" style="fill: none; stroke: #000000; stroke-width: 0.8; stroke-linecap: square"/>
    </g>
    <g id="text_4">
     <!-- 3 -->
     <g transform="translate(271.539987 349.204965) scale(0.1 -0.1)">
      <defs>
       <path id="DejaVuSans-33" d="M 2597 2516 
Q 3050 2419 3304 2112 
Q 3559 1806 3559 1356 
Q 3559 666 3084 287 
Q 2609 -91 1734 -91 
Q 1441 -91 1130 -33 
Q 819 25 488 141 
L 488 750 
Q 750 597 1062 519 
Q 1375 441 1716 441 
Q 2309 441 2620 675 
Q 2931 909 2931 1356 
Q 2931 1769 2642 2001 
Q 2353 2234 1838 2234 
L 1294 2234 
L 1294 2753 
L 1863 2753 
Q 2328 2753 2575 2939 
Q 2822 3125 2822 3475 
Q 2822 3834 2567 4026 
Q 2313 4219 1838 4219 
Q 1578 4219 1281 4162 
Q 984 4106 628 3988 
L 628 4550 
Q 988 4650 1302 4700 
Q 1616 4750 1894 4750 
Q 2613 4750 3031 4423 
Q 3450 4097 3450 3541 
Q 3450 3153 3228 2886 
Q 3006 2619 2597 2516 
z
" transform="scale(0.015625)"/>
      </defs>
      <use xlink:href="#DejaVuSans-33"/>
     </g>
    </g>
   </g>
   <g id="xtick_5">
    <g id="line2d_6">
     <path d="M 291.242671 328.60914 
L 293.925944 331.085136 
" style="fill: none; stroke: #000000; stroke-width: 0.8; stroke-linecap: square"/>
    </g>
    <g id="text_5">
     <!-- 4 -->
     <g transform="translate(291.542497 342.634799) scale(0.1 -0.1)">
      <defs>
       <path id="DejaVuSans-34" d="M 2419 4116 
L 825 1625 
L 2419 1625 
L 2419 4116 
z
M 2253 4666 
L 3047 4666 
L 3047 1625 
L 3713 1625 
L 3713 1100 
L 3047 1100 
L 3047 0 
L 2419 0 
L 2419 1100 
L 313 1100 
L 313 1709 
L 2253 4666 
z
" transform="scale(0.015625)"/>
      </defs>
      <use xlink:href="#DejaVuSans-34"/>
     </g>
    </g>
   </g>
   <g id="xtick_6">
    <g id="line2d_7">
     <path d="M 311.000465 322.162622 
L 313.711489 324.610367 
" style="fill: none; stroke: #000000; stroke-width: 0.8; stroke-linecap: square"/>
    </g>
    <g id="text_6">
     <!-- 5 -->
     <g transform="translate(311.315972 336.139865) scale(0.1 -0.1)">
      <defs>
       <path id="DejaVuSans-35" d="M 691 4666 
L 3169 4666 
L 3169 4134 
L 1269 4134 
L 1269 2991 
Q 1406 3038 1543 3061 
Q 1681 3084 1819 3084 
Q 2600 3084 3056 2656 
Q 3513 2228 3513 1497 
Q 3513 744 3044 326 
Q 2575 -91 1722 -91 
Q 1428 -91 1123 -41 
Q 819 9 494 109 
L 494 744 
Q 775 591 1075 516 
Q 1375 441 1709 441 
Q 2250 441 2565 725 
Q 2881 1009 2881 1497 
Q 2881 1984 2565 2268 
Q 2250 2553 1709 2553 
Q 1456 2553 1204 2497 
Q 953 2441 691 2322 
L 691 4666 
z
" transform="scale(0.015625)"/>
      </defs>
      <use xlink:href="#DejaVuSans-35"/>
     </g>
    </g>
   </g>
   <g id="xtick_7">
    <g id="line2d_8">
     <path d="M 330.533715 315.789367 
L 333.271688 318.209343 
" style="fill: none; stroke: #000000; stroke-width: 0.8; stroke-linecap: square"/>
    </g>
    <g id="text_7">
     <!-- 6 -->
     <g transform="translate(330.864321 329.718876) scale(0.1 -0.1)">
      <defs>
       <path id="DejaVuSans-36" d="M 2113 2584 
Q 1688 2584 1439 2293 
Q 1191 2003 1191 1497 
Q 1191 994 1439 701 
Q 1688 409 2113 409 
Q 2538 409 2786 701 
Q 3034 994 3034 1497 
Q 3034 2003 2786 2293 
Q 2538 2584 2113 2584 
z
M 3366 4563 
L 3366 3988 
Q 3128 4100 2886 4159 
Q 2644 4219 2406 4219 
Q 1781 4219 1451 3797 
Q 1122 3375 1075 2522 
Q 1259 2794 1537 2939 
Q 1816 3084 2150 3084 
Q 2853 3084 3261 2657 
Q 3669 2231 3669 1497 
Q 3669 778 3244 343 
Q 2819 -91 2113 -91 
Q 1303 -91 875 529 
Q 447 1150 447 2328 
Q 447 3434 972 4092 
Q 1497 4750 2381 4750 
Q 2619 4750 2861 4703 
Q 3103 4656 3366 4563 
z
" transform="scale(0.015625)"/>
      </defs>
      <use xlink:href="#DejaVuSans-36"/>
     </g>
    </g>
   </g>
   <g id="xtick_8">
    <g id="line2d_9">
     <path d="M 349.846227 309.488133 
L 352.610367 311.88081 
" style="fill: none; stroke: #000000; stroke-width: 0.8; stroke-linecap: square"/>
    </g>
    <g id="text_8">
     <!-- 7 -->
     <g transform="translate(350.191369 323.370578) scale(0.1 -0.1)">
      <defs>
       <path id="DejaVuSans-37" d="M 525 4666 
L 3525 4666 
L 3525 4397 
L 1831 0 
L 1172 0 
L 2766 4134 
L 525 4134 
L 525 4666 
z
" transform="scale(0.015625)"/>
      </defs>
      <use xlink:href="#DejaVuSans-37"/>
     </g>
    </g>
   </g>
   <g id="xtick_9">
    <g id="line2d_10">
     <path d="M 368.941722 303.257707 
L 371.731269 305.623545 
" style="fill: none; stroke: #000000; stroke-width: 0.8; stroke-linecap: square"/>
    </g>
    <g id="text_9">
     <!-- 8 -->
     <g transform="translate(369.300852 317.093743) scale(0.1 -0.1)">
      <defs>
       <path id="DejaVuSans-38" d="M 2034 2216 
Q 1584 2216 1326 1975 
Q 1069 1734 1069 1313 
Q 1069 891 1326 650 
Q 1584 409 2034 409 
Q 2484 409 2743 651 
Q 3003 894 3003 1313 
Q 3003 1734 2745 1975 
Q 2488 2216 2034 2216 
z
M 1403 2484 
Q 997 2584 770 2862 
Q 544 3141 544 3541 
Q 544 4100 942 4425 
Q 1341 4750 2034 4750 
Q 2731 4750 3128 4425 
Q 3525 4100 3525 3541 
Q 3525 3141 3298 2862 
Q 3072 2584 2669 2484 
Q 3125 2378 3379 2068 
Q 3634 1759 3634 1313 
Q 3634 634 3220 271 
Q 2806 -91 2034 -91 
Q 1263 -91 848 271 
Q 434 634 434 1313 
Q 434 1759 690 2068 
Q 947 2378 1403 2484 
z
M 1172 3481 
Q 1172 3119 1398 2916 
Q 1625 2713 2034 2713 
Q 2441 2713 2670 2916 
Q 2900 3119 2900 3481 
Q 2900 3844 2670 4047 
Q 2441 4250 2034 4250 
Q 1625 4250 1398 4047 
Q 1172 3844 1172 3481 
z
" transform="scale(0.015625)"/>
      </defs>
      <use xlink:href="#DejaVuSans-38"/>
     </g>
    </g>
   </g>
   <g id="text_10">
    <!-- Kletter Tage -->
    <g transform="translate(275.579342 365.245441) rotate(-18.087038) scale(0.1 -0.1)">
     <defs>
      <path id="DejaVuSans-4b" d="M 628 4666 
L 1259 4666 
L 1259 2694 
L 3353 4666 
L 4166 4666 
L 1850 2491 
L 4331 0 
L 3500 0 
L 1259 2247 
L 1259 0 
L 628 0 
L 628 4666 
z
" transform="scale(0.015625)"/>
      <path id="DejaVuSans-6c" d="M 603 4863 
L 1178 4863 
L 1178 0 
L 603 0 
L 603 4863 
z
" transform="scale(0.015625)"/>
      <path id="DejaVuSans-65" d="M 3597 1894 
L 3597 1613 
L 953 1613 
Q 991 1019 1311 708 
Q 1631 397 2203 397 
Q 2534 397 2845 478 
Q 3156 559 3463 722 
L 3463 178 
Q 3153 47 2828 -22 
Q 2503 -91 2169 -91 
Q 1331 -91 842 396 
Q 353 884 353 1716 
Q 353 2575 817 3079 
Q 1281 3584 2069 3584 
Q 2775 3584 3186 3129 
Q 3597 2675 3597 1894 
z
M 3022 2063 
Q 3016 2534 2758 2815 
Q 2500 3097 2075 3097 
Q 1594 3097 1305 2825 
Q 1016 2553 972 2059 
L 3022 2063 
z
" transform="scale(0.015625)"/>
      <path id="DejaVuSans-74" d="M 1172 4494 
L 1172 3500 
L 2356 3500 
L 2356 3053 
L 1172 3053 
L 1172 1153 
Q 1172 725 1289 603 
Q 1406 481 1766 481 
L 2356 481 
L 2356 0 
L 1766 0 
Q 1100 0 847 248 
Q 594 497 594 1153 
L 594 3053 
L 172 3053 
L 172 3500 
L 594 3500 
L 594 4494 
L 1172 4494 
z
" transform="scale(0.015625)"/>
      <path id="DejaVuSans-72" d="M 2631 2963 
Q 2534 3019 2420 3045 
Q 2306 3072 2169 3072 
Q 1681 3072 1420 2755 
Q 1159 2438 1159 1844 
L 1159 0 
L 581 0 
L 581 3500 
L 1159 3500 
L 1159 2956 
Q 1341 3275 1631 3429 
Q 1922 3584 2338 3584 
Q 2397 3584 2469 3576 
Q 2541 3569 2628 3553 
L 2631 2963 
z
" transform="scale(0.015625)"/>
      <path id="DejaVuSans-20" transform="scale(0.015625)"/>
      <path id="DejaVuSans-54" d="M -19 4666 
L 3928 4666 
L 3928 4134 
L 2272 4134 
L 2272 0 
L 1638 0 
L 1638 4134 
L -19 4134 
L -19 4666 
z
" transform="scale(0.015625)"/>
      <path id="DejaVuSans-61" d="M 2194 1759 
Q 1497 1759 1228 1600 
Q 959 1441 959 1056 
Q 959 750 1161 570 
Q 1363 391 1709 391 
Q 2188 391 2477 730 
Q 2766 1069 2766 1631 
L 2766 1759 
L 2194 1759 
z
M 3341 1997 
L 3341 0 
L 2766 0 
L 2766 531 
Q 2569 213 2275 61 
Q 1981 -91 1556 -91 
Q 1019 -91 701 211 
Q 384 513 384 1019 
Q 384 1609 779 1909 
Q 1175 2209 1959 2209 
L 2766 2209 
L 2766 2266 
Q 2766 2663 2505 2880 
Q 2244 3097 1772 3097 
Q 1472 3097 1187 3025 
Q 903 2953 641 2809 
L 641 3341 
Q 956 3463 1253 3523 
Q 1550 3584 1831 3584 
Q 2591 3584 2966 3190 
Q 3341 2797 3341 1997 
z
" transform="scale(0.015625)"/>
      <path id="DejaVuSans-67" d="M 2906 1791 
Q 2906 2416 2648 2759 
Q 2391 3103 1925 3103 
Q 1463 3103 1205 2759 
Q 947 2416 947 1791 
Q 947 1169 1205 825 
Q 1463 481 1925 481 
Q 2391 481 2648 825 
Q 2906 1169 2906 1791 
z
M 3481 434 
Q 3481 -459 3084 -895 
Q 2688 -1331 1869 -1331 
Q 1566 -1331 1297 -1286 
Q 1028 -1241 775 -1147 
L 775 -588 
Q 1028 -725 1275 -790 
Q 1522 -856 1778 -856 
Q 2344 -856 2625 -561 
Q 2906 -266 2906 331 
L 2906 616 
Q 2728 306 2450 153 
Q 2172 0 1784 0 
Q 1141 0 747 490 
Q 353 981 353 1791 
Q 353 2603 747 3093 
Q 1141 3584 1784 3584 
Q 2172 3584 2450 3431 
Q 2728 3278 2906 2969 
L 2906 3500 
L 3481 3500 
L 3481 434 
z
" transform="scale(0.015625)"/>
     </defs>
     <use xlink:href="#DejaVuSans-4b"/>
     <use xlink:href="#DejaVuSans-6c" x="65.576172"/>
     <use xlink:href="#DejaVuSans-65" x="93.359375"/>
     <use xlink:href="#DejaVuSans-74" x="154.882812"/>
     <use xlink:href="#DejaVuSans-74" x="194.091797"/>
     <use xlink:href="#DejaVuSans-65" x="233.300781"/>
     <use xlink:href="#DejaVuSans-72" x="294.824219"/>
     <use xlink:href="#DejaVuSans-20" x="335.9375"/>
     <use xlink:href="#DejaVuSans-54" x="367.724609"/>
     <use xlink:href="#DejaVuSans-61" x="412.308594"/>
     <use xlink:href="#DejaVuSans-67" x="473.587891"/>
     <use xlink:href="#DejaVuSans-65" x="537.064453"/>
    </g>
   </g>
  </g>
  <g id="axis3d_2">
   <g id="line2d_11">
    <path d="M 101.667544 260.575181 
L 198.548499 359.998875 
" style="fill: none; stroke: #000000; stroke-width: 0.8; stroke-linecap: square"/>
   </g>
   <g id="xtick_10">
    <g id="line2d_12">
     <path d="M 193.376131 352.623389 
L 188.77904 354.113078 
" style="fill: none; stroke: #000000; stroke-width: 0.8; stroke-linecap: square"/>
    </g>
    <g id="text_11">
     <!-- 0 -->
     <g transform="translate(184.185533 365.384935) scale(0.1 -0.1)">
      <use xlink:href="#DejaVuSans-30"/>
     </g>
    </g>
   </g>
   <g id="xtick_11">
    <g id="line2d_13">
     <path d="M 182.057186 341.028175 
L 177.491935 342.488008 
" style="fill: none; stroke: #000000; stroke-width: 0.8; stroke-linecap: square"/>
    </g>
    <g id="text_12">
     <!-- 1 -->
     <g transform="translate(172.92037 353.730821) scale(0.1 -0.1)">
      <use xlink:href="#DejaVuSans-31"/>
     </g>
    </g>
   </g>
   <g id="xtick_12">
    <g id="line2d_14">
     <path d="M 170.96382 329.664046 
L 166.43006 331.094912 
" style="fill: none; stroke: #000000; stroke-width: 0.8; stroke-linecap: square"/>
    </g>
    <g id="text_13">
     <!-- 2 -->
     <g transform="translate(161.879846 342.309103) scale(0.1 -0.1)">
      <use xlink:href="#DejaVuSans-32"/>
     </g>
    </g>
   </g>
   <g id="xtick_13">
    <g id="line2d_15">
     <path d="M 160.089357 318.524163 
L 155.586739 319.926916 
" style="fill: none; stroke: #000000; stroke-width: 0.8; stroke-linecap: square"/>
    </g>
    <g id="text_14">
     <!-- 3 -->
     <g transform="translate(151.05731 331.112897) scale(0.1 -0.1)">
      <use xlink:href="#DejaVuSans-33"/>
     </g>
    </g>
   </g>
   <g id="xtick_14">
    <g id="line2d_16">
     <path d="M 149.42738 307.601952 
L 144.95556 308.977412 
" style="fill: none; stroke: #000000; stroke-width: 0.8; stroke-linecap: square"/>
    </g>
    <g id="text_15">
     <!-- 4 -->
     <g transform="translate(140.446367 320.135592) scale(0.1 -0.1)">
      <use xlink:href="#DejaVuSans-34"/>
     </g>
    </g>
   </g>
   <g id="xtick_15">
    <g id="line2d_17">
     <path d="M 138.971721 296.891095 
L 134.530356 298.240051 
" style="fill: none; stroke: #000000; stroke-width: 0.8; stroke-linecap: square"/>
    </g>
    <g id="text_16">
     <!-- 5 -->
     <g transform="translate(130.040872 309.370828) scale(0.1 -0.1)">
      <use xlink:href="#DejaVuSans-35"/>
     </g>
    </g>
   </g>
   <g id="xtick_16">
    <g id="line2d_18">
     <path d="M 128.71645 286.385517 
L 124.3052 287.708728 
" style="fill: none; stroke: #000000; stroke-width: 0.8; stroke-linecap: square"/>
    </g>
    <g id="text_17">
     <!-- 6 -->
     <g transform="translate(119.834917 298.812493) scale(0.1 -0.1)">
      <use xlink:href="#DejaVuSans-36"/>
     </g>
    </g>
   </g>
   <g id="xtick_17">
    <g id="line2d_19">
     <path d="M 118.65586 276.079371 
L 114.274387 277.377567 
" style="fill: none; stroke: #000000; stroke-width: 0.8; stroke-linecap: square"/>
    </g>
    <g id="text_18">
     <!-- 7 -->
     <g transform="translate(109.822815 288.454704) scale(0.1 -0.1)">
      <use xlink:href="#DejaVuSans-37"/>
     </g>
    </g>
   </g>
   <g id="xtick_18">
    <g id="line2d_20">
     <path d="M 108.78446 265.967033 
L 104.43243 267.240917 
" style="fill: none; stroke: #000000; stroke-width: 0.8; stroke-linecap: square"/>
    </g>
    <g id="text_19">
     <!-- 8 -->
     <g transform="translate(99.999096 278.291803) scale(0.1 -0.1)">
      <use xlink:href="#DejaVuSans-38"/>
     </g>
    </g>
   </g>
   <g id="text_20">
    <!-- Boulder Tage -->
    <g transform="translate(104.960674 305.756417) rotate(-314.257888) scale(0.1 -0.1)">
     <defs>
      <path id="DejaVuSans-42" d="M 1259 2228 
L 1259 519 
L 2272 519 
Q 2781 519 3026 730 
Q 3272 941 3272 1375 
Q 3272 1813 3026 2020 
Q 2781 2228 2272 2228 
L 1259 2228 
z
M 1259 4147 
L 1259 2741 
L 2194 2741 
Q 2656 2741 2882 2914 
Q 3109 3088 3109 3444 
Q 3109 3797 2882 3972 
Q 2656 4147 2194 4147 
L 1259 4147 
z
M 628 4666 
L 2241 4666 
Q 2963 4666 3353 4366 
Q 3744 4066 3744 3513 
Q 3744 3084 3544 2831 
Q 3344 2578 2956 2516 
Q 3422 2416 3680 2098 
Q 3938 1781 3938 1306 
Q 3938 681 3513 340 
Q 3088 0 2303 0 
L 628 0 
L 628 4666 
z
" transform="scale(0.015625)"/>
      <path id="DejaVuSans-6f" d="M 1959 3097 
Q 1497 3097 1228 2736 
Q 959 2375 959 1747 
Q 959 1119 1226 758 
Q 1494 397 1959 397 
Q 2419 397 2687 759 
Q 2956 1122 2956 1747 
Q 2956 2369 2687 2733 
Q 2419 3097 1959 3097 
z
M 1959 3584 
Q 2709 3584 3137 3096 
Q 3566 2609 3566 1747 
Q 3566 888 3137 398 
Q 2709 -91 1959 -91 
Q 1206 -91 779 398 
Q 353 888 353 1747 
Q 353 2609 779 3096 
Q 1206 3584 1959 3584 
z
" transform="scale(0.015625)"/>
      <path id="DejaVuSans-75" d="M 544 1381 
L 544 3500 
L 1119 3500 
L 1119 1403 
Q 1119 906 1312 657 
Q 1506 409 1894 409 
Q 2359 409 2629 706 
Q 2900 1003 2900 1516 
L 2900 3500 
L 3475 3500 
L 3475 0 
L 2900 0 
L 2900 538 
Q 2691 219 2414 64 
Q 2138 -91 1772 -91 
Q 1169 -91 856 284 
Q 544 659 544 1381 
z
M 1991 3584 
L 1991 3584 
z
" transform="scale(0.015625)"/>
      <path id="DejaVuSans-64" d="M 2906 2969 
L 2906 4863 
L 3481 4863 
L 3481 0 
L 2906 0 
L 2906 525 
Q 2725 213 2448 61 
Q 2172 -91 1784 -91 
Q 1150 -91 751 415 
Q 353 922 353 1747 
Q 353 2572 751 3078 
Q 1150 3584 1784 3584 
Q 2172 3584 2448 3432 
Q 2725 3281 2906 2969 
z
M 947 1747 
Q 947 1113 1208 752 
Q 1469 391 1925 391 
Q 2381 391 2643 752 
Q 2906 1113 2906 1747 
Q 2906 2381 2643 2742 
Q 2381 3103 1925 3103 
Q 1469 3103 1208 2742 
Q 947 2381 947 1747 
z
" transform="scale(0.015625)"/>
     </defs>
     <use xlink:href="#DejaVuSans-42"/>
     <use xlink:href="#DejaVuSans-6f" x="68.603516"/>
     <use xlink:href="#DejaVuSans-75" x="129.785156"/>
     <use xlink:href="#DejaVuSans-6c" x="193.164062"/>
     <use xlink:href="#DejaVuSans-64" x="220.947266"/>
     <use xlink:href="#DejaVuSans-65" x="284.423828"/>
     <use xlink:href="#DejaVuSans-72" x="345.947266"/>
     <use xlink:href="#DejaVuSans-20" x="387.060547"/>
     <use xlink:href="#DejaVuSans-54" x="418.847656"/>
     <use xlink:href="#DejaVuSans-61" x="463.431641"/>
     <use xlink:href="#DejaVuSans-67" x="524.710938"/>
     <use xlink:href="#DejaVuSans-65" x="588.1875"/>
    </g>
   </g>
  </g>
  <g id="axis3d_3">
   <g id="line2d_21">
    <path d="M 101.667544 260.575181 
L 95.528176 126.50708 
" style="fill: none; stroke: #000000; stroke-width: 0.8; stroke-linecap: square"/>
   </g>
   <g id="xtick_19">
    <g id="line2d_22">
     <path d="M 102.740541 251.969471 
L 98.39322 253.223176 
" style="fill: none; stroke: #000000; stroke-width: 0.8; stroke-linecap: square"/>
    </g>
    <g id="text_21">
     <!-- 0 -->
     <g transform="translate(86.956927 258.405404) scale(0.1 -0.1)">
      <use xlink:href="#DejaVuSans-30"/>
     </g>
    </g>
   </g>
   <g id="xtick_20">
    <g id="line2d_23">
     <path d="M 101.961378 234.770967 
L 97.588182 236.011238 
" style="fill: none; stroke: #000000; stroke-width: 0.8; stroke-linecap: square"/>
    </g>
    <g id="text_22">
     <!-- 10 -->
     <g transform="translate(82.925247 241.219371) scale(0.1 -0.1)">
      <use xlink:href="#DejaVuSans-31"/>
      <use xlink:href="#DejaVuSans-30" x="63.623047"/>
     </g>
    </g>
   </g>
   <g id="xtick_21">
    <g id="line2d_24">
     <path d="M 101.173234 217.374223 
L 96.773853 218.600667 
" style="fill: none; stroke: #000000; stroke-width: 0.8; stroke-linecap: square"/>
    </g>
    <g id="text_23">
     <!-- 20 -->
     <g transform="translate(82.065025 223.835463) scale(0.1 -0.1)">
      <use xlink:href="#DejaVuSans-32"/>
      <use xlink:href="#DejaVuSans-30" x="63.623047"/>
     </g>
    </g>
   </g>
   <g id="xtick_22">
    <g id="line2d_25">
     <path d="M 100.375953 199.775793 
L 95.950072 200.988005 
" style="fill: none; stroke: #000000; stroke-width: 0.8; stroke-linecap: square"/>
    </g>
    <g id="text_24">
     <!-- 30 -->
     <g transform="translate(81.194841 206.250245) scale(0.1 -0.1)">
      <use xlink:href="#DejaVuSans-33"/>
      <use xlink:href="#DejaVuSans-30" x="63.623047"/>
     </g>
    </g>
   </g>
   <g id="xtick_23">
    <g id="line2d_26">
     <path d="M 99.569375 181.972149 
L 95.116674 183.169712 
" style="fill: none; stroke: #000000; stroke-width: 0.8; stroke-linecap: square"/>
    </g>
    <g id="text_25">
     <!-- 40 -->
     <g transform="translate(80.314522 188.460199) scale(0.1 -0.1)">
      <use xlink:href="#DejaVuSans-34"/>
      <use xlink:href="#DejaVuSans-30" x="63.623047"/>
     </g>
    </g>
   </g>
   <g id="xtick_24">
    <g id="line2d_27">
     <path d="M 98.753336 163.95968 
L 94.273488 165.142166 
" style="fill: none; stroke: #000000; stroke-width: 0.8; stroke-linecap: square"/>
    </g>
    <g id="text_26">
     <!-- 50 -->
     <g transform="translate(79.423889 170.461726) scale(0.1 -0.1)">
      <use xlink:href="#DejaVuSans-35"/>
      <use xlink:href="#DejaVuSans-30" x="63.623047"/>
     </g>
    </g>
   </g>
   <g id="xtick_25">
    <g id="line2d_28">
     <path d="M 97.92767 145.734691 
L 93.420341 146.901659 
" style="fill: none; stroke: #000000; stroke-width: 0.8; stroke-linecap: square"/>
    </g>
    <g id="text_27">
     <!-- 60 -->
     <g transform="translate(78.522759 152.25114) scale(0.1 -0.1)">
      <use xlink:href="#DejaVuSans-36"/>
      <use xlink:href="#DejaVuSans-30" x="63.623047"/>
     </g>
    </g>
   </g>
   <g id="xtick_26">
    <g id="line2d_29">
     <path d="M 97.092204 127.293398 
L 92.557056 128.444395 
" style="fill: none; stroke: #000000; stroke-width: 0.8; stroke-linecap: square"/>
    </g>
    <g id="text_28">
     <!-- 70 -->
     <g transform="translate(77.610947 133.82467) scale(0.1 -0.1)">
      <use xlink:href="#DejaVuSans-37"/>
      <use xlink:href="#DejaVuSans-30" x="63.623047"/>
     </g>
    </g>
   </g>
   <g id="text_29">
    <!-- Minimaler Preis / Monat -->
    <g transform="translate(65.688108 132.833186) rotate(-272.621908) scale(0.1 -0.1)">
     <defs>
      <path id="DejaVuSans-4d" d="M 628 4666 
L 1569 4666 
L 2759 1491 
L 3956 4666 
L 4897 4666 
L 4897 0 
L 4281 0 
L 4281 4097 
L 3078 897 
L 2444 897 
L 1241 4097 
L 1241 0 
L 628 0 
L 628 4666 
z
" transform="scale(0.015625)"/>
      <path id="DejaVuSans-69" d="M 603 3500 
L 1178 3500 
L 1178 0 
L 603 0 
L 603 3500 
z
M 603 4863 
L 1178 4863 
L 1178 4134 
L 603 4134 
L 603 4863 
z
" transform="scale(0.015625)"/>
      <path id="DejaVuSans-6e" d="M 3513 2113 
L 3513 0 
L 2938 0 
L 2938 2094 
Q 2938 2591 2744 2837 
Q 2550 3084 2163 3084 
Q 1697 3084 1428 2787 
Q 1159 2491 1159 1978 
L 1159 0 
L 581 0 
L 581 3500 
L 1159 3500 
L 1159 2956 
Q 1366 3272 1645 3428 
Q 1925 3584 2291 3584 
Q 2894 3584 3203 3211 
Q 3513 2838 3513 2113 
z
" transform="scale(0.015625)"/>
      <path id="DejaVuSans-6d" d="M 3328 2828 
Q 3544 3216 3844 3400 
Q 4144 3584 4550 3584 
Q 5097 3584 5394 3201 
Q 5691 2819 5691 2113 
L 5691 0 
L 5113 0 
L 5113 2094 
Q 5113 2597 4934 2840 
Q 4756 3084 4391 3084 
Q 3944 3084 3684 2787 
Q 3425 2491 3425 1978 
L 3425 0 
L 2847 0 
L 2847 2094 
Q 2847 2600 2669 2842 
Q 2491 3084 2119 3084 
Q 1678 3084 1418 2786 
Q 1159 2488 1159 1978 
L 1159 0 
L 581 0 
L 581 3500 
L 1159 3500 
L 1159 2956 
Q 1356 3278 1631 3431 
Q 1906 3584 2284 3584 
Q 2666 3584 2933 3390 
Q 3200 3197 3328 2828 
z
" transform="scale(0.015625)"/>
      <path id="DejaVuSans-50" d="M 1259 4147 
L 1259 2394 
L 2053 2394 
Q 2494 2394 2734 2622 
Q 2975 2850 2975 3272 
Q 2975 3691 2734 3919 
Q 2494 4147 2053 4147 
L 1259 4147 
z
M 628 4666 
L 2053 4666 
Q 2838 4666 3239 4311 
Q 3641 3956 3641 3272 
Q 3641 2581 3239 2228 
Q 2838 1875 2053 1875 
L 1259 1875 
L 1259 0 
L 628 0 
L 628 4666 
z
" transform="scale(0.015625)"/>
      <path id="DejaVuSans-73" d="M 2834 3397 
L 2834 2853 
Q 2591 2978 2328 3040 
Q 2066 3103 1784 3103 
Q 1356 3103 1142 2972 
Q 928 2841 928 2578 
Q 928 2378 1081 2264 
Q 1234 2150 1697 2047 
L 1894 2003 
Q 2506 1872 2764 1633 
Q 3022 1394 3022 966 
Q 3022 478 2636 193 
Q 2250 -91 1575 -91 
Q 1294 -91 989 -36 
Q 684 19 347 128 
L 347 722 
Q 666 556 975 473 
Q 1284 391 1588 391 
Q 1994 391 2212 530 
Q 2431 669 2431 922 
Q 2431 1156 2273 1281 
Q 2116 1406 1581 1522 
L 1381 1569 
Q 847 1681 609 1914 
Q 372 2147 372 2553 
Q 372 3047 722 3315 
Q 1072 3584 1716 3584 
Q 2034 3584 2315 3537 
Q 2597 3491 2834 3397 
z
" transform="scale(0.015625)"/>
      <path id="DejaVuSans-2f" d="M 1625 4666 
L 2156 4666 
L 531 -594 
L 0 -594 
L 1625 4666 
z
" transform="scale(0.015625)"/>
     </defs>
     <use xlink:href="#DejaVuSans-4d"/>
     <use xlink:href="#DejaVuSans-69" x="86.279297"/>
     <use xlink:href="#DejaVuSans-6e" x="114.0625"/>
     <use xlink:href="#DejaVuSans-69" x="177.441406"/>
     <use xlink:href="#DejaVuSans-6d" x="205.224609"/>
     <use xlink:href="#DejaVuSans-61" x="302.636719"/>
     <use xlink:href="#DejaVuSans-6c" x="363.916016"/>
     <use xlink:href="#DejaVuSans-65" x="391.699219"/>
     <use xlink:href="#DejaVuSans-72" x="453.222656"/>
     <use xlink:href="#DejaVuSans-20" x="494.335938"/>
     <use xlink:href="#DejaVuSans-50" x="526.123047"/>
     <use xlink:href="#DejaVuSans-72" x="584.675781"/>
     <use xlink:href="#DejaVuSans-65" x="623.539062"/>
     <use xlink:href="#DejaVuSans-69" x="685.0625"/>
     <use xlink:href="#DejaVuSans-73" x="712.845703"/>
     <use xlink:href="#DejaVuSans-20" x="764.945312"/>
     <use xlink:href="#DejaVuSans-2f" x="796.732422"/>
     <use xlink:href="#DejaVuSans-20" x="830.423828"/>
     <use xlink:href="#DejaVuSans-4d" x="862.210938"/>
     <use xlink:href="#DejaVuSans-6f" x="948.490234"/>
     <use xlink:href="#DejaVuSans-6e" x="1009.671875"/>
     <use xlink:href="#DejaVuSans-61" x="1073.050781"/>
     <use xlink:href="#DejaVuSans-74" x="1134.330078"/>
    </g>
   </g>
  </g>
  <g id="axes_1">
   <g id="Path3DCollection_1">
    <defs>
     <path id="ma8a899b9a6" d="M 0 2.236068 
C 0.593012 2.236068 1.161816 2.000462 1.581139 1.581139 
C 2.000462 1.161816 2.236068 0.593012 2.236068 0 
C 2.236068 -0.593012 2.000462 -1.161816 1.581139 -1.581139 
C 1.161816 -2.000462 0.593012 -2.236068 0 -2.236068 
C -0.593012 -2.236068 -1.161816 -2.000462 -1.581139 -1.581139 
C -2.000462 -1.161816 -2.236068 -0.593012 -2.236068 0 
C -2.236068 0.593012 -2.000462 1.161816 -1.581139 1.581139 
C -1.161816 2.000462 -0.593012 2.236068 0 2.236068 
z
" style="stroke: #4169e1"/>
    </defs>
    <g clip-path="url(#p0e7116baa4)">
     <use xlink:href="#ma8a899b9a6" x="270.738313" y="97.188649" style="fill: #4169e1; stroke: #4169e1"/>
    </g>
   </g>
   <g id="Path3DCollection_2">
    <g clip-path="url(#p0e7116baa4)">
     <use xlink:href="#ma8a899b9a6" x="251.867006" y="102.05387" style="fill: #4169e1; stroke: #4169e1"/>
    </g>
   </g>
   <g id="Path3DCollection_3">
    <g clip-path="url(#p0e7116baa4)">
     <use xlink:href="#ma8a899b9a6" x="282.080025" y="105.649067" style="fill: #4169e1; stroke: #4169e1"/>
    </g>
   </g>
   <g id="Path3DCollection_4">
    <g clip-path="url(#p0e7116baa4)">
     <use xlink:href="#ma8a899b9a6" x="232.78978" y="106.972179" style="fill: #4169e1; stroke: #4169e1"/>
    </g>
   </g>
   <g id="Path3DCollection_5">
    <g clip-path="url(#p0e7116baa4)">
     <use xlink:href="#ma8a899b9a6" x="263.091799" y="110.606792" style="fill: #4169e1; stroke: #4169e1"/>
    </g>
   </g>
   <g id="Path3DCollection_6">
    <g clip-path="url(#p0e7116baa4)">
     <use xlink:href="#ma8a899b9a6" x="213.503245" y="111.944451" style="fill: #4169e1; stroke: #4169e1"/>
    </g>
   </g>
   <g id="Path3DCollection_7">
    <g clip-path="url(#p0e7116baa4)">
     <use xlink:href="#ma8a899b9a6" x="293.63782" y="114.270672" style="fill: #4169e1; stroke: #4169e1"/>
    </g>
   </g>
   <g id="Path3DCollection_8">
    <g clip-path="url(#p0e7116baa4)">
     <use xlink:href="#ma8a899b9a6" x="243.894401" y="115.619131" style="fill: #4169e1; stroke: #4169e1"/>
    </g>
   </g>
   <g id="Path3DCollection_9">
    <g clip-path="url(#p0e7116baa4)">
     <use xlink:href="#ma8a899b9a6" x="194.003937" y="116.971577" style="fill: #4169e1; stroke: #4169e1"/>
    </g>
   </g>
   <g id="Path3DCollection_10">
    <g clip-path="url(#p0e7116baa4)">
     <use xlink:href="#ma8a899b9a6" x="274.531629" y="119.323565" style="fill: #4169e1; stroke: #4169e1"/>
    </g>
   </g>
   <g id="Path3DCollection_11">
    <g clip-path="url(#p0e7116baa4)">
     <use xlink:href="#ma8a899b9a6" x="224.484355" y="120.686991" style="fill: #4169e1; stroke: #4169e1"/>
    </g>
   </g>
   <g id="Path3DCollection_12">
    <defs>
     <path id="m68e9150427" d="M 0 2.236068 
C 0.593012 2.236068 1.161816 2.000462 1.581139 1.581139 
C 2.000462 1.161816 2.236068 0.593012 2.236068 0 
C 2.236068 -0.593012 2.000462 -1.161816 1.581139 -1.581139 
C 1.161816 -2.000462 0.593012 -2.236068 0 -2.236068 
C -0.593012 -2.236068 -1.161816 -2.000462 -1.581139 -1.581139 
C -2.000462 -1.161816 -2.236068 -0.593012 -2.236068 0 
C -2.236068 0.593012 -2.000462 1.161816 -1.581139 1.581139 
C -1.161816 2.000462 -0.593012 2.236068 0 2.236068 
z
" style="stroke: #b22222"/>
    </defs>
    <g clip-path="url(#p0e7116baa4)">
     <use xlink:href="#m68e9150427" x="174.357068" y="125.395949" style="fill: #b22222; stroke: #b22222"/>
    </g>
   </g>
   <g id="Path3DCollection_13">
    <g clip-path="url(#p0e7116baa4)">
     <use xlink:href="#ma8a899b9a6" x="305.417931" y="123.058115" style="fill: #4169e1; stroke: #4169e1"/>
    </g>
   </g>
   <g id="Path3DCollection_14">
    <g clip-path="url(#p0e7116baa4)">
     <use xlink:href="#m68e9150427" x="154.640488" y="137.856057" style="fill: #b22222; stroke: #b22222"/>
    </g>
   </g>
   <g id="Path3DCollection_15">
    <g clip-path="url(#p0e7116baa4)">
     <use xlink:href="#ma8a899b9a6" x="255.21294" y="124.432656" style="fill: #4169e1; stroke: #4169e1"/>
    </g>
   </g>
   <g id="Path3DCollection_16">
    <g clip-path="url(#p0e7116baa4)">
     <use xlink:href="#ma8a899b9a6" x="204.858108" y="125.8113" style="fill: #4169e1; stroke: #4169e1"/>
    </g>
   </g>
   <g id="Path3DCollection_17">
    <g clip-path="url(#p0e7116baa4)">
     <use xlink:href="#m68e9150427" x="134.79658" y="150.39663" style="fill: #b22222; stroke: #b22222"/>
    </g>
   </g>
   <g id="Path3DCollection_18">
    <g clip-path="url(#p0e7116baa4)">
     <use xlink:href="#ma8a899b9a6" x="286.192736" y="128.208943" style="fill: #4169e1; stroke: #4169e1"/>
    </g>
   </g>
   <g id="Path3DCollection_19">
    <g clip-path="url(#p0e7116baa4)">
     <use xlink:href="#ma8a899b9a6" x="235.678187" y="129.598889" style="fill: #4169e1; stroke: #4169e1"/>
    </g>
   </g>
   <g id="Path3DCollection_20">
    <g clip-path="url(#p0e7116baa4)">
     <use xlink:href="#m68e9150427" x="185.069892" y="134.357233" style="fill: #b22222; stroke: #b22222"/>
    </g>
   </g>
   <g id="Path3DCollection_21">
    <g clip-path="url(#p0e7116baa4)">
     <use xlink:href="#m68e9150427" x="114.824107" y="163.018451" style="fill: #b22222; stroke: #b22222"/>
    </g>
   </g>
   <g id="Path3DCollection_22">
    <g clip-path="url(#p0e7116baa4)">
     <use xlink:href="#ma8a899b9a6" x="317.426835" y="132.016227" style="fill: #4169e1; stroke: #4169e1"/>
    </g>
   </g>
   <g id="Path3DCollection_23">
    <g clip-path="url(#p0e7116baa4)">
     <use xlink:href="#m68e9150427" x="165.196455" y="146.967592" style="fill: #b22222; stroke: #b22222"/>
    </g>
   </g>
   <g id="Path3DCollection_24">
    <g clip-path="url(#p0e7116baa4)">
     <use xlink:href="#ma8a899b9a6" x="266.751638" y="133.417615" style="fill: #4169e1; stroke: #4169e1"/>
    </g>
   </g>
   <g id="Path3DCollection_25">
    <g clip-path="url(#p0e7116baa4)">
     <use xlink:href="#ma8a899b9a6" x="215.923724" y="134.823227" style="fill: #4169e1; stroke: #4169e1"/>
    </g>
   </g>
   <g id="Path3DCollection_26">
    <g clip-path="url(#p0e7116baa4)">
     <use xlink:href="#m68e9150427" x="145.193425" y="159.660182" style="fill: #b22222; stroke: #b22222"/>
    </g>
   </g>
   <g id="Path3DCollection_27">
    <g clip-path="url(#p0e7116baa4)">
     <use xlink:href="#ma8a899b9a6" x="298.081601" y="137.267865" style="fill: #4169e1; stroke: #4169e1"/>
    </g>
   </g>
   <g id="Path3DCollection_28">
    <g clip-path="url(#p0e7116baa4)">
     <use xlink:href="#ma8a899b9a6" x="247.090981" y="138.685113" style="fill: #4169e1; stroke: #4169e1"/>
    </g>
   </g>
   <g id="Path3DCollection_29">
    <g clip-path="url(#p0e7116baa4)">
     <use xlink:href="#m68e9150427" x="195.992358" y="143.493884" style="fill: #b22222; stroke: #b22222"/>
    </g>
   </g>
   <g id="Path3DCollection_30">
    <g clip-path="url(#p0e7116baa4)">
     <use xlink:href="#m68e9150427" x="125.059531" y="172.43581" style="fill: #b22222; stroke: #b22222"/>
    </g>
   </g>
   <g id="Path3DCollection_31">
    <g clip-path="url(#p0e7116baa4)">
     <use xlink:href="#ma8a899b9a6" x="329.671263" y="141.150031" style="fill: #4169e1; stroke: #4169e1"/>
    </g>
   </g>
   <g id="Path3DCollection_32">
    <g clip-path="url(#p0e7116baa4)">
     <use xlink:href="#m68e9150427" x="175.959673" y="156.25802" style="fill: #b22222; stroke: #b22222"/>
    </g>
   </g>
   <g id="Path3DCollection_33">
    <g clip-path="url(#p0e7116baa4)">
     <use xlink:href="#ma8a899b9a6" x="278.516982" y="142.579059" style="fill: #4169e1; stroke: #4169e1"/>
    </g>
   </g>
   <g id="Path3DCollection_34">
    <g clip-path="url(#p0e7116baa4)">
     <use xlink:href="#ma8a899b9a6" x="227.207025" y="144.012436" style="fill: #4169e1; stroke: #4169e1"/>
    </g>
   </g>
   <g id="Path3DCollection_35">
    <g clip-path="url(#p0e7116baa4)">
     <use xlink:href="#m68e9150427" x="155.79507" y="169.10621" style="fill: #b22222; stroke: #b22222"/>
    </g>
   </g>
   <g id="Path3DCollection_36">
    <g clip-path="url(#p0e7116baa4)">
     <use xlink:href="#ma8a899b9a6" x="310.204963" y="146.505467" style="fill: #4169e1; stroke: #4169e1"/>
    </g>
   </g>
   <g id="Path3DCollection_37">
    <g clip-path="url(#p0e7116baa4)">
     <use xlink:href="#ma8a899b9a6" x="258.729227" y="147.950828" style="fill: #4169e1; stroke: #4169e1"/>
    </g>
   </g>
   <g id="Path3DCollection_38">
    <g clip-path="url(#p0e7116baa4)">
     <use xlink:href="#m68e9150427" x="207.130683" y="152.811099" style="fill: #b22222; stroke: #b22222"/>
    </g>
   </g>
   <g id="Path3DCollection_39">
    <g clip-path="url(#p0e7116baa4)">
     <use xlink:href="#m68e9150427" x="135.497241" y="182.039287" style="fill: #b22222; stroke: #b22222"/>
    </g>
   </g>
   <g id="Path3DCollection_40">
    <g clip-path="url(#p0e7116baa4)">
     <use xlink:href="#ma8a899b9a6" x="342.158213" y="150.464744" style="fill: #4169e1; stroke: #4169e1"/>
    </g>
   </g>
   <g id="Path3DCollection_41">
    <g clip-path="url(#p0e7116baa4)">
     <use xlink:href="#m68e9150427" x="186.936307" y="165.732661" style="fill: #b22222; stroke: #b22222"/>
    </g>
   </g>
   <g id="Path3DCollection_42">
    <g clip-path="url(#p0e7116baa4)">
     <use xlink:href="#ma8a899b9a6" x="290.515717" y="151.922239" style="fill: #4169e1; stroke: #4169e1"/>
    </g>
   </g>
   <g id="Path3DCollection_43">
    <g clip-path="url(#p0e7116baa4)">
     <use xlink:href="#ma8a899b9a6" x="238.714496" y="153.384213" style="fill: #4169e1; stroke: #4169e1"/>
    </g>
   </g>
   <g id="Path3DCollection_44">
    <g clip-path="url(#p0e7116baa4)">
     <use xlink:href="#m68e9150427" x="166.607625" y="178.74016" style="fill: #b22222; stroke: #b22222"/>
    </g>
   </g>
   <g id="Path3DCollection_45">
    <g clip-path="url(#p0e7116baa4)">
     <use xlink:href="#ma8a899b9a6" x="322.56983" y="155.927087" style="fill: #4169e1; stroke: #4169e1"/>
    </g>
   </g>
   <g id="Path3DCollection_46">
    <g clip-path="url(#p0e7116baa4)">
     <use xlink:href="#ma8a899b9a6" x="270.599672" y="157.401406" style="fill: #4169e1; stroke: #4169e1"/>
    </g>
   </g>
   <g id="Path3DCollection_47">
    <g clip-path="url(#p0e7116baa4)">
     <use xlink:href="#m68e9150427" x="218.491328" y="162.314286" style="fill: #b22222; stroke: #b22222"/>
    </g>
   </g>
   <g id="Path3DCollection_48">
    <g clip-path="url(#p0e7116baa4)">
     <use xlink:href="#m68e9150427" x="146.143294" y="191.834455" style="fill: #b22222; stroke: #b22222"/>
    </g>
   </g>
   <g id="Path3DCollection_49">
    <g clip-path="url(#p0e7116baa4)">
     <use xlink:href="#ma8a899b9a6" x="354.894961" y="159.965797" style="fill: #4169e1; stroke: #4169e1"/>
    </g>
   </g>
   <g id="Path3DCollection_50">
    <g clip-path="url(#p0e7116baa4)">
     <use xlink:href="#m68e9150427" x="198.132767" y="175.397049" style="fill: #b22222; stroke: #b22222"/>
    </g>
   </g>
   <g id="Path3DCollection_51">
    <g clip-path="url(#p0e7116baa4)">
     <use xlink:href="#ma8a899b9a6" x="302.754855" y="161.452617" style="fill: #4169e1; stroke: #4169e1"/>
    </g>
   </g>
   <g id="Path3DCollection_52">
    <defs>
     <path id="m9a900b0ed3" d="M 0 2.236068 
C 0.593012 2.236068 1.161816 2.000462 1.581139 1.581139 
C 2.000462 1.161816 2.236068 0.593012 2.236068 0 
C 2.236068 -0.593012 2.000462 -1.161816 1.581139 -1.581139 
C 1.161816 -2.000462 0.593012 -2.236068 0 -2.236068 
C -0.593012 -2.236068 -1.161816 -2.000462 -1.581139 -1.581139 
C -2.000462 -1.161816 -2.236068 -0.593012 -2.236068 0 
C -2.236068 0.593012 -2.000462 1.161816 -1.581139 1.581139 
C -1.161816 2.000462 -0.593012 2.236068 0 2.236068 
z
" style="stroke: #808080"/>
    </defs>
    <g clip-path="url(#p0e7116baa4)">
     <use xlink:href="#m9a900b0ed3" x="157.442077" y="218.187616" style="fill: #808080; stroke: #808080"/>
    </g>
   </g>
   <g id="Path3DCollection_53">
    <g clip-path="url(#p0e7116baa4)">
     <use xlink:href="#ma8a899b9a6" x="250.452887" y="162.944053" style="fill: #4169e1; stroke: #4169e1"/>
    </g>
   </g>
   <g id="Path3DCollection_54">
    <g clip-path="url(#p0e7116baa4)">
     <use xlink:href="#m68e9150427" x="177.637449" y="188.567694" style="fill: #b22222; stroke: #b22222"/>
    </g>
   </g>
   <g id="Path3DCollection_55">
    <g clip-path="url(#p0e7116baa4)">
     <use xlink:href="#ma8a899b9a6" x="335.18349" y="165.53828" style="fill: #4169e1; stroke: #4169e1"/>
    </g>
   </g>
   <g id="Path3DCollection_56">
    <g clip-path="url(#p0e7116baa4)">
     <use xlink:href="#m9a900b0ed3" x="168.93221" y="248.466453" style="fill: #808080; stroke: #808080"/>
    </g>
   </g>
   <g id="Path3DCollection_57">
    <g clip-path="url(#p0e7116baa4)">
     <use xlink:href="#ma8a899b9a6" x="282.709333" y="167.042436" style="fill: #4169e1; stroke: #4169e1"/>
    </g>
   </g>
   <g id="Path3DCollection_58">
    <g clip-path="url(#p0e7116baa4)">
     <use xlink:href="#m68e9150427" x="230.081018" y="172.009069" style="fill: #b22222; stroke: #b22222"/>
    </g>
   </g>
   <g id="Path3DCollection_59">
    <defs>
     <path id="mf2c9aeb5ff" d="M 0 2.236068 
C 0.593012 2.236068 1.161816 2.000462 1.581139 1.581139 
C 2.000462 1.161816 2.236068 0.593012 2.236068 0 
C 2.236068 -0.593012 2.000462 -1.161816 1.581139 -1.581139 
C 1.161816 -2.000462 0.593012 -2.236068 0 -2.236068 
C -0.593012 -2.236068 -1.161816 -2.000462 -1.581139 -1.581139 
C -2.000462 -1.161816 -2.236068 -0.593012 -2.236068 0 
C -2.236068 0.593012 -2.000462 1.161816 -1.581139 1.581139 
C -1.161816 2.000462 -0.593012 2.236068 0 2.236068 
z
" style="stroke: #006400"/>
    </defs>
    <g clip-path="url(#p0e7116baa4)">
     <use xlink:href="#mf2c9aeb5ff" x="189.172231" y="215.827819" style="fill: #006400; stroke: #006400"/>
    </g>
   </g>
   <g id="Path3DCollection_60">
    <g clip-path="url(#p0e7116baa4)">
     <use xlink:href="#m9a900b0ed3" x="180.502103" y="278.955474" style="fill: #808080; stroke: #808080"/>
    </g>
   </g>
   <g id="Path3DCollection_61">
    <g clip-path="url(#p0e7116baa4)">
     <use xlink:href="#ma8a899b9a6" x="367.889079" y="169.658836" style="fill: #4169e1; stroke: #4169e1"/>
    </g>
   </g>
   <g id="Path3DCollection_62">
    <g clip-path="url(#p0e7116baa4)">
     <use xlink:href="#m68e9150427" x="209.555725" y="185.256941" style="fill: #b22222; stroke: #b22222"/>
    </g>
   </g>
   <g id="Path3DCollection_63">
    <g clip-path="url(#p0e7116baa4)">
     <use xlink:href="#ma8a899b9a6" x="315.241695" y="171.175876" style="fill: #4169e1; stroke: #4169e1"/>
    </g>
   </g>
   <g id="Path3DCollection_64">
    <g clip-path="url(#p0e7116baa4)">
     <use xlink:href="#mf2c9aeb5ff" x="200.847457" y="246.295113" style="fill: #006400; stroke: #006400"/>
    </g>
   </g>
   <g id="Path3DCollection_65">
    <g clip-path="url(#p0e7116baa4)">
     <use xlink:href="#m9a900b0ed3" x="192.152589" y="309.656874" style="fill: #808080; stroke: #808080"/>
    </g>
   </g>
   <g id="Path3DCollection_66">
    <g clip-path="url(#p0e7116baa4)">
     <use xlink:href="#ma8a899b9a6" x="262.429218" y="172.697673" style="fill: #4169e1; stroke: #4169e1"/>
    </g>
   </g>
   <g id="Path3DCollection_67">
    <g clip-path="url(#p0e7116baa4)">
     <use xlink:href="#mf2c9aeb5ff" x="221.315826" y="213.437275" style="fill: #006400; stroke: #006400"/>
    </g>
   </g>
   <g id="Path3DCollection_68">
    <g clip-path="url(#p0e7116baa4)">
     <use xlink:href="#mf2c9aeb5ff" x="212.604255" y="276.975276" style="fill: #006400; stroke: #006400"/>
    </g>
   </g>
   <g id="Path3DCollection_69">
    <g clip-path="url(#p0e7116baa4)">
     <use xlink:href="#ma8a899b9a6" x="348.053528" y="175.344824" style="fill: #4169e1; stroke: #4169e1"/>
    </g>
   </g>
   <g id="Path3DCollection_70">
    <defs>
     <path id="mef21bf92a5" d="M 0 2.236068 
C 0.593012 2.236068 1.161816 2.000462 1.581139 1.581139 
C 2.000462 1.161816 2.236068 0.593012 2.236068 0 
C 2.236068 -0.593012 2.000462 -1.161816 1.581139 -1.581139 
C 1.161816 -2.000462 0.593012 -2.236068 0 -2.236068 
C -0.593012 -2.236068 -1.161816 -2.000462 -1.581139 -1.581139 
C -2.000462 -1.161816 -2.236068 -0.593012 -2.236068 0 
C -2.236068 0.593012 -2.000462 1.161816 -1.581139 1.581139 
C -1.161816 2.000462 -0.593012 2.236068 0 2.236068 
z
" style="stroke: #000000"/>
    </defs>
    <g clip-path="url(#p0e7116baa4)">
     <use xlink:href="#mef21bf92a5" x="203.884513" y="340.57288" style="stroke: #000000"/>
    </g>
   </g>
   <g id="Path3DCollection_71">
    <g clip-path="url(#p0e7116baa4)">
     <use xlink:href="#ma8a899b9a6" x="295.065517" y="176.879733" style="fill: #4169e1; stroke: #4169e1"/>
    </g>
   </g>
   <g id="Path3DCollection_72">
    <g clip-path="url(#p0e7116baa4)">
     <use xlink:href="#m68e9150427" x="241.906749" y="181.9013" style="fill: #b22222; stroke: #b22222"/>
    </g>
   </g>
   <g id="Path3DCollection_73">
    <g clip-path="url(#p0e7116baa4)">
     <use xlink:href="#mf2c9aeb5ff" x="233.180014" y="244.095381" style="fill: #006400; stroke: #006400"/>
    </g>
   </g>
   <g id="Path3DCollection_74">
    <defs>
     <path id="mef2a1a6f67" d="M 0 2.236068 
C 0.593012 2.236068 1.161816 2.000462 1.581139 1.581139 
C 2.000462 1.161816 2.236068 0.593012 2.236068 0 
C 2.236068 -0.593012 2.000462 -1.161816 1.581139 -1.581139 
C 1.161816 -2.000462 0.593012 -2.236068 0 -2.236068 
C -0.593012 -2.236068 -1.161816 -2.000462 -1.581139 -1.581139 
C -2.000462 -1.161816 -2.236068 -0.593012 -2.236068 0 
C -2.236068 0.593012 -2.000462 1.161816 -1.581139 1.581139 
C -1.161816 2.000462 -0.593012 2.236068 0 2.236068 
z
" style="stroke: #98fb98"/>
    </defs>
    <g clip-path="url(#p0e7116baa4)">
     <use xlink:href="#mef2a1a6f67" x="224.443485" y="307.870548" style="fill: #98fb98; stroke: #98fb98"/>
    </g>
   </g>
   <g id="Path3DCollection_75">
    <g clip-path="url(#p0e7116baa4)">
     <use xlink:href="#ma8a899b9a6" x="327.983835" y="181.097931" style="fill: #4169e1; stroke: #4169e1"/>
    </g>
   </g>
   <g id="Path3DCollection_76">
    <g clip-path="url(#p0e7116baa4)">
     <use xlink:href="#mf2c9aeb5ff" x="253.880996" y="211.015378" style="fill: #006400; stroke: #006400"/>
    </g>
   </g>
   <g id="Path3DCollection_77">
    <g clip-path="url(#p0e7116baa4)">
     <use xlink:href="#mef2a1a6f67" x="245.127638" y="274.969095" style="fill: #98fb98; stroke: #98fb98"/>
    </g>
   </g>
   <g id="Path3DCollection_78">
    <g clip-path="url(#p0e7116baa4)">
     <use xlink:href="#ma8a899b9a6" x="274.650799" y="182.651026" style="fill: #4169e1; stroke: #4169e1"/>
    </g>
   </g>
   <g id="Path3DCollection_79">
    <g clip-path="url(#p0e7116baa4)">
     <use xlink:href="#mef2a1a6f67" x="265.93812" y="241.866696" style="fill: #98fb98; stroke: #98fb98"/>
    </g>
   </g>
   <g id="Path3DCollection_80">
    <g clip-path="url(#p0e7116baa4)">
     <use xlink:href="#ma8a899b9a6" x="307.675828" y="186.919351" style="fill: #4169e1; stroke: #4169e1"/>
    </g>
   </g>
   <g id="Poly3DCollection_1">
    <path d="M 263.091799 110.606792 
L 282.080025 105.649067 
L 270.738313 97.188649 
L 251.867006 102.05387 
z
" clip-path="url(#p0e7116baa4)" style="fill: #fde725; fill-opacity: 0.15"/>
    <path d="M 243.894401 115.619131 
L 263.091799 110.606792 
L 251.867006 102.05387 
L 232.78978 106.972179 
z
" clip-path="url(#p0e7116baa4)" style="fill: #fde725; fill-opacity: 0.15"/>
    <path d="M 274.531629 119.323565 
L 293.63782 114.270672 
L 282.080025 105.649067 
L 263.091799 110.606792 
z
" clip-path="url(#p0e7116baa4)" style="fill: #fde725; fill-opacity: 0.15"/>
    <path d="M 224.484355 120.686991 
L 243.894401 115.619131 
L 232.78978 106.972179 
L 213.503245 111.944451 
z
" clip-path="url(#p0e7116baa4)" style="fill: #fde725; fill-opacity: 0.15"/>
    <path d="M 255.21294 124.432656 
L 274.531629 119.323565 
L 263.091799 110.606792 
L 243.894401 115.619131 
z
" clip-path="url(#p0e7116baa4)" style="fill: #fde725; fill-opacity: 0.15"/>
    <path d="M 204.858108 125.8113 
L 224.484355 120.686991 
L 213.503245 111.944451 
L 194.003937 116.971577 
z
" clip-path="url(#p0e7116baa4)" style="fill: #fde725; fill-opacity: 0.15"/>
    <path d="M 286.192736 128.208943 
L 305.417931 123.058115 
L 293.63782 114.270672 
L 274.531629 119.323565 
z
" clip-path="url(#p0e7116baa4)" style="fill: #fde725; fill-opacity: 0.15"/>
    <path d="M 235.678187 129.598889 
L 255.21294 124.432656 
L 243.894401 115.619131 
L 224.484355 120.686991 
z
" clip-path="url(#p0e7116baa4)" style="fill: #fde725; fill-opacity: 0.15"/>
    <path d="M 185.069892 134.357233 
L 204.858108 125.8113 
L 194.003937 116.971577 
L 174.357068 125.395949 
z
" clip-path="url(#p0e7116baa4)" style="fill: #f4e61e; fill-opacity: 0.15"/>
    <path d="M 266.751638 133.417615 
L 286.192736 128.208943 
L 274.531629 119.323565 
L 255.21294 124.432656 
z
" clip-path="url(#p0e7116baa4)" style="fill: #fde725; fill-opacity: 0.15"/>
    <path d="M 165.196455 146.967592 
L 185.069892 134.357233 
L 174.357068 125.395949 
L 154.640488 137.856057 
z
" clip-path="url(#p0e7116baa4)" style="fill: #d0e11c; fill-opacity: 0.15"/>
    <path d="M 215.923724 134.823227 
L 235.678187 129.598889 
L 224.484355 120.686991 
L 204.858108 125.8113 
z
" clip-path="url(#p0e7116baa4)" style="fill: #fde725; fill-opacity: 0.15"/>
    <path d="M 145.193425 159.660182 
L 165.196455 146.967592 
L 154.640488 137.856057 
L 134.79658 150.39663 
z
" clip-path="url(#p0e7116baa4)" style="fill: #9dd93b; fill-opacity: 0.15"/>
    <path d="M 298.081601 137.267865 
L 317.426835 132.016227 
L 305.417931 123.058115 
L 286.192736 128.208943 
z
" clip-path="url(#p0e7116baa4)" style="fill: #fde725; fill-opacity: 0.15"/>
    <path d="M 247.090981 138.685113 
L 266.751638 133.417615 
L 255.21294 124.432656 
L 235.678187 129.598889 
z
" clip-path="url(#p0e7116baa4)" style="fill: #fde725; fill-opacity: 0.15"/>
    <path d="M 195.992358 143.493884 
L 215.923724 134.823227 
L 204.858108 125.8113 
L 185.069892 134.357233 
z
" clip-path="url(#p0e7116baa4)" style="fill: #f4e61e; fill-opacity: 0.15"/>
    <path d="M 125.059531 172.43581 
L 145.193425 159.660182 
L 134.79658 150.39663 
L 114.824107 163.018451 
z
" clip-path="url(#p0e7116baa4)" style="fill: #6ece58; fill-opacity: 0.15"/>
    <path d="M 278.516982 142.579059 
L 298.081601 137.267865 
L 286.192736 128.208943 
L 266.751638 133.417615 
z
" clip-path="url(#p0e7116baa4)" style="fill: #fde725; fill-opacity: 0.15"/>
    <path d="M 175.959673 156.25802 
L 195.992358 143.493884 
L 185.069892 134.357233 
L 165.196455 146.967592 
z
" clip-path="url(#p0e7116baa4)" style="fill: #d0e11c; fill-opacity: 0.15"/>
    <path d="M 227.207025 144.012436 
L 247.090981 138.685113 
L 235.678187 129.598889 
L 215.923724 134.823227 
z
" clip-path="url(#p0e7116baa4)" style="fill: #fde725; fill-opacity: 0.15"/>
    <path d="M 155.79507 169.10621 
L 175.959673 156.25802 
L 165.196455 146.967592 
L 145.193425 159.660182 
z
" clip-path="url(#p0e7116baa4)" style="fill: #9dd93b; fill-opacity: 0.15"/>
    <path d="M 310.204963 146.505467 
L 329.671263 141.150031 
L 317.426835 132.016227 
L 298.081601 137.267865 
z
" clip-path="url(#p0e7116baa4)" style="fill: #fde725; fill-opacity: 0.15"/>
    <path d="M 258.729227 147.950828 
L 278.516982 142.579059 
L 266.751638 133.417615 
L 247.090981 138.685113 
z
" clip-path="url(#p0e7116baa4)" style="fill: #fde725; fill-opacity: 0.15"/>
    <path d="M 207.130683 152.811099 
L 227.207025 144.012436 
L 215.923724 134.823227 
L 195.992358 143.493884 
z
" clip-path="url(#p0e7116baa4)" style="fill: #f4e61e; fill-opacity: 0.15"/>
    <path d="M 135.497241 182.039287 
L 155.79507 169.10621 
L 145.193425 159.660182 
L 125.059531 172.43581 
z
" clip-path="url(#p0e7116baa4)" style="fill: #6ece58; fill-opacity: 0.15"/>
    <path d="M 290.515717 151.922239 
L 310.204963 146.505467 
L 298.081601 137.267865 
L 278.516982 142.579059 
z
" clip-path="url(#p0e7116baa4)" style="fill: #fde725; fill-opacity: 0.15"/>
    <path d="M 186.936307 165.732661 
L 207.130683 152.811099 
L 195.992358 143.493884 
L 175.959673 156.25802 
z
" clip-path="url(#p0e7116baa4)" style="fill: #d0e11c; fill-opacity: 0.15"/>
    <path d="M 238.714496 153.384213 
L 258.729227 147.950828 
L 247.090981 138.685113 
L 227.207025 144.012436 
z
" clip-path="url(#p0e7116baa4)" style="fill: #fde725; fill-opacity: 0.15"/>
    <path d="M 166.607625 178.74016 
L 186.936307 165.732661 
L 175.959673 156.25802 
L 155.79507 169.10621 
z
" clip-path="url(#p0e7116baa4)" style="fill: #9dd93b; fill-opacity: 0.15"/>
    <path d="M 322.56983 155.927087 
L 342.158213 150.464744 
L 329.671263 141.150031 
L 310.204963 146.505467 
z
" clip-path="url(#p0e7116baa4)" style="fill: #fde725; fill-opacity: 0.15"/>
    <path d="M 270.599672 157.401406 
L 290.515717 151.922239 
L 278.516982 142.579059 
L 258.729227 147.950828 
z
" clip-path="url(#p0e7116baa4)" style="fill: #fde725; fill-opacity: 0.15"/>
    <path d="M 218.491328 162.314286 
L 238.714496 153.384213 
L 227.207025 144.012436 
L 207.130683 152.811099 
z
" clip-path="url(#p0e7116baa4)" style="fill: #f4e61e; fill-opacity: 0.15"/>
    <path d="M 146.143294 191.834455 
L 166.607625 178.74016 
L 155.79507 169.10621 
L 135.497241 182.039287 
z
" clip-path="url(#p0e7116baa4)" style="fill: #6ece58; fill-opacity: 0.15"/>
    <path d="M 302.754855 161.452617 
L 322.56983 155.927087 
L 310.204963 146.505467 
L 290.515717 151.922239 
z
" clip-path="url(#p0e7116baa4)" style="fill: #fde725; fill-opacity: 0.15"/>
    <path d="M 198.132767 175.397049 
L 218.491328 162.314286 
L 207.130683 152.811099 
L 186.936307 165.732661 
z
" clip-path="url(#p0e7116baa4)" style="fill: #d0e11c; fill-opacity: 0.15"/>
    <path d="M 250.452887 162.944053 
L 270.599672 157.401406 
L 258.729227 147.950828 
L 238.714496 153.384213 
z
" clip-path="url(#p0e7116baa4)" style="fill: #fde725; fill-opacity: 0.15"/>
    <path d="M 177.637449 188.567694 
L 198.132767 175.397049 
L 186.936307 165.732661 
L 166.607625 178.74016 
z
" clip-path="url(#p0e7116baa4)" style="fill: #9dd93b; fill-opacity: 0.15"/>
    <path d="M 335.18349 165.53828 
L 354.894961 159.965797 
L 342.158213 150.464744 
L 322.56983 155.927087 
z
" clip-path="url(#p0e7116baa4)" style="fill: #fde725; fill-opacity: 0.15"/>
    <path d="M 282.709333 167.042436 
L 302.754855 161.452617 
L 290.515717 151.922239 
L 270.599672 157.401406 
z
" clip-path="url(#p0e7116baa4)" style="fill: #fde725; fill-opacity: 0.15"/>
    <path d="M 157.442077 218.187616 
L 177.637449 188.567694 
L 166.607625 178.74016 
L 146.143294 191.834455 
z
" clip-path="url(#p0e7116baa4)" style="fill: #56c667; fill-opacity: 0.15"/>
    <path d="M 230.081018 172.009069 
L 250.452887 162.944053 
L 238.714496 153.384213 
L 218.491328 162.314286 
z
" clip-path="url(#p0e7116baa4)" style="fill: #f4e61e; fill-opacity: 0.15"/>
    <path d="M 315.241695 171.175876 
L 335.18349 165.53828 
L 322.56983 155.927087 
L 302.754855 161.452617 
z
" clip-path="url(#p0e7116baa4)" style="fill: #fde725; fill-opacity: 0.15"/>
    <path d="M 209.555725 185.256941 
L 230.081018 172.009069 
L 218.491328 162.314286 
L 198.132767 175.397049 
z
" clip-path="url(#p0e7116baa4)" style="fill: #d0e11c; fill-opacity: 0.15"/>
    <path d="M 262.429218 172.697673 
L 282.709333 167.042436 
L 270.599672 157.401406 
L 250.452887 162.944053 
z
" clip-path="url(#p0e7116baa4)" style="fill: #fde725; fill-opacity: 0.15"/>
    <path d="M 168.93221 248.466453 
L 189.172231 215.827819 
L 177.637449 188.567694 
L 157.442077 218.187616 
z
" clip-path="url(#p0e7116baa4)" style="fill: #22a884; fill-opacity: 0.15"/>
    <path d="M 189.172231 215.827819 
L 209.555725 185.256941 
L 198.132767 175.397049 
L 177.637449 188.567694 
z
" clip-path="url(#p0e7116baa4)" style="fill: #81d34d; fill-opacity: 0.15"/>
    <path d="M 348.053528 175.344824 
L 367.889079 169.658836 
L 354.894961 159.965797 
L 335.18349 165.53828 
z
" clip-path="url(#p0e7116baa4)" style="fill: #fde725; fill-opacity: 0.15"/>
    <path d="M 180.502103 278.955474 
L 200.847457 246.295113 
L 189.172231 215.827819 
L 168.93221 248.466453 
z
" clip-path="url(#p0e7116baa4)" style="fill: #29798e; fill-opacity: 0.15"/>
    <path d="M 295.065517 176.879733 
L 315.241695 171.175876 
L 302.754855 161.452617 
L 282.709333 167.042436 
z
" clip-path="url(#p0e7116baa4)" style="fill: #fde725; fill-opacity: 0.15"/>
    <path d="M 241.906749 181.9013 
L 262.429218 172.697673 
L 250.452887 162.944053 
L 230.081018 172.009069 
z
" clip-path="url(#p0e7116baa4)" style="fill: #f4e61e; fill-opacity: 0.15"/>
    <path d="M 200.847457 246.295113 
L 221.315826 213.437275 
L 209.555725 185.256941 
L 189.172231 215.827819 
z
" clip-path="url(#p0e7116baa4)" style="fill: #37b878; fill-opacity: 0.15"/>
    <path d="M 192.152589 309.656874 
L 212.604255 276.975276 
L 200.847457 246.295113 
L 180.502103 278.955474 
z
" clip-path="url(#p0e7116baa4)" style="fill: #414487; fill-opacity: 0.15"/>
    <path d="M 221.315826 213.437275 
L 241.906749 181.9013 
L 230.081018 172.009069 
L 209.555725 185.256941 
z
" clip-path="url(#p0e7116baa4)" style="fill: #b2dd2d; fill-opacity: 0.15"/>
    <path d="M 327.983835 181.097931 
L 348.053528 175.344824 
L 335.18349 165.53828 
L 315.241695 171.175876 
z
" clip-path="url(#p0e7116baa4)" style="fill: #fde725; fill-opacity: 0.15"/>
    <path d="M 274.650799 182.651026 
L 295.065517 176.879733 
L 282.709333 167.042436 
L 262.429218 172.697673 
z
" clip-path="url(#p0e7116baa4)" style="fill: #fde725; fill-opacity: 0.15"/>
    <path d="M 212.604255 276.975276 
L 233.180014 244.095381 
L 221.315826 213.437275 
L 200.847457 246.295113 
z
" clip-path="url(#p0e7116baa4)" style="fill: #238a8d; fill-opacity: 0.15"/>
    <path d="M 203.884513 340.57288 
L 224.443485 307.870548 
L 212.604255 276.975276 
L 192.152589 309.656874 
z
" clip-path="url(#p0e7116baa4)" style="fill: #440154; fill-opacity: 0.15"/>
    <path d="M 233.180014 244.095381 
L 253.880996 211.015378 
L 241.906749 181.9013 
L 221.315826 213.437275 
z
" clip-path="url(#p0e7116baa4)" style="fill: #58c765; fill-opacity: 0.15"/>
    <path d="M 253.880996 211.015378 
L 274.650799 182.651026 
L 262.429218 172.697673 
L 241.906749 181.9013 
z
" clip-path="url(#p0e7116baa4)" style="fill: #d5e21a; fill-opacity: 0.15"/>
    <path d="M 224.443485 307.870548 
L 245.127638 274.969095 
L 233.180014 244.095381 
L 212.604255 276.975276 
z
" clip-path="url(#p0e7116baa4)" style="fill: #38588c; fill-opacity: 0.15"/>
    <path d="M 307.675828 186.919351 
L 327.983835 181.097931 
L 315.241695 171.175876 
L 295.065517 176.879733 
z
" clip-path="url(#p0e7116baa4)" style="fill: #fde725; fill-opacity: 0.15"/>
    <path d="M 245.127638 274.969095 
L 265.93812 241.866696 
L 253.880996 211.015378 
L 233.180014 244.095381 
z
" clip-path="url(#p0e7116baa4)" style="fill: #1f9a8a; fill-opacity: 0.15"/>
    <path d="M 286.87609 208.561507 
L 307.675828 186.919351 
L 295.065517 176.879733 
L 274.650799 182.651026 
z
" clip-path="url(#p0e7116baa4)" style="fill: #e7e419; fill-opacity: 0.15"/>
    <path d="M 265.93812 241.866696 
L 286.87609 208.561507 
L 274.650799 182.651026 
L 253.880996 211.015378 
z
" clip-path="url(#p0e7116baa4)" style="fill: #7ad151; fill-opacity: 0.15"/>
   </g>
   <g id="Line3DCollection_4">
    <path d="M 203.884513 340.57288 
L 224.443485 307.870548 
L 245.127638 274.969095 
L 265.93812 241.866696 
L 286.87609 208.561507 
L 307.675828 186.919351 
L 327.983835 181.097931 
L 348.053528 175.344824 
L 367.889079 169.658836 
" clip-path="url(#p0e7116baa4)" style="fill: none; stroke: #000000; stroke-opacity: 0.15; stroke-width: 1.5"/>
    <path d="M 192.152589 309.656874 
L 212.604255 276.975276 
L 233.180014 244.095381 
L 253.880996 211.015378 
L 274.650799 182.651026 
L 295.065517 176.879733 
L 315.241695 171.175876 
L 335.18349 165.53828 
L 354.894961 159.965797 
" clip-path="url(#p0e7116baa4)" style="fill: none; stroke: #000000; stroke-opacity: 0.15; stroke-width: 1.5"/>
    <path d="M 180.502103 278.955474 
L 200.847457 246.295113 
L 221.315826 213.437275 
L 241.906749 181.9013 
L 262.429218 172.697673 
L 282.709333 167.042436 
L 302.754855 161.452617 
L 322.56983 155.927087 
L 342.158213 150.464744 
" clip-path="url(#p0e7116baa4)" style="fill: none; stroke: #000000; stroke-opacity: 0.15; stroke-width: 1.5"/>
    <path d="M 168.93221 248.466453 
L 189.172231 215.827819 
L 209.555725 185.256941 
L 230.081018 172.009069 
L 250.452887 162.944053 
L 270.599672 157.401406 
L 290.515717 151.922239 
L 310.204963 146.505467 
L 329.671263 141.150031 
" clip-path="url(#p0e7116baa4)" style="fill: none; stroke: #000000; stroke-opacity: 0.15; stroke-width: 1.5"/>
    <path d="M 157.442077 218.187616 
L 177.637449 188.567694 
L 198.132767 175.397049 
L 218.491328 162.314286 
L 238.714496 153.384213 
L 258.729227 147.950828 
L 278.516982 142.579059 
L 298.081601 137.267865 
L 317.426835 132.016227 
" clip-path="url(#p0e7116baa4)" style="fill: none; stroke: #000000; stroke-opacity: 0.15; stroke-width: 1.5"/>
    <path d="M 146.143294 191.834455 
L 166.607625 178.74016 
L 186.936307 165.732661 
L 207.130683 152.811099 
L 227.207025 144.012436 
L 247.090981 138.685113 
L 266.751638 133.417615 
L 286.192736 128.208943 
L 305.417931 123.058115 
" clip-path="url(#p0e7116baa4)" style="fill: none; stroke: #000000; stroke-opacity: 0.15; stroke-width: 1.5"/>
    <path d="M 135.497241 182.039287 
L 155.79507 169.10621 
L 175.959673 156.25802 
L 195.992358 143.493884 
L 215.923724 134.823227 
L 235.678187 129.598889 
L 255.21294 124.432656 
L 274.531629 119.323565 
L 293.63782 114.270672 
" clip-path="url(#p0e7116baa4)" style="fill: none; stroke: #000000; stroke-opacity: 0.15; stroke-width: 1.5"/>
    <path d="M 125.059531 172.43581 
L 145.193425 159.660182 
L 165.196455 146.967592 
L 185.069892 134.357233 
L 204.858108 125.8113 
L 224.484355 120.686991 
L 243.894401 115.619131 
L 263.091799 110.606792 
L 282.080025 105.649067 
" clip-path="url(#p0e7116baa4)" style="fill: none; stroke: #000000; stroke-opacity: 0.15; stroke-width: 1.5"/>
    <path d="M 114.824107 163.018451 
L 134.79658 150.39663 
L 154.640488 137.856057 
L 174.357068 125.395949 
L 194.003937 116.971577 
L 213.503245 111.944451 
L 232.78978 106.972179 
L 251.867006 102.05387 
L 270.738313 97.188649 
" clip-path="url(#p0e7116baa4)" style="fill: none; stroke: #000000; stroke-opacity: 0.15; stroke-width: 1.5"/>
    <path d="M 203.884513 340.57288 
L 192.152589 309.656874 
L 180.502103 278.955474 
L 168.93221 248.466453 
L 157.442077 218.187616 
L 146.143294 191.834455 
L 135.497241 182.039287 
L 125.059531 172.43581 
L 114.824107 163.018451 
" clip-path="url(#p0e7116baa4)" style="fill: none; stroke: #000000; stroke-opacity: 0.15; stroke-width: 1.5"/>
    <path d="M 224.443485 307.870548 
L 212.604255 276.975276 
L 200.847457 246.295113 
L 189.172231 215.827819 
L 177.637449 188.567694 
L 166.607625 178.74016 
L 155.79507 169.10621 
L 145.193425 159.660182 
L 134.79658 150.39663 
" clip-path="url(#p0e7116baa4)" style="fill: none; stroke: #000000; stroke-opacity: 0.15; stroke-width: 1.5"/>
    <path d="M 245.127638 274.969095 
L 233.180014 244.095381 
L 221.315826 213.437275 
L 209.555725 185.256941 
L 198.132767 175.397049 
L 186.936307 165.732661 
L 175.959673 156.25802 
L 165.196455 146.967592 
L 154.640488 137.856057 
" clip-path="url(#p0e7116baa4)" style="fill: none; stroke: #000000; stroke-opacity: 0.15; stroke-width: 1.5"/>
    <path d="M 265.93812 241.866696 
L 253.880996 211.015378 
L 241.906749 181.9013 
L 230.081018 172.009069 
L 218.491328 162.314286 
L 207.130683 152.811099 
L 195.992358 143.493884 
L 185.069892 134.357233 
L 174.357068 125.395949 
" clip-path="url(#p0e7116baa4)" style="fill: none; stroke: #000000; stroke-opacity: 0.15; stroke-width: 1.5"/>
    <path d="M 286.87609 208.561507 
L 274.650799 182.651026 
L 262.429218 172.697673 
L 250.452887 162.944053 
L 238.714496 153.384213 
L 227.207025 144.012436 
L 215.923724 134.823227 
L 204.858108 125.8113 
L 194.003937 116.971577 
" clip-path="url(#p0e7116baa4)" style="fill: none; stroke: #000000; stroke-opacity: 0.15; stroke-width: 1.5"/>
    <path d="M 307.675828 186.919351 
L 295.065517 176.879733 
L 282.709333 167.042436 
L 270.599672 157.401406 
L 258.729227 147.950828 
L 247.090981 138.685113 
L 235.678187 129.598889 
L 224.484355 120.686991 
L 213.503245 111.944451 
" clip-path="url(#p0e7116baa4)" style="fill: none; stroke: #000000; stroke-opacity: 0.15; stroke-width: 1.5"/>
    <path d="M 327.983835 181.097931 
L 315.241695 171.175876 
L 302.754855 161.452617 
L 290.515717 151.922239 
L 278.516982 142.579059 
L 266.751638 133.417615 
L 255.21294 124.432656 
L 243.894401 115.619131 
L 232.78978 106.972179 
" clip-path="url(#p0e7116baa4)" style="fill: none; stroke: #000000; stroke-opacity: 0.15; stroke-width: 1.5"/>
    <path d="M 348.053528 175.344824 
L 335.18349 165.53828 
L 322.56983 155.927087 
L 310.204963 146.505467 
L 298.081601 137.267865 
L 286.192736 128.208943 
L 274.531629 119.323565 
L 263.091799 110.606792 
L 251.867006 102.05387 
" clip-path="url(#p0e7116baa4)" style="fill: none; stroke: #000000; stroke-opacity: 0.15; stroke-width: 1.5"/>
    <path d="M 367.889079 169.658836 
L 354.894961 159.965797 
L 342.158213 150.464744 
L 329.671263 141.150031 
L 317.426835 132.016227 
L 305.417931 123.058115 
L 293.63782 114.270672 
L 282.080025 105.649067 
L 270.738313 97.188649 
" clip-path="url(#p0e7116baa4)" style="fill: none; stroke: #000000; stroke-opacity: 0.15; stroke-width: 1.5"/>
   </g>
   <g id="Path3DCollection_81">
    <g clip-path="url(#p0e7116baa4)">
     <use xlink:href="#mef2a1a6f67" x="286.87609" y="208.561507" style="fill: #98fb98; stroke: #98fb98"/>
    </g>
   </g>
  </g>
  <g id="patch_6">
   <path d="M 437.236364 258.741818 
L 518.4 258.741818 
L 518.4 177.578182 
L 437.236364 177.578182 
z
" style="fill: #ffffff"/>
  </g>
  <g id="axes_2">
   <g id="text_30">
    <!-- Normaler Preis -->
    <g transform="translate(433.714432 117.578182) scale(0.12 -0.12)">
     <defs>
      <path id="DejaVuSans-4e" d="M 628 4666 
L 1478 4666 
L 3547 763 
L 3547 4666 
L 4159 4666 
L 4159 0 
L 3309 0 
L 1241 3903 
L 1241 0 
L 628 0 
L 628 4666 
z
" transform="scale(0.015625)"/>
     </defs>
     <use xlink:href="#DejaVuSans-4e"/>
     <use xlink:href="#DejaVuSans-6f" x="74.804688"/>
     <use xlink:href="#DejaVuSans-72" x="135.986328"/>
     <use xlink:href="#DejaVuSans-6d" x="175.349609"/>
     <use xlink:href="#DejaVuSans-61" x="272.761719"/>
     <use xlink:href="#DejaVuSans-6c" x="334.041016"/>
     <use xlink:href="#DejaVuSans-65" x="361.824219"/>
     <use xlink:href="#DejaVuSans-72" x="423.347656"/>
     <use xlink:href="#DejaVuSans-20" x="464.460938"/>
     <use xlink:href="#DejaVuSans-50" x="496.248047"/>
     <use xlink:href="#DejaVuSans-72" x="554.800781"/>
     <use xlink:href="#DejaVuSans-65" x="593.664062"/>
     <use xlink:href="#DejaVuSans-69" x="655.1875"/>
     <use xlink:href="#DejaVuSans-73" x="682.970703"/>
    </g>
   </g>
   <g id="legend_1">
    <g id="patch_7">
     <path d="M 409.573651 293.050625 
L 546.062713 293.050625 
Q 548.062713 293.050625 548.062713 291.050625 
L 548.062713 145.269375 
Q 548.062713 143.269375 546.062713 143.269375 
L 409.573651 143.269375 
Q 407.573651 143.269375 407.573651 145.269375 
L 407.573651 291.050625 
Q 407.573651 293.050625 409.573651 293.050625 
z
" style="fill: #ffffff; opacity: 0.8; stroke: #cccccc; stroke-linejoin: miter"/>
    </g>
    <g id="Path3DCollection_82">
     <g>
      <use xlink:href="#mef21bf92a5" x="421.573651" y="152.242813" style="stroke: #000000"/>
     </g>
    </g>
    <g id="text_31">
     <!-- Tagesk. B; Tagesk. K -->
     <g transform="translate(439.573651 154.867813) scale(0.1 -0.1)">
      <defs>
       <path id="DejaVuSans-6b" d="M 581 4863 
L 1159 4863 
L 1159 1991 
L 2875 3500 
L 3609 3500 
L 1753 1863 
L 3688 0 
L 2938 0 
L 1159 1709 
L 1159 0 
L 581 0 
L 581 4863 
z
" transform="scale(0.015625)"/>
       <path id="DejaVuSans-2e" d="M 684 794 
L 1344 794 
L 1344 0 
L 684 0 
L 684 794 
z
" transform="scale(0.015625)"/>
       <path id="DejaVuSans-3b" d="M 750 3309 
L 1409 3309 
L 1409 2516 
L 750 2516 
L 750 3309 
z
M 750 794 
L 1409 794 
L 1409 256 
L 897 -744 
L 494 -744 
L 750 256 
L 750 794 
z
" transform="scale(0.015625)"/>
      </defs>
      <use xlink:href="#DejaVuSans-54"/>
      <use xlink:href="#DejaVuSans-61" x="44.583984"/>
      <use xlink:href="#DejaVuSans-67" x="105.863281"/>
      <use xlink:href="#DejaVuSans-65" x="169.339844"/>
      <use xlink:href="#DejaVuSans-73" x="230.863281"/>
      <use xlink:href="#DejaVuSans-6b" x="282.962891"/>
      <use xlink:href="#DejaVuSans-2e" x="340.873047"/>
      <use xlink:href="#DejaVuSans-20" x="372.660156"/>
      <use xlink:href="#DejaVuSans-42" x="404.447266"/>
      <use xlink:href="#DejaVuSans-3b" x="473.050781"/>
      <use xlink:href="#DejaVuSans-20" x="506.742188"/>
      <use xlink:href="#DejaVuSans-54" x="538.529297"/>
      <use xlink:href="#DejaVuSans-61" x="583.113281"/>
      <use xlink:href="#DejaVuSans-67" x="644.392578"/>
      <use xlink:href="#DejaVuSans-65" x="707.869141"/>
      <use xlink:href="#DejaVuSans-73" x="769.392578"/>
      <use xlink:href="#DejaVuSans-6b" x="821.492188"/>
      <use xlink:href="#DejaVuSans-2e" x="879.402344"/>
      <use xlink:href="#DejaVuSans-20" x="911.189453"/>
      <use xlink:href="#DejaVuSans-4b" x="942.976562"/>
     </g>
    </g>
    <g id="Path3DCollection_83">
     <g>
      <use xlink:href="#mef2a1a6f67" x="421.573651" y="166.920938" style="fill: #98fb98; stroke: #98fb98"/>
     </g>
    </g>
    <g id="text_32">
     <!-- Tagesk. B; 10er K -->
     <g transform="translate(439.573651 169.545938) scale(0.1 -0.1)">
      <use xlink:href="#DejaVuSans-54"/>
      <use xlink:href="#DejaVuSans-61" x="44.583984"/>
      <use xlink:href="#DejaVuSans-67" x="105.863281"/>
      <use xlink:href="#DejaVuSans-65" x="169.339844"/>
      <use xlink:href="#DejaVuSans-73" x="230.863281"/>
      <use xlink:href="#DejaVuSans-6b" x="282.962891"/>
      <use xlink:href="#DejaVuSans-2e" x="340.873047"/>
      <use xlink:href="#DejaVuSans-20" x="372.660156"/>
      <use xlink:href="#DejaVuSans-42" x="404.447266"/>
      <use xlink:href="#DejaVuSans-3b" x="473.050781"/>
      <use xlink:href="#DejaVuSans-20" x="506.742188"/>
      <use xlink:href="#DejaVuSans-31" x="538.529297"/>
      <use xlink:href="#DejaVuSans-30" x="602.152344"/>
      <use xlink:href="#DejaVuSans-65" x="665.775391"/>
      <use xlink:href="#DejaVuSans-72" x="727.298828"/>
      <use xlink:href="#DejaVuSans-20" x="768.412109"/>
      <use xlink:href="#DejaVuSans-4b" x="800.199219"/>
     </g>
    </g>
    <g id="Path3DCollection_84">
     <g>
      <use xlink:href="#ma8a899b9a6" x="421.573651" y="181.599063" style="fill: #4169e1; stroke: #4169e1"/>
     </g>
    </g>
    <g id="text_33">
     <!-- Jahresk. K -->
     <g transform="translate(439.573651 184.224063) scale(0.1 -0.1)">
      <defs>
       <path id="DejaVuSans-4a" d="M 628 4666 
L 1259 4666 
L 1259 325 
Q 1259 -519 939 -900 
Q 619 -1281 -91 -1281 
L -331 -1281 
L -331 -750 
L -134 -750 
Q 284 -750 456 -515 
Q 628 -281 628 325 
L 628 4666 
z
" transform="scale(0.015625)"/>
       <path id="DejaVuSans-68" d="M 3513 2113 
L 3513 0 
L 2938 0 
L 2938 2094 
Q 2938 2591 2744 2837 
Q 2550 3084 2163 3084 
Q 1697 3084 1428 2787 
Q 1159 2491 1159 1978 
L 1159 0 
L 581 0 
L 581 4863 
L 1159 4863 
L 1159 2956 
Q 1366 3272 1645 3428 
Q 1925 3584 2291 3584 
Q 2894 3584 3203 3211 
Q 3513 2838 3513 2113 
z
" transform="scale(0.015625)"/>
      </defs>
      <use xlink:href="#DejaVuSans-4a"/>
      <use xlink:href="#DejaVuSans-61" x="29.492188"/>
      <use xlink:href="#DejaVuSans-68" x="90.771484"/>
      <use xlink:href="#DejaVuSans-72" x="154.150391"/>
      <use xlink:href="#DejaVuSans-65" x="193.013672"/>
      <use xlink:href="#DejaVuSans-73" x="254.537109"/>
      <use xlink:href="#DejaVuSans-6b" x="306.636719"/>
      <use xlink:href="#DejaVuSans-2e" x="364.546875"/>
      <use xlink:href="#DejaVuSans-20" x="396.333984"/>
      <use xlink:href="#DejaVuSans-4b" x="428.121094"/>
     </g>
    </g>
    <g id="Path3DCollection_85">
     <g>
      <use xlink:href="#m9a900b0ed3" x="421.573651" y="196.277188" style="fill: #808080; stroke: #808080"/>
     </g>
    </g>
    <g id="text_34">
     <!-- 10er B; +4 K -->
     <g transform="translate(439.573651 198.902188) scale(0.1 -0.1)">
      <defs>
       <path id="DejaVuSans-2b" d="M 2944 4013 
L 2944 2272 
L 4684 2272 
L 4684 1741 
L 2944 1741 
L 2944 0 
L 2419 0 
L 2419 1741 
L 678 1741 
L 678 2272 
L 2419 2272 
L 2419 4013 
L 2944 4013 
z
" transform="scale(0.015625)"/>
       <path id="DejaVuSans-20ac" d="M 3647 4306 
L 3647 3641 
Q 3363 3969 3098 4109 
Q 2834 4250 2516 4250 
Q 2025 4250 1709 3937 
Q 1394 3625 1294 3041 
L 3097 3041 
L 2925 2656 
L 1244 2656 
Q 1238 2581 1236 2509 
Q 1234 2438 1234 2328 
Q 1234 2228 1236 2156 
Q 1238 2084 1244 2009 
L 2638 2009 
L 2463 1625 
L 1294 1625 
Q 1394 1041 1709 725 
Q 2025 409 2516 409 
Q 2834 409 3098 550 
Q 3363 691 3647 1019 
L 3647 359 
Q 3369 134 3080 21 
Q 2791 -91 2491 -91 
Q 1750 -91 1267 362 
Q 784 816 659 1625 
L 0 1625 
L 172 2009 
L 606 2009 
Q 606 2081 604 2154 
Q 603 2228 603 2328 
Q 603 2438 604 2511 
Q 606 2584 606 2656 
L 0 2656 
L 172 3041 
L 659 3041 
Q 784 3844 1268 4297 
Q 1753 4750 2491 4750 
Q 2797 4750 3086 4639 
Q 3375 4528 3647 4306 
z
" transform="scale(0.015625)"/>
      </defs>
      <use xlink:href="#DejaVuSans-31"/>
      <use xlink:href="#DejaVuSans-30" x="63.623047"/>
      <use xlink:href="#DejaVuSans-65" x="127.246094"/>
      <use xlink:href="#DejaVuSans-72" x="188.769531"/>
      <use xlink:href="#DejaVuSans-20" x="229.882812"/>
      <use xlink:href="#DejaVuSans-42" x="261.669922"/>
      <use xlink:href="#DejaVuSans-3b" x="330.273438"/>
      <use xlink:href="#DejaVuSans-20" x="363.964844"/>
      <use xlink:href="#DejaVuSans-2b" x="395.751953"/>
      <use xlink:href="#DejaVuSans-34" x="479.541016"/>
      <use xlink:href="#DejaVuSans-20ac" x="543.164062"/>
      <use xlink:href="#DejaVuSans-20" x="606.787109"/>
      <use xlink:href="#DejaVuSans-4b" x="638.574219"/>
     </g>
    </g>
    <g id="Path3DCollection_86">
     <g>
      <use xlink:href="#mf2c9aeb5ff" x="421.573651" y="210.955313" style="fill: #006400; stroke: #006400"/>
     </g>
    </g>
    <g id="text_35">
     <!-- 10er B; 10er K -->
     <g transform="translate(439.573651 213.580313) scale(0.1 -0.1)">
      <use xlink:href="#DejaVuSans-31"/>
      <use xlink:href="#DejaVuSans-30" x="63.623047"/>
      <use xlink:href="#DejaVuSans-65" x="127.246094"/>
      <use xlink:href="#DejaVuSans-72" x="188.769531"/>
      <use xlink:href="#DejaVuSans-20" x="229.882812"/>
      <use xlink:href="#DejaVuSans-42" x="261.669922"/>
      <use xlink:href="#DejaVuSans-3b" x="330.273438"/>
      <use xlink:href="#DejaVuSans-20" x="363.964844"/>
      <use xlink:href="#DejaVuSans-31" x="395.751953"/>
      <use xlink:href="#DejaVuSans-30" x="459.375"/>
      <use xlink:href="#DejaVuSans-65" x="522.998047"/>
      <use xlink:href="#DejaVuSans-72" x="584.521484"/>
      <use xlink:href="#DejaVuSans-20" x="625.634766"/>
      <use xlink:href="#DejaVuSans-4b" x="657.421875"/>
     </g>
    </g>
    <g id="Path3DCollection_87">
     <g>
      <use xlink:href="#m68e9150427" x="421.573651" y="225.633438" style="fill: #b22222; stroke: #b22222"/>
     </g>
    </g>
    <g id="text_36">
     <!-- Jahresk. B; +4 K -->
     <g transform="translate(439.573651 228.258438) scale(0.1 -0.1)">
      <use xlink:href="#DejaVuSans-4a"/>
      <use xlink:href="#DejaVuSans-61" x="29.492188"/>
      <use xlink:href="#DejaVuSans-68" x="90.771484"/>
      <use xlink:href="#DejaVuSans-72" x="154.150391"/>
      <use xlink:href="#DejaVuSans-65" x="193.013672"/>
      <use xlink:href="#DejaVuSans-73" x="254.537109"/>
      <use xlink:href="#DejaVuSans-6b" x="306.636719"/>
      <use xlink:href="#DejaVuSans-2e" x="364.546875"/>
      <use xlink:href="#DejaVuSans-20" x="396.333984"/>
      <use xlink:href="#DejaVuSans-42" x="428.121094"/>
      <use xlink:href="#DejaVuSans-3b" x="496.724609"/>
      <use xlink:href="#DejaVuSans-20" x="530.416016"/>
      <use xlink:href="#DejaVuSans-2b" x="562.203125"/>
      <use xlink:href="#DejaVuSans-34" x="645.992188"/>
      <use xlink:href="#DejaVuSans-20ac" x="709.615234"/>
      <use xlink:href="#DejaVuSans-20" x="773.238281"/>
      <use xlink:href="#DejaVuSans-4b" x="805.025391"/>
     </g>
    </g>
    <g id="line2d_30">
     <defs>
      <path id="me9c11e22cf" d="M -2.5 2.5 
L 2.5 -2.5 
M -2.5 -2.5 
L 2.5 2.5 
" style="stroke: #f08080"/>
     </defs>
     <g>
      <use xlink:href="#me9c11e22cf" x="421.573651" y="239.436563" style="fill: #f08080; stroke: #f08080"/>
     </g>
    </g>
    <g id="text_37">
     <!-- (Monatsk. B; +4 K) -->
     <g transform="translate(439.573651 242.936563) scale(0.1 -0.1)">
      <defs>
       <path id="DejaVuSans-28" d="M 1984 4856 
Q 1566 4138 1362 3434 
Q 1159 2731 1159 2009 
Q 1159 1288 1364 580 
Q 1569 -128 1984 -844 
L 1484 -844 
Q 1016 -109 783 600 
Q 550 1309 550 2009 
Q 550 2706 781 3412 
Q 1013 4119 1484 4856 
L 1984 4856 
z
" transform="scale(0.015625)"/>
       <path id="DejaVuSans-29" d="M 513 4856 
L 1013 4856 
Q 1481 4119 1714 3412 
Q 1947 2706 1947 2009 
Q 1947 1309 1714 600 
Q 1481 -109 1013 -844 
L 513 -844 
Q 928 -128 1133 580 
Q 1338 1288 1338 2009 
Q 1338 2731 1133 3434 
Q 928 4138 513 4856 
z
" transform="scale(0.015625)"/>
      </defs>
      <use xlink:href="#DejaVuSans-28"/>
      <use xlink:href="#DejaVuSans-4d" x="39.013672"/>
      <use xlink:href="#DejaVuSans-6f" x="125.292969"/>
      <use xlink:href="#DejaVuSans-6e" x="186.474609"/>
      <use xlink:href="#DejaVuSans-61" x="249.853516"/>
      <use xlink:href="#DejaVuSans-74" x="311.132812"/>
      <use xlink:href="#DejaVuSans-73" x="350.341797"/>
      <use xlink:href="#DejaVuSans-6b" x="402.441406"/>
      <use xlink:href="#DejaVuSans-2e" x="460.351562"/>
      <use xlink:href="#DejaVuSans-20" x="492.138672"/>
      <use xlink:href="#DejaVuSans-42" x="523.925781"/>
      <use xlink:href="#DejaVuSans-3b" x="592.529297"/>
      <use xlink:href="#DejaVuSans-20" x="626.220703"/>
      <use xlink:href="#DejaVuSans-2b" x="658.007812"/>
      <use xlink:href="#DejaVuSans-34" x="741.796875"/>
      <use xlink:href="#DejaVuSans-20ac" x="805.419922"/>
      <use xlink:href="#DejaVuSans-20" x="869.042969"/>
      <use xlink:href="#DejaVuSans-4b" x="900.830078"/>
      <use xlink:href="#DejaVuSans-29" x="966.40625"/>
     </g>
    </g>
    <g id="line2d_31">
     <defs>
      <path id="mb496987a2d" d="M -2.5 2.5 
L 2.5 -2.5 
M -2.5 -2.5 
L 2.5 2.5 
" style="stroke: #ffd700"/>
     </defs>
     <g>
      <use xlink:href="#mb496987a2d" x="421.573651" y="254.114688" style="fill: #ffd700; stroke: #ffd700"/>
     </g>
    </g>
    <g id="text_38">
     <!-- (Jahresabo B; +4 K) -->
     <g transform="translate(439.573651 257.614688) scale(0.1 -0.1)">
      <defs>
       <path id="DejaVuSans-62" d="M 3116 1747 
Q 3116 2381 2855 2742 
Q 2594 3103 2138 3103 
Q 1681 3103 1420 2742 
Q 1159 2381 1159 1747 
Q 1159 1113 1420 752 
Q 1681 391 2138 391 
Q 2594 391 2855 752 
Q 3116 1113 3116 1747 
z
M 1159 2969 
Q 1341 3281 1617 3432 
Q 1894 3584 2278 3584 
Q 2916 3584 3314 3078 
Q 3713 2572 3713 1747 
Q 3713 922 3314 415 
Q 2916 -91 2278 -91 
Q 1894 -91 1617 61 
Q 1341 213 1159 525 
L 1159 0 
L 581 0 
L 581 4863 
L 1159 4863 
L 1159 2969 
z
" transform="scale(0.015625)"/>
      </defs>
      <use xlink:href="#DejaVuSans-28"/>
      <use xlink:href="#DejaVuSans-4a" x="39.013672"/>
      <use xlink:href="#DejaVuSans-61" x="68.505859"/>
      <use xlink:href="#DejaVuSans-68" x="129.785156"/>
      <use xlink:href="#DejaVuSans-72" x="193.164062"/>
      <use xlink:href="#DejaVuSans-65" x="232.027344"/>
      <use xlink:href="#DejaVuSans-73" x="293.550781"/>
      <use xlink:href="#DejaVuSans-61" x="345.650391"/>
      <use xlink:href="#DejaVuSans-62" x="406.929688"/>
      <use xlink:href="#DejaVuSans-6f" x="470.40625"/>
      <use xlink:href="#DejaVuSans-20" x="531.587891"/>
      <use xlink:href="#DejaVuSans-42" x="563.375"/>
      <use xlink:href="#DejaVuSans-3b" x="631.978516"/>
      <use xlink:href="#DejaVuSans-20" x="665.669922"/>
      <use xlink:href="#DejaVuSans-2b" x="697.457031"/>
      <use xlink:href="#DejaVuSans-34" x="781.246094"/>
      <use xlink:href="#DejaVuSans-20ac" x="844.869141"/>
      <use xlink:href="#DejaVuSans-20" x="908.492188"/>
      <use xlink:href="#DejaVuSans-4b" x="940.279297"/>
      <use xlink:href="#DejaVuSans-29" x="1005.855469"/>
     </g>
    </g>
    <g id="line2d_32">
     <defs>
      <path id="m3979209aa8" d="M -2.5 2.5 
L 2.5 -2.5 
M -2.5 -2.5 
L 2.5 2.5 
" style="stroke: #008080"/>
     </defs>
     <g>
      <use xlink:href="#m3979209aa8" x="421.573651" y="268.792813" style="fill: #008080; stroke: #008080"/>
     </g>
    </g>
    <g id="text_39">
     <!-- (Monatsk. K) -->
     <g transform="translate(439.573651 272.292813) scale(0.1 -0.1)">
      <use xlink:href="#DejaVuSans-28"/>
      <use xlink:href="#DejaVuSans-4d" x="39.013672"/>
      <use xlink:href="#DejaVuSans-6f" x="125.292969"/>
      <use xlink:href="#DejaVuSans-6e" x="186.474609"/>
      <use xlink:href="#DejaVuSans-61" x="249.853516"/>
      <use xlink:href="#DejaVuSans-74" x="311.132812"/>
      <use xlink:href="#DejaVuSans-73" x="350.341797"/>
      <use xlink:href="#DejaVuSans-6b" x="402.441406"/>
      <use xlink:href="#DejaVuSans-2e" x="460.351562"/>
      <use xlink:href="#DejaVuSans-20" x="492.138672"/>
      <use xlink:href="#DejaVuSans-4b" x="523.925781"/>
      <use xlink:href="#DejaVuSans-29" x="589.501953"/>
     </g>
    </g>
    <g id="line2d_33">
     <defs>
      <path id="mcd75a480e2" d="M -2.5 2.5 
L 2.5 -2.5 
M -2.5 -2.5 
L 2.5 2.5 
" style="stroke: #ff00ff"/>
     </defs>
     <g>
      <use xlink:href="#mcd75a480e2" x="421.573651" y="283.470937" style="fill: #ff00ff; stroke: #ff00ff"/>
     </g>
    </g>
    <g id="text_40">
     <!-- (Jahresabo K.) -->
     <g transform="translate(439.573651 286.970937) scale(0.1 -0.1)">
      <use xlink:href="#DejaVuSans-28"/>
      <use xlink:href="#DejaVuSans-4a" x="39.013672"/>
      <use xlink:href="#DejaVuSans-61" x="68.505859"/>
      <use xlink:href="#DejaVuSans-68" x="129.785156"/>
      <use xlink:href="#DejaVuSans-72" x="193.164062"/>
      <use xlink:href="#DejaVuSans-65" x="232.027344"/>
      <use xlink:href="#DejaVuSans-73" x="293.550781"/>
      <use xlink:href="#DejaVuSans-61" x="345.650391"/>
      <use xlink:href="#DejaVuSans-62" x="406.929688"/>
      <use xlink:href="#DejaVuSans-6f" x="470.40625"/>
      <use xlink:href="#DejaVuSans-20" x="531.587891"/>
      <use xlink:href="#DejaVuSans-4b" x="563.375"/>
      <use xlink:href="#DejaVuSans-2e" x="628.951172"/>
      <use xlink:href="#DejaVuSans-29" x="660.738281"/>
     </g>
    </g>
   </g>
  </g>
 </g>
 <defs>
  <clipPath id="p0e7116baa4">
   <rect x="72" y="55.832727" width="324.654545" height="324.654545"/>
  </clipPath>
 </defs>
</svg>
