<?xml version="1.0" encoding="utf-8" standalone="no"?>
<!DOCTYPE svg PUBLIC "-//W3C//DTD SVG 1.1//EN"
  "http://www.w3.org/Graphics/SVG/1.1/DTD/svg11.dtd">
<svg xmlns:xlink="http://www.w3.org/1999/xlink" width="576pt" height="432pt" viewBox="0 0 576 432" xmlns="http://www.w3.org/2000/svg" version="1.1">
 <metadata>
  <rdf:RDF xmlns:dc="http://purl.org/dc/elements/1.1/" xmlns:cc="http://creativecommons.org/ns#" xmlns:rdf="http://www.w3.org/1999/02/22-rdf-syntax-ns#">
   <cc:Work>
    <dc:type rdf:resource="http://purl.org/dc/dcmitype/StillImage"/>
    <dc:date>2024-11-01T19:54:58.587828</dc:date>
    <dc:format>image/svg+xml</dc:format>
    <dc:creator>
     <cc:Agent>
      <dc:title>Matplotlib v3.7.1, https://matplotlib.org/</dc:title>
     </cc:Agent>
    </dc:creator>
   </cc:Work>
  </rdf:RDF>
 </metadata>
 <defs>
  <style type="text/css">*{stroke-linejoin: round; stroke-linecap: butt}</style>
 </defs>
 <g id="figure_1">
  <g id="patch_1">
   <path d="M 0 432 
L 576 432 
L 576 0 
L 0 0 
z
" style="fill: #ffffff"/>
  </g>
  <g id="patch_2">
   <path d="M 72 377.247273 
L 396.654545 377.247273 
L 396.654545 52.592727 
L 72 52.592727 
z
" style="fill: #ffffff"/>
  </g>
  <g id="pane3d_1">
   <g id="patch_3">
    <path d="M 380.915336 297.197866 
L 273.703802 207.331033 
L 275.194145 77.726994 
L 387.536303 159.709184 
" style="fill: #f2f2f2; opacity: 0.5; stroke: #f2f2f2; stroke-linejoin: miter"/>
   </g>
  </g>
  <g id="pane3d_2">
   <g id="patch_4">
    <path d="M 101.667544 257.335181 
L 273.703802 207.331033 
L 275.194145 77.726994 
L 95.528176 123.26708 
" style="fill: #e6e6e6; opacity: 0.5; stroke: #e6e6e6; stroke-linejoin: miter"/>
   </g>
  </g>
  <g id="pane3d_3">
   <g id="patch_5">
    <path d="M 198.548499 356.758875 
L 380.915336 297.197866 
L 273.703802 207.331033 
L 101.667544 257.335181 
" style="fill: #ececec; opacity: 0.5; stroke: #ececec; stroke-linejoin: miter"/>
   </g>
  </g>
  <g id="axis3d_1">
   <g id="line2d_1">
    <path d="M 380.915336 297.197866 
L 198.548499 356.758875 
" style="fill: none; stroke: #000000; stroke-width: 0.8; stroke-linecap: square"/>
   </g>
   <g id="text_1">
    <!-- Kletter Tage -->
    <g transform="translate(275.579342 362.005441) rotate(-18.087038) scale(0.1 -0.1)">
     <defs>
      <path id="DejaVuSans-4b" d="M 628 4666 
L 1259 4666 
L 1259 2694 
L 3353 4666 
L 4166 4666 
L 1850 2491 
L 4331 0 
L 3500 0 
L 1259 2247 
L 1259 0 
L 628 0 
L 628 4666 
z
" transform="scale(0.015625)"/>
      <path id="DejaVuSans-6c" d="M 603 4863 
L 1178 4863 
L 1178 0 
L 603 0 
L 603 4863 
z
" transform="scale(0.015625)"/>
      <path id="DejaVuSans-65" d="M 3597 1894 
L 3597 1613 
L 953 1613 
Q 991 1019 1311 708 
Q 1631 397 2203 397 
Q 2534 397 2845 478 
Q 3156 559 3463 722 
L 3463 178 
Q 3153 47 2828 -22 
Q 2503 -91 2169 -91 
Q 1331 -91 842 396 
Q 353 884 353 1716 
Q 353 2575 817 3079 
Q 1281 3584 2069 3584 
Q 2775 3584 3186 3129 
Q 3597 2675 3597 1894 
z
M 3022 2063 
Q 3016 2534 2758 2815 
Q 2500 3097 2075 3097 
Q 1594 3097 1305 2825 
Q 1016 2553 972 2059 
L 3022 2063 
z
" transform="scale(0.015625)"/>
      <path id="DejaVuSans-74" d="M 1172 4494 
L 1172 3500 
L 2356 3500 
L 2356 3053 
L 1172 3053 
L 1172 1153 
Q 1172 725 1289 603 
Q 1406 481 1766 481 
L 2356 481 
L 2356 0 
L 1766 0 
Q 1100 0 847 248 
Q 594 497 594 1153 
L 594 3053 
L 172 3053 
L 172 3500 
L 594 3500 
L 594 4494 
L 1172 4494 
z
" transform="scale(0.015625)"/>
      <path id="DejaVuSans-72" d="M 2631 2963 
Q 2534 3019 2420 3045 
Q 2306 3072 2169 3072 
Q 1681 3072 1420 2755 
Q 1159 2438 1159 1844 
L 1159 0 
L 581 0 
L 581 3500 
L 1159 3500 
L 1159 2956 
Q 1341 3275 1631 3429 
Q 1922 3584 2338 3584 
Q 2397 3584 2469 3576 
Q 2541 3569 2628 3553 
L 2631 2963 
z
" transform="scale(0.015625)"/>
      <path id="DejaVuSans-20" transform="scale(0.015625)"/>
      <path id="DejaVuSans-54" d="M -19 4666 
L 3928 4666 
L 3928 4134 
L 2272 4134 
L 2272 0 
L 1638 0 
L 1638 4134 
L -19 4134 
L -19 4666 
z
" transform="scale(0.015625)"/>
      <path id="DejaVuSans-61" d="M 2194 1759 
Q 1497 1759 1228 1600 
Q 959 1441 959 1056 
Q 959 750 1161 570 
Q 1363 391 1709 391 
Q 2188 391 2477 730 
Q 2766 1069 2766 1631 
L 2766 1759 
L 2194 1759 
z
M 3341 1997 
L 3341 0 
L 2766 0 
L 2766 531 
Q 2569 213 2275 61 
Q 1981 -91 1556 -91 
Q 1019 -91 701 211 
Q 384 513 384 1019 
Q 384 1609 779 1909 
Q 1175 2209 1959 2209 
L 2766 2209 
L 2766 2266 
Q 2766 2663 2505 2880 
Q 2244 3097 1772 3097 
Q 1472 3097 1187 3025 
Q 903 2953 641 2809 
L 641 3341 
Q 956 3463 1253 3523 
Q 1550 3584 1831 3584 
Q 2591 3584 2966 3190 
Q 3341 2797 3341 1997 
z
" transform="scale(0.015625)"/>
      <path id="DejaVuSans-67" d="M 2906 1791 
Q 2906 2416 2648 2759 
Q 2391 3103 1925 3103 
Q 1463 3103 1205 2759 
Q 947 2416 947 1791 
Q 947 1169 1205 825 
Q 1463 481 1925 481 
Q 2391 481 2648 825 
Q 2906 1169 2906 1791 
z
M 3481 434 
Q 3481 -459 3084 -895 
Q 2688 -1331 1869 -1331 
Q 1566 -1331 1297 -1286 
Q 1028 -1241 775 -1147 
L 775 -588 
Q 1028 -725 1275 -790 
Q 1522 -856 1778 -856 
Q 2344 -856 2625 -561 
Q 2906 -266 2906 331 
L 2906 616 
Q 2728 306 2450 153 
Q 2172 0 1784 0 
Q 1141 0 747 490 
Q 353 981 353 1791 
Q 353 2603 747 3093 
Q 1141 3584 1784 3584 
Q 2172 3584 2450 3431 
Q 2728 3278 2906 2969 
L 2906 3500 
L 3481 3500 
L 3481 434 
z
" transform="scale(0.015625)"/>
     </defs>
     <use xlink:href="#DejaVuSans-4b"/>
     <use xlink:href="#DejaVuSans-6c" x="65.576172"/>
     <use xlink:href="#DejaVuSans-65" x="93.359375"/>
     <use xlink:href="#DejaVuSans-74" x="154.882812"/>
     <use xlink:href="#DejaVuSans-74" x="194.091797"/>
     <use xlink:href="#DejaVuSans-65" x="233.300781"/>
     <use xlink:href="#DejaVuSans-72" x="294.824219"/>
     <use xlink:href="#DejaVuSans-20" x="335.9375"/>
     <use xlink:href="#DejaVuSans-54" x="367.724609"/>
     <use xlink:href="#DejaVuSans-61" x="412.308594"/>
     <use xlink:href="#DejaVuSans-67" x="473.587891"/>
     <use xlink:href="#DejaVuSans-65" x="537.064453"/>
    </g>
   </g>
   <g id="Line3DCollection_1">
    <path d="M 210.74011 352.777094 
L 113.121241 254.006043 
L 107.513431 120.229167 
" style="fill: none; stroke: #b0b0b0; stroke-width: 0.8"/>
    <path d="M 231.446332 346.014442 
L 132.589663 248.347342 
L 127.877632 115.067436 
" style="fill: none; stroke: #b0b0b0; stroke-width: 0.8"/>
    <path d="M 251.91158 339.330492 
L 151.850678 242.748925 
L 148.015303 109.963123 
" style="fill: none; stroke: #b0b0b0; stroke-width: 0.8"/>
    <path d="M 272.140037 332.723878 
L 170.907583 237.209835 
L 167.930205 104.915276 
" style="fill: none; stroke: #b0b0b0; stroke-width: 0.8"/>
    <path d="M 292.135788 326.193266 
L 189.763605 231.729134 
L 187.626012 99.922963 
" style="fill: none; stroke: #b0b0b0; stroke-width: 0.8"/>
    <path d="M 311.902827 319.737351 
L 208.421905 226.305903 
L 207.106321 94.985273 
" style="fill: none; stroke: #b0b0b0; stroke-width: 0.8"/>
    <path d="M 331.445054 313.35486 
L 226.885575 220.939243 
L 226.374649 90.101313 
" style="fill: none; stroke: #b0b0b0; stroke-width: 0.8"/>
    <path d="M 350.766283 307.044547 
L 245.157646 215.628273 
L 245.434438 85.270212 
" style="fill: none; stroke: #b0b0b0; stroke-width: 0.8"/>
    <path d="M 369.870243 300.805193 
L 263.241083 210.372132 
L 264.289055 80.491116 
" style="fill: none; stroke: #b0b0b0; stroke-width: 0.8"/>
   </g>
   <g id="xtick_1">
    <g id="line2d_2">
     <path d="M 209.886798 351.913711 
L 212.450569 354.507741 
" style="fill: none; stroke: #000000; stroke-width: 0.8; stroke-linecap: square"/>
    </g>
    <g id="text_2">
     <!-- 0 -->
     <g transform="translate(210.11774 366.140148) scale(0.1 -0.1)">
      <defs>
       <path id="DejaVuSans-30" d="M 2034 4250 
Q 1547 4250 1301 3770 
Q 1056 3291 1056 2328 
Q 1056 1369 1301 889 
Q 1547 409 2034 409 
Q 2525 409 2770 889 
Q 3016 1369 3016 2328 
Q 3016 3291 2770 3770 
Q 2525 4250 2034 4250 
z
M 2034 4750 
Q 2819 4750 3233 4129 
Q 3647 3509 3647 2328 
Q 3647 1150 3233 529 
Q 2819 -91 2034 -91 
Q 1250 -91 836 529 
Q 422 1150 422 2328 
Q 422 3509 836 4129 
Q 1250 4750 2034 4750 
z
" transform="scale(0.015625)"/>
      </defs>
      <use xlink:href="#DejaVuSans-30"/>
     </g>
    </g>
   </g>
   <g id="xtick_2">
    <g id="line2d_3">
     <path d="M 230.582629 345.161132 
L 233.177597 347.724875 
" style="fill: none; stroke: #000000; stroke-width: 0.8; stroke-linecap: square"/>
    </g>
    <g id="text_3">
     <!-- 1 -->
     <g transform="translate(230.831752 359.336278) scale(0.1 -0.1)">
      <defs>
       <path id="DejaVuSans-31" d="M 794 531 
L 1825 531 
L 1825 4091 
L 703 3866 
L 703 4441 
L 1819 4666 
L 2450 4666 
L 2450 531 
L 3481 531 
L 3481 0 
L 794 0 
L 794 531 
z
" transform="scale(0.015625)"/>
      </defs>
      <use xlink:href="#DejaVuSans-31"/>
     </g>
    </g>
   </g>
   <g id="xtick_3">
    <g id="line2d_4">
     <path d="M 251.037784 338.48708 
L 253.663053 341.021063 
" style="fill: none; stroke: #000000; stroke-width: 0.8; stroke-linecap: square"/>
    </g>
    <g id="text_4">
     <!-- 2 -->
     <g transform="translate(251.304437 352.611676) scale(0.1 -0.1)">
      <defs>
       <path id="DejaVuSans-32" d="M 1228 531 
L 3431 531 
L 3431 0 
L 469 0 
L 469 531 
Q 828 903 1448 1529 
Q 2069 2156 2228 2338 
Q 2531 2678 2651 2914 
Q 2772 3150 2772 3378 
Q 2772 3750 2511 3984 
Q 2250 4219 1831 4219 
Q 1534 4219 1204 4116 
Q 875 4013 500 3803 
L 500 4441 
Q 881 4594 1212 4672 
Q 1544 4750 1819 4750 
Q 2544 4750 2975 4387 
Q 3406 4025 3406 3419 
Q 3406 3131 3298 2873 
Q 3191 2616 2906 2266 
Q 2828 2175 2409 1742 
Q 1991 1309 1228 531 
z
" transform="scale(0.015625)"/>
      </defs>
      <use xlink:href="#DejaVuSans-32"/>
     </g>
    </g>
   </g>
   <g id="xtick_4">
    <g id="line2d_5">
     <path d="M 271.256439 331.890193 
L 273.911134 334.39493 
" style="fill: none; stroke: #000000; stroke-width: 0.8; stroke-linecap: square"/>
    </g>
    <g id="text_5">
     <!-- 3 -->
     <g transform="translate(271.539987 345.964965) scale(0.1 -0.1)">
      <defs>
       <path id="DejaVuSans-33" d="M 2597 2516 
Q 3050 2419 3304 2112 
Q 3559 1806 3559 1356 
Q 3559 666 3084 287 
Q 2609 -91 1734 -91 
Q 1441 -91 1130 -33 
Q 819 25 488 141 
L 488 750 
Q 750 597 1062 519 
Q 1375 441 1716 441 
Q 2309 441 2620 675 
Q 2931 909 2931 1356 
Q 2931 1769 2642 2001 
Q 2353 2234 1838 2234 
L 1294 2234 
L 1294 2753 
L 1863 2753 
Q 2328 2753 2575 2939 
Q 2822 3125 2822 3475 
Q 2822 3834 2567 4026 
Q 2313 4219 1838 4219 
Q 1578 4219 1281 4162 
Q 984 4106 628 3988 
L 628 4550 
Q 988 4650 1302 4700 
Q 1616 4750 1894 4750 
Q 2613 4750 3031 4423 
Q 3450 4097 3450 3541 
Q 3450 3153 3228 2886 
Q 3006 2619 2597 2516 
z
" transform="scale(0.015625)"/>
      </defs>
      <use xlink:href="#DejaVuSans-33"/>
     </g>
    </g>
   </g>
   <g id="xtick_5">
    <g id="line2d_6">
     <path d="M 291.242671 325.36914 
L 293.925944 327.845136 
" style="fill: none; stroke: #000000; stroke-width: 0.8; stroke-linecap: square"/>
    </g>
    <g id="text_6">
     <!-- 4 -->
     <g transform="translate(291.542497 339.394799) scale(0.1 -0.1)">
      <defs>
       <path id="DejaVuSans-34" d="M 2419 4116 
L 825 1625 
L 2419 1625 
L 2419 4116 
z
M 2253 4666 
L 3047 4666 
L 3047 1625 
L 3713 1625 
L 3713 1100 
L 3047 1100 
L 3047 0 
L 2419 0 
L 2419 1100 
L 313 1100 
L 313 1709 
L 2253 4666 
z
" transform="scale(0.015625)"/>
      </defs>
      <use xlink:href="#DejaVuSans-34"/>
     </g>
    </g>
   </g>
   <g id="xtick_6">
    <g id="line2d_7">
     <path d="M 311.000465 318.922622 
L 313.711489 321.370367 
" style="fill: none; stroke: #000000; stroke-width: 0.8; stroke-linecap: square"/>
    </g>
    <g id="text_7">
     <!-- 5 -->
     <g transform="translate(311.315972 332.899865) scale(0.1 -0.1)">
      <defs>
       <path id="DejaVuSans-35" d="M 691 4666 
L 3169 4666 
L 3169 4134 
L 1269 4134 
L 1269 2991 
Q 1406 3038 1543 3061 
Q 1681 3084 1819 3084 
Q 2600 3084 3056 2656 
Q 3513 2228 3513 1497 
Q 3513 744 3044 326 
Q 2575 -91 1722 -91 
Q 1428 -91 1123 -41 
Q 819 9 494 109 
L 494 744 
Q 775 591 1075 516 
Q 1375 441 1709 441 
Q 2250 441 2565 725 
Q 2881 1009 2881 1497 
Q 2881 1984 2565 2268 
Q 2250 2553 1709 2553 
Q 1456 2553 1204 2497 
Q 953 2441 691 2322 
L 691 4666 
z
" transform="scale(0.015625)"/>
      </defs>
      <use xlink:href="#DejaVuSans-35"/>
     </g>
    </g>
   </g>
   <g id="xtick_7">
    <g id="line2d_8">
     <path d="M 330.533715 312.549367 
L 333.271688 314.969343 
" style="fill: none; stroke: #000000; stroke-width: 0.8; stroke-linecap: square"/>
    </g>
    <g id="text_8">
     <!-- 6 -->
     <g transform="translate(330.864321 326.478876) scale(0.1 -0.1)">
      <defs>
       <path id="DejaVuSans-36" d="M 2113 2584 
Q 1688 2584 1439 2293 
Q 1191 2003 1191 1497 
Q 1191 994 1439 701 
Q 1688 409 2113 409 
Q 2538 409 2786 701 
Q 3034 994 3034 1497 
Q 3034 2003 2786 2293 
Q 2538 2584 2113 2584 
z
M 3366 4563 
L 3366 3988 
Q 3128 4100 2886 4159 
Q 2644 4219 2406 4219 
Q 1781 4219 1451 3797 
Q 1122 3375 1075 2522 
Q 1259 2794 1537 2939 
Q 1816 3084 2150 3084 
Q 2853 3084 3261 2657 
Q 3669 2231 3669 1497 
Q 3669 778 3244 343 
Q 2819 -91 2113 -91 
Q 1303 -91 875 529 
Q 447 1150 447 2328 
Q 447 3434 972 4092 
Q 1497 4750 2381 4750 
Q 2619 4750 2861 4703 
Q 3103 4656 3366 4563 
z
" transform="scale(0.015625)"/>
      </defs>
      <use xlink:href="#DejaVuSans-36"/>
     </g>
    </g>
   </g>
   <g id="xtick_8">
    <g id="line2d_9">
     <path d="M 349.846227 306.248133 
L 352.610367 308.64081 
" style="fill: none; stroke: #000000; stroke-width: 0.8; stroke-linecap: square"/>
    </g>
    <g id="text_9">
     <!-- 7 -->
     <g transform="translate(350.191369 320.130578) scale(0.1 -0.1)">
      <defs>
       <path id="DejaVuSans-37" d="M 525 4666 
L 3525 4666 
L 3525 4397 
L 1831 0 
L 1172 0 
L 2766 4134 
L 525 4134 
L 525 4666 
z
" transform="scale(0.015625)"/>
      </defs>
      <use xlink:href="#DejaVuSans-37"/>
     </g>
    </g>
   </g>
   <g id="xtick_9">
    <g id="line2d_10">
     <path d="M 368.941722 300.017707 
L 371.731269 302.383545 
" style="fill: none; stroke: #000000; stroke-width: 0.8; stroke-linecap: square"/>
    </g>
    <g id="text_10">
     <!-- 8 -->
     <g transform="translate(369.300852 313.853743) scale(0.1 -0.1)">
      <defs>
       <path id="DejaVuSans-38" d="M 2034 2216 
Q 1584 2216 1326 1975 
Q 1069 1734 1069 1313 
Q 1069 891 1326 650 
Q 1584 409 2034 409 
Q 2484 409 2743 651 
Q 3003 894 3003 1313 
Q 3003 1734 2745 1975 
Q 2488 2216 2034 2216 
z
M 1403 2484 
Q 997 2584 770 2862 
Q 544 3141 544 3541 
Q 544 4100 942 4425 
Q 1341 4750 2034 4750 
Q 2731 4750 3128 4425 
Q 3525 4100 3525 3541 
Q 3525 3141 3298 2862 
Q 3072 2584 2669 2484 
Q 3125 2378 3379 2068 
Q 3634 1759 3634 1313 
Q 3634 634 3220 271 
Q 2806 -91 2034 -91 
Q 1263 -91 848 271 
Q 434 634 434 1313 
Q 434 1759 690 2068 
Q 947 2378 1403 2484 
z
M 1172 3481 
Q 1172 3119 1398 2916 
Q 1625 2713 2034 2713 
Q 2441 2713 2670 2916 
Q 2900 3119 2900 3481 
Q 2900 3844 2670 4047 
Q 2441 4250 2034 4250 
Q 1625 4250 1398 4047 
Q 1172 3844 1172 3481 
z
" transform="scale(0.015625)"/>
      </defs>
      <use xlink:href="#DejaVuSans-38"/>
     </g>
    </g>
   </g>
  </g>
  <g id="axis3d_2">
   <g id="line2d_11">
    <path d="M 101.667544 257.335181 
L 198.548499 356.758875 
" style="fill: none; stroke: #000000; stroke-width: 0.8; stroke-linecap: square"/>
   </g>
   <g id="text_11">
    <!-- Boulder Tage -->
    <g transform="translate(104.960674 302.516417) rotate(-314.257888) scale(0.1 -0.1)">
     <defs>
      <path id="DejaVuSans-42" d="M 1259 2228 
L 1259 519 
L 2272 519 
Q 2781 519 3026 730 
Q 3272 941 3272 1375 
Q 3272 1813 3026 2020 
Q 2781 2228 2272 2228 
L 1259 2228 
z
M 1259 4147 
L 1259 2741 
L 2194 2741 
Q 2656 2741 2882 2914 
Q 3109 3088 3109 3444 
Q 3109 3797 2882 3972 
Q 2656 4147 2194 4147 
L 1259 4147 
z
M 628 4666 
L 2241 4666 
Q 2963 4666 3353 4366 
Q 3744 4066 3744 3513 
Q 3744 3084 3544 2831 
Q 3344 2578 2956 2516 
Q 3422 2416 3680 2098 
Q 3938 1781 3938 1306 
Q 3938 681 3513 340 
Q 3088 0 2303 0 
L 628 0 
L 628 4666 
z
" transform="scale(0.015625)"/>
      <path id="DejaVuSans-6f" d="M 1959 3097 
Q 1497 3097 1228 2736 
Q 959 2375 959 1747 
Q 959 1119 1226 758 
Q 1494 397 1959 397 
Q 2419 397 2687 759 
Q 2956 1122 2956 1747 
Q 2956 2369 2687 2733 
Q 2419 3097 1959 3097 
z
M 1959 3584 
Q 2709 3584 3137 3096 
Q 3566 2609 3566 1747 
Q 3566 888 3137 398 
Q 2709 -91 1959 -91 
Q 1206 -91 779 398 
Q 353 888 353 1747 
Q 353 2609 779 3096 
Q 1206 3584 1959 3584 
z
" transform="scale(0.015625)"/>
      <path id="DejaVuSans-75" d="M 544 1381 
L 544 3500 
L 1119 3500 
L 1119 1403 
Q 1119 906 1312 657 
Q 1506 409 1894 409 
Q 2359 409 2629 706 
Q 2900 1003 2900 1516 
L 2900 3500 
L 3475 3500 
L 3475 0 
L 2900 0 
L 2900 538 
Q 2691 219 2414 64 
Q 2138 -91 1772 -91 
Q 1169 -91 856 284 
Q 544 659 544 1381 
z
M 1991 3584 
L 1991 3584 
z
" transform="scale(0.015625)"/>
      <path id="DejaVuSans-64" d="M 2906 2969 
L 2906 4863 
L 3481 4863 
L 3481 0 
L 2906 0 
L 2906 525 
Q 2725 213 2448 61 
Q 2172 -91 1784 -91 
Q 1150 -91 751 415 
Q 353 922 353 1747 
Q 353 2572 751 3078 
Q 1150 3584 1784 3584 
Q 2172 3584 2448 3432 
Q 2725 3281 2906 2969 
z
M 947 1747 
Q 947 1113 1208 752 
Q 1469 391 1925 391 
Q 2381 391 2643 752 
Q 2906 1113 2906 1747 
Q 2906 2381 2643 2742 
Q 2381 3103 1925 3103 
Q 1469 3103 1208 2742 
Q 947 2381 947 1747 
z
" transform="scale(0.015625)"/>
     </defs>
     <use xlink:href="#DejaVuSans-42"/>
     <use xlink:href="#DejaVuSans-6f" x="68.603516"/>
     <use xlink:href="#DejaVuSans-75" x="129.785156"/>
     <use xlink:href="#DejaVuSans-6c" x="193.164062"/>
     <use xlink:href="#DejaVuSans-64" x="220.947266"/>
     <use xlink:href="#DejaVuSans-65" x="284.423828"/>
     <use xlink:href="#DejaVuSans-72" x="345.947266"/>
     <use xlink:href="#DejaVuSans-20" x="387.060547"/>
     <use xlink:href="#DejaVuSans-54" x="418.847656"/>
     <use xlink:href="#DejaVuSans-61" x="463.431641"/>
     <use xlink:href="#DejaVuSans-67" x="524.710938"/>
     <use xlink:href="#DejaVuSans-65" x="588.1875"/>
    </g>
   </g>
   <g id="Line3DCollection_2">
    <path d="M 379.767565 154.039913 
L 373.527555 291.005282 
L 191.845087 349.879524 
" style="fill: none; stroke: #b0b0b0; stroke-width: 0.8"/>
    <path d="M 366.660548 144.475009 
L 361.054486 280.550109 
L 180.536733 338.274371 
" style="fill: none; stroke: #b0b0b0; stroke-width: 0.8"/>
    <path d="M 353.813022 135.09947 
L 348.81764 270.292942 
L 169.453842 326.900599 
" style="fill: none; stroke: #b0b0b0; stroke-width: 0.8"/>
    <path d="M 341.217356 125.907726 
L 336.810369 260.228209 
L 158.589739 315.751356 
" style="fill: none; stroke: #b0b0b0; stroke-width: 0.8"/>
    <path d="M 328.866216 116.894427 
L 325.026272 250.350545 
L 147.938007 304.820059 
" style="fill: none; stroke: #b0b0b0; stroke-width: 0.8"/>
    <path d="M 316.752549 108.054425 
L 313.459184 240.654782 
L 137.49248 294.100379 
" style="fill: none; stroke: #b0b0b0; stroke-width: 0.8"/>
    <path d="M 304.869572 99.382769 
L 302.103165 231.135942 
L 127.247227 283.586229 
" style="fill: none; stroke: #b0b0b0; stroke-width: 0.8"/>
    <path d="M 293.210758 90.874698 
L 290.952491 221.789226 
L 117.196544 273.271755 
" style="fill: none; stroke: #b0b0b0; stroke-width: 0.8"/>
    <path d="M 281.769822 82.525624 
L 280.001642 212.610007 
L 107.334939 263.151323 
" style="fill: none; stroke: #b0b0b0; stroke-width: 0.8"/>
   </g>
   <g id="xtick_10">
    <g id="line2d_12">
     <path d="M 193.376131 349.383389 
L 188.77904 350.873078 
" style="fill: none; stroke: #000000; stroke-width: 0.8; stroke-linecap: square"/>
    </g>
    <g id="text_12">
     <!-- 0 -->
     <g transform="translate(184.185533 362.144935) scale(0.1 -0.1)">
      <use xlink:href="#DejaVuSans-30"/>
     </g>
    </g>
   </g>
   <g id="xtick_11">
    <g id="line2d_13">
     <path d="M 182.057186 337.788175 
L 177.491935 339.248008 
" style="fill: none; stroke: #000000; stroke-width: 0.8; stroke-linecap: square"/>
    </g>
    <g id="text_13">
     <!-- 1 -->
     <g transform="translate(172.92037 350.490821) scale(0.1 -0.1)">
      <use xlink:href="#DejaVuSans-31"/>
     </g>
    </g>
   </g>
   <g id="xtick_12">
    <g id="line2d_14">
     <path d="M 170.96382 326.424046 
L 166.43006 327.854912 
" style="fill: none; stroke: #000000; stroke-width: 0.8; stroke-linecap: square"/>
    </g>
    <g id="text_14">
     <!-- 2 -->
     <g transform="translate(161.879846 339.069103) scale(0.1 -0.1)">
      <use xlink:href="#DejaVuSans-32"/>
     </g>
    </g>
   </g>
   <g id="xtick_13">
    <g id="line2d_15">
     <path d="M 160.089357 315.284163 
L 155.586739 316.686916 
" style="fill: none; stroke: #000000; stroke-width: 0.8; stroke-linecap: square"/>
    </g>
    <g id="text_15">
     <!-- 3 -->
     <g transform="translate(151.05731 327.872897) scale(0.1 -0.1)">
      <use xlink:href="#DejaVuSans-33"/>
     </g>
    </g>
   </g>
   <g id="xtick_14">
    <g id="line2d_16">
     <path d="M 149.42738 304.361952 
L 144.95556 305.737412 
" style="fill: none; stroke: #000000; stroke-width: 0.8; stroke-linecap: square"/>
    </g>
    <g id="text_16">
     <!-- 4 -->
     <g transform="translate(140.446367 316.895592) scale(0.1 -0.1)">
      <use xlink:href="#DejaVuSans-34"/>
     </g>
    </g>
   </g>
   <g id="xtick_15">
    <g id="line2d_17">
     <path d="M 138.971721 293.651095 
L 134.530356 295.000051 
" style="fill: none; stroke: #000000; stroke-width: 0.8; stroke-linecap: square"/>
    </g>
    <g id="text_17">
     <!-- 5 -->
     <g transform="translate(130.040872 306.130828) scale(0.1 -0.1)">
      <use xlink:href="#DejaVuSans-35"/>
     </g>
    </g>
   </g>
   <g id="xtick_16">
    <g id="line2d_18">
     <path d="M 128.71645 283.145517 
L 124.3052 284.468728 
" style="fill: none; stroke: #000000; stroke-width: 0.8; stroke-linecap: square"/>
    </g>
    <g id="text_18">
     <!-- 6 -->
     <g transform="translate(119.834917 295.572493) scale(0.1 -0.1)">
      <use xlink:href="#DejaVuSans-36"/>
     </g>
    </g>
   </g>
   <g id="xtick_17">
    <g id="line2d_19">
     <path d="M 118.65586 272.839371 
L 114.274387 274.137567 
" style="fill: none; stroke: #000000; stroke-width: 0.8; stroke-linecap: square"/>
    </g>
    <g id="text_19">
     <!-- 7 -->
     <g transform="translate(109.822815 285.214704) scale(0.1 -0.1)">
      <use xlink:href="#DejaVuSans-37"/>
     </g>
    </g>
   </g>
   <g id="xtick_18">
    <g id="line2d_20">
     <path d="M 108.78446 262.727033 
L 104.43243 264.000917 
" style="fill: none; stroke: #000000; stroke-width: 0.8; stroke-linecap: square"/>
    </g>
    <g id="text_20">
     <!-- 8 -->
     <g transform="translate(99.999096 275.051803) scale(0.1 -0.1)">
      <use xlink:href="#DejaVuSans-38"/>
     </g>
    </g>
   </g>
  </g>
  <g id="axis3d_3">
   <g id="line2d_21">
    <path d="M 101.667544 257.335181 
L 95.528176 123.26708 
" style="fill: none; stroke: #000000; stroke-width: 0.8; stroke-linecap: square"/>
   </g>
   <g id="text_21">
    <!-- Minimaler Preis / Monat -->
    <g transform="translate(65.688108 129.593186) rotate(-272.621908) scale(0.1 -0.1)">
     <defs>
      <path id="DejaVuSans-4d" d="M 628 4666 
L 1569 4666 
L 2759 1491 
L 3956 4666 
L 4897 4666 
L 4897 0 
L 4281 0 
L 4281 4097 
L 3078 897 
L 2444 897 
L 1241 4097 
L 1241 0 
L 628 0 
L 628 4666 
z
" transform="scale(0.015625)"/>
      <path id="DejaVuSans-69" d="M 603 3500 
L 1178 3500 
L 1178 0 
L 603 0 
L 603 3500 
z
M 603 4863 
L 1178 4863 
L 1178 4134 
L 603 4134 
L 603 4863 
z
" transform="scale(0.015625)"/>
      <path id="DejaVuSans-6e" d="M 3513 2113 
L 3513 0 
L 2938 0 
L 2938 2094 
Q 2938 2591 2744 2837 
Q 2550 3084 2163 3084 
Q 1697 3084 1428 2787 
Q 1159 2491 1159 1978 
L 1159 0 
L 581 0 
L 581 3500 
L 1159 3500 
L 1159 2956 
Q 1366 3272 1645 3428 
Q 1925 3584 2291 3584 
Q 2894 3584 3203 3211 
Q 3513 2838 3513 2113 
z
" transform="scale(0.015625)"/>
      <path id="DejaVuSans-6d" d="M 3328 2828 
Q 3544 3216 3844 3400 
Q 4144 3584 4550 3584 
Q 5097 3584 5394 3201 
Q 5691 2819 5691 2113 
L 5691 0 
L 5113 0 
L 5113 2094 
Q 5113 2597 4934 2840 
Q 4756 3084 4391 3084 
Q 3944 3084 3684 2787 
Q 3425 2491 3425 1978 
L 3425 0 
L 2847 0 
L 2847 2094 
Q 2847 2600 2669 2842 
Q 2491 3084 2119 3084 
Q 1678 3084 1418 2786 
Q 1159 2488 1159 1978 
L 1159 0 
L 581 0 
L 581 3500 
L 1159 3500 
L 1159 2956 
Q 1356 3278 1631 3431 
Q 1906 3584 2284 3584 
Q 2666 3584 2933 3390 
Q 3200 3197 3328 2828 
z
" transform="scale(0.015625)"/>
      <path id="DejaVuSans-50" d="M 1259 4147 
L 1259 2394 
L 2053 2394 
Q 2494 2394 2734 2622 
Q 2975 2850 2975 3272 
Q 2975 3691 2734 3919 
Q 2494 4147 2053 4147 
L 1259 4147 
z
M 628 4666 
L 2053 4666 
Q 2838 4666 3239 4311 
Q 3641 3956 3641 3272 
Q 3641 2581 3239 2228 
Q 2838 1875 2053 1875 
L 1259 1875 
L 1259 0 
L 628 0 
L 628 4666 
z
" transform="scale(0.015625)"/>
      <path id="DejaVuSans-73" d="M 2834 3397 
L 2834 2853 
Q 2591 2978 2328 3040 
Q 2066 3103 1784 3103 
Q 1356 3103 1142 2972 
Q 928 2841 928 2578 
Q 928 2378 1081 2264 
Q 1234 2150 1697 2047 
L 1894 2003 
Q 2506 1872 2764 1633 
Q 3022 1394 3022 966 
Q 3022 478 2636 193 
Q 2250 -91 1575 -91 
Q 1294 -91 989 -36 
Q 684 19 347 128 
L 347 722 
Q 666 556 975 473 
Q 1284 391 1588 391 
Q 1994 391 2212 530 
Q 2431 669 2431 922 
Q 2431 1156 2273 1281 
Q 2116 1406 1581 1522 
L 1381 1569 
Q 847 1681 609 1914 
Q 372 2147 372 2553 
Q 372 3047 722 3315 
Q 1072 3584 1716 3584 
Q 2034 3584 2315 3537 
Q 2597 3491 2834 3397 
z
" transform="scale(0.015625)"/>
      <path id="DejaVuSans-2f" d="M 1625 4666 
L 2156 4666 
L 531 -594 
L 0 -594 
L 1625 4666 
z
" transform="scale(0.015625)"/>
     </defs>
     <use xlink:href="#DejaVuSans-4d"/>
     <use xlink:href="#DejaVuSans-69" x="86.279297"/>
     <use xlink:href="#DejaVuSans-6e" x="114.0625"/>
     <use xlink:href="#DejaVuSans-69" x="177.441406"/>
     <use xlink:href="#DejaVuSans-6d" x="205.224609"/>
     <use xlink:href="#DejaVuSans-61" x="302.636719"/>
     <use xlink:href="#DejaVuSans-6c" x="363.916016"/>
     <use xlink:href="#DejaVuSans-65" x="391.699219"/>
     <use xlink:href="#DejaVuSans-72" x="453.222656"/>
     <use xlink:href="#DejaVuSans-20" x="494.335938"/>
     <use xlink:href="#DejaVuSans-50" x="526.123047"/>
     <use xlink:href="#DejaVuSans-72" x="584.675781"/>
     <use xlink:href="#DejaVuSans-65" x="623.539062"/>
     <use xlink:href="#DejaVuSans-69" x="685.0625"/>
     <use xlink:href="#DejaVuSans-73" x="712.845703"/>
     <use xlink:href="#DejaVuSans-20" x="764.945312"/>
     <use xlink:href="#DejaVuSans-2f" x="796.732422"/>
     <use xlink:href="#DejaVuSans-20" x="830.423828"/>
     <use xlink:href="#DejaVuSans-4d" x="862.210938"/>
     <use xlink:href="#DejaVuSans-6f" x="948.490234"/>
     <use xlink:href="#DejaVuSans-6e" x="1009.671875"/>
     <use xlink:href="#DejaVuSans-61" x="1073.050781"/>
     <use xlink:href="#DejaVuSans-74" x="1134.330078"/>
    </g>
   </g>
   <g id="Line3DCollection_3">
    <path d="M 101.292585 249.147041 
L 273.795004 199.399829 
L 381.319068 288.8141 
" style="fill: none; stroke: #b0b0b0; stroke-width: 0.8"/>
    <path d="M 100.5412 232.738721 
L 273.977695 183.512547 
L 382.128363 272.008568 
" style="fill: none; stroke: #b0b0b0; stroke-width: 0.8"/>
    <path d="M 99.781554 216.149983 
L 274.162299 167.458924 
L 382.946896 255.011201 
" style="fill: none; stroke: #b0b0b0; stroke-width: 0.8"/>
    <path d="M 99.013508 199.377834 
L 274.348846 151.236334 
L 383.774826 237.818696 
" style="fill: none; stroke: #b0b0b0; stroke-width: 0.8"/>
    <path d="M 98.236924 182.419215 
L 274.537367 134.842096 
L 384.612316 220.427672 
" style="fill: none; stroke: #b0b0b0; stroke-width: 0.8"/>
    <path d="M 97.451658 165.271 
L 274.727893 118.27347 
L 385.459532 202.834673 
" style="fill: none; stroke: #b0b0b0; stroke-width: 0.8"/>
    <path d="M 96.657562 147.929991 
L 274.920456 101.527659 
L 386.316646 185.036157 
" style="fill: none; stroke: #b0b0b0; stroke-width: 0.8"/>
    <path d="M 95.854489 130.392918 
L 275.11509 84.601807 
L 387.183831 167.028504 
" style="fill: none; stroke: #b0b0b0; stroke-width: 0.8"/>
   </g>
   <g id="xtick_19">
    <g id="line2d_22">
     <path d="M 102.740541 248.729471 
L 98.39322 249.983176 
" style="fill: none; stroke: #000000; stroke-width: 0.8; stroke-linecap: square"/>
    </g>
    <g id="text_22">
     <!-- 0 -->
     <g transform="translate(86.956927 255.165404) scale(0.1 -0.1)">
      <use xlink:href="#DejaVuSans-30"/>
     </g>
    </g>
   </g>
   <g id="xtick_20">
    <g id="line2d_23">
     <path d="M 101.99737 232.325419 
L 97.62537 233.566316 
" style="fill: none; stroke: #000000; stroke-width: 0.8; stroke-linecap: square"/>
    </g>
    <g id="text_23">
     <!-- 10 -->
     <g transform="translate(82.964531 238.773243) scale(0.1 -0.1)">
      <use xlink:href="#DejaVuSans-31"/>
      <use xlink:href="#DejaVuSans-30" x="63.623047"/>
     </g>
    </g>
   </g>
   <g id="xtick_21">
    <g id="line2d_24">
     <path d="M 101.246031 215.741068 
L 96.849069 216.968799 
" style="fill: none; stroke: #000000; stroke-width: 0.8; stroke-linecap: square"/>
    </g>
    <g id="text_24">
     <!-- 20 -->
     <g transform="translate(82.144478 222.201113) scale(0.1 -0.1)">
      <use xlink:href="#DejaVuSans-32"/>
      <use xlink:href="#DejaVuSans-30" x="63.623047"/>
     </g>
    </g>
   </g>
   <g id="xtick_22">
    <g id="line2d_25">
     <path d="M 100.486388 198.973428 
L 96.064179 200.187626 
" style="fill: none; stroke: #000000; stroke-width: 0.8; stroke-linecap: square"/>
    </g>
    <g id="text_25">
     <!-- 30 -->
     <g transform="translate(81.315373 205.446037) scale(0.1 -0.1)">
      <use xlink:href="#DejaVuSans-33"/>
      <use xlink:href="#DejaVuSans-30" x="63.623047"/>
     </g>
    </g>
   </g>
   <g id="xtick_23">
    <g id="line2d_26">
     <path d="M 99.718303 182.019445 
L 95.270555 183.219731 
" style="fill: none; stroke: #000000; stroke-width: 0.8; stroke-linecap: square"/>
    </g>
    <g id="text_26">
     <!-- 40 -->
     <g transform="translate(80.477065 188.504967) scale(0.1 -0.1)">
      <use xlink:href="#DejaVuSans-34"/>
      <use xlink:href="#DejaVuSans-30" x="63.623047"/>
     </g>
    </g>
   </g>
   <g id="xtick_24">
    <g id="line2d_27">
     <path d="M 98.941634 164.875994 
L 94.468051 166.061981 
" style="fill: none; stroke: #000000; stroke-width: 0.8; stroke-linecap: square"/>
    </g>
    <g id="text_27">
     <!-- 50 -->
     <g transform="translate(79.629398 171.374789) scale(0.1 -0.1)">
      <use xlink:href="#DejaVuSans-35"/>
      <use xlink:href="#DejaVuSans-30" x="63.623047"/>
     </g>
    </g>
   </g>
   <g id="xtick_25">
    <g id="line2d_28">
     <path d="M 98.156237 147.539881 
L 93.656517 148.711171 
" style="fill: none; stroke: #000000; stroke-width: 0.8; stroke-linecap: square"/>
    </g>
    <g id="text_28">
     <!-- 60 -->
     <g transform="translate(78.772216 154.052318) scale(0.1 -0.1)">
      <use xlink:href="#DejaVuSans-36"/>
      <use xlink:href="#DejaVuSans-30" x="63.623047"/>
     </g>
    </g>
   </g>
   <g id="xtick_26">
    <g id="line2d_29">
     <path d="M 97.361964 130.007842 
L 92.835801 131.164025 
" style="fill: none; stroke: #000000; stroke-width: 0.8; stroke-linecap: square"/>
    </g>
    <g id="text_29">
     <!-- 70 -->
     <g transform="translate(77.905358 136.5343) scale(0.1 -0.1)">
      <use xlink:href="#DejaVuSans-37"/>
      <use xlink:href="#DejaVuSans-30" x="63.623047"/>
     </g>
    </g>
   </g>
  </g>
  <g id="axes_1">
   <g id="Path3DCollection_1">
    <defs>
     <path id="m11249f092c" d="M 0 2.236068 
C 0.593012 2.236068 1.161816 2.000462 1.581139 1.581139 
C 2.000462 1.161816 2.236068 0.593012 2.236068 0 
C 2.236068 -0.593012 2.000462 -1.161816 1.581139 -1.581139 
C 1.161816 -2.000462 0.593012 -2.236068 0 -2.236068 
C -0.593012 -2.236068 -1.161816 -2.000462 -1.581139 -1.581139 
C -2.000462 -1.161816 -2.236068 -0.593012 -2.236068 0 
C -2.236068 0.593012 -2.000462 1.161816 -1.581139 1.581139 
C -1.161816 2.000462 -0.593012 2.236068 0 2.236068 
z
" style="stroke: #ffd700"/>
    </defs>
    <g clip-path="url(#p5a84e87613)">
     <use xlink:href="#m11249f092c" x="270.738313" y="93.948649" style="fill: #ffd700; stroke: #ffd700"/>
    </g>
   </g>
   <g id="Path3DCollection_2">
    <g clip-path="url(#p5a84e87613)">
     <use xlink:href="#m11249f092c" x="251.867006" y="98.81387" style="fill: #ffd700; stroke: #ffd700"/>
    </g>
   </g>
   <g id="Path3DCollection_3">
    <g clip-path="url(#p5a84e87613)">
     <use xlink:href="#m11249f092c" x="282.080025" y="102.409067" style="fill: #ffd700; stroke: #ffd700"/>
    </g>
   </g>
   <g id="Path3DCollection_4">
    <g clip-path="url(#p5a84e87613)">
     <use xlink:href="#m11249f092c" x="232.78978" y="103.732179" style="fill: #ffd700; stroke: #ffd700"/>
    </g>
   </g>
   <g id="Path3DCollection_5">
    <g clip-path="url(#p5a84e87613)">
     <use xlink:href="#m11249f092c" x="263.091799" y="107.366792" style="fill: #ffd700; stroke: #ffd700"/>
    </g>
   </g>
   <g id="Path3DCollection_6">
    <g clip-path="url(#p5a84e87613)">
     <use xlink:href="#m11249f092c" x="213.503245" y="108.704451" style="fill: #ffd700; stroke: #ffd700"/>
    </g>
   </g>
   <g id="Path3DCollection_7">
    <g clip-path="url(#p5a84e87613)">
     <use xlink:href="#m11249f092c" x="293.63782" y="111.030672" style="fill: #ffd700; stroke: #ffd700"/>
    </g>
   </g>
   <g id="Path3DCollection_8">
    <g clip-path="url(#p5a84e87613)">
     <use xlink:href="#m11249f092c" x="243.894401" y="112.379131" style="fill: #ffd700; stroke: #ffd700"/>
    </g>
   </g>
   <g id="Path3DCollection_9">
    <defs>
     <path id="m669fcf88e5" d="M 0 2.236068 
C 0.593012 2.236068 1.161816 2.000462 1.581139 1.581139 
C 2.000462 1.161816 2.236068 0.593012 2.236068 0 
C 2.236068 -0.593012 2.000462 -1.161816 1.581139 -1.581139 
C 1.161816 -2.000462 0.593012 -2.236068 0 -2.236068 
C -0.593012 -2.236068 -1.161816 -2.000462 -1.581139 -1.581139 
C -2.000462 -1.161816 -2.236068 -0.593012 -2.236068 0 
C -2.236068 0.593012 -2.000462 1.161816 -1.581139 1.581139 
C -1.161816 2.000462 -0.593012 2.236068 0 2.236068 
z
" style="stroke: #f08080"/>
    </defs>
    <g clip-path="url(#p5a84e87613)">
     <use xlink:href="#m669fcf88e5" x="194.003937" y="113.731577" style="fill: #f08080; stroke: #f08080"/>
    </g>
   </g>
   <g id="Path3DCollection_10">
    <g clip-path="url(#p5a84e87613)">
     <use xlink:href="#m11249f092c" x="274.531629" y="116.083565" style="fill: #ffd700; stroke: #ffd700"/>
    </g>
   </g>
   <g id="Path3DCollection_11">
    <g clip-path="url(#p5a84e87613)">
     <use xlink:href="#m669fcf88e5" x="174.431523" y="125.774638" style="fill: #f08080; stroke: #f08080"/>
    </g>
   </g>
   <g id="Path3DCollection_12">
    <g clip-path="url(#p5a84e87613)">
     <use xlink:href="#m11249f092c" x="224.484355" y="117.446991" style="fill: #ffd700; stroke: #ffd700"/>
    </g>
   </g>
   <g id="Path3DCollection_13">
    <g clip-path="url(#p5a84e87613)">
     <use xlink:href="#m11249f092c" x="305.417931" y="119.818115" style="fill: #ffd700; stroke: #ffd700"/>
    </g>
   </g>
   <g id="Path3DCollection_14">
    <g clip-path="url(#p5a84e87613)">
     <use xlink:href="#m669fcf88e5" x="154.729047" y="137.897726" style="fill: #f08080; stroke: #f08080"/>
    </g>
   </g>
   <g id="Path3DCollection_15">
    <g clip-path="url(#p5a84e87613)">
     <use xlink:href="#m11249f092c" x="255.21294" y="121.192656" style="fill: #ffd700; stroke: #ffd700"/>
    </g>
   </g>
   <g id="Path3DCollection_16">
    <g clip-path="url(#p5a84e87613)">
     <use xlink:href="#m669fcf88e5" x="204.858108" y="122.5713" style="fill: #f08080; stroke: #f08080"/>
    </g>
   </g>
   <g id="Path3DCollection_17">
    <g clip-path="url(#p5a84e87613)">
     <use xlink:href="#m669fcf88e5" x="134.89521" y="150.101643" style="fill: #f08080; stroke: #f08080"/>
    </g>
   </g>
   <g id="Path3DCollection_18">
    <g clip-path="url(#p5a84e87613)">
     <use xlink:href="#m11249f092c" x="286.192736" y="124.968943" style="fill: #ffd700; stroke: #ffd700"/>
    </g>
   </g>
   <g id="Path3DCollection_19">
    <g clip-path="url(#p5a84e87613)">
     <use xlink:href="#m669fcf88e5" x="185.132553" y="134.760477" style="fill: #f08080; stroke: #f08080"/>
    </g>
   </g>
   <g id="Path3DCollection_20">
    <g clip-path="url(#p5a84e87613)">
     <use xlink:href="#m669fcf88e5" x="114.928692" y="162.387199" style="fill: #f08080; stroke: #f08080"/>
    </g>
   </g>
   <g id="Path3DCollection_21">
    <g clip-path="url(#p5a84e87613)">
     <use xlink:href="#m11249f092c" x="235.678187" y="126.358889" style="fill: #ffd700; stroke: #ffd700"/>
    </g>
   </g>
   <g id="Path3DCollection_22">
    <g clip-path="url(#p5a84e87613)">
     <use xlink:href="#m11249f092c" x="317.426835" y="128.776227" style="fill: #ffd700; stroke: #ffd700"/>
    </g>
   </g>
   <g id="Path3DCollection_23">
    <g clip-path="url(#p5a84e87613)">
     <use xlink:href="#m669fcf88e5" x="165.274647" y="147.03144" style="fill: #f08080; stroke: #f08080"/>
    </g>
   </g>
   <g id="Path3DCollection_24">
    <g clip-path="url(#p5a84e87613)">
     <use xlink:href="#m11249f092c" x="266.751638" y="130.177615" style="fill: #ffd700; stroke: #ffd700"/>
    </g>
   </g>
   <g id="Path3DCollection_25">
    <g clip-path="url(#p5a84e87613)">
     <use xlink:href="#m669fcf88e5" x="215.923724" y="131.583227" style="fill: #f08080; stroke: #f08080"/>
    </g>
   </g>
   <g id="Path3DCollection_26">
    <g clip-path="url(#p5a84e87613)">
     <use xlink:href="#m669fcf88e5" x="145.283052" y="159.385013" style="fill: #f08080; stroke: #f08080"/>
    </g>
   </g>
   <g id="Path3DCollection_27">
    <g clip-path="url(#p5a84e87613)">
     <use xlink:href="#m11249f092c" x="298.081601" y="134.027865" style="fill: #ffd700; stroke: #ffd700"/>
    </g>
   </g>
   <g id="Path3DCollection_28">
    <g clip-path="url(#p5a84e87613)">
     <use xlink:href="#m669fcf88e5" x="196.042749" y="143.921957" style="fill: #f08080; stroke: #f08080"/>
    </g>
   </g>
   <g id="Path3DCollection_29">
    <g clip-path="url(#p5a84e87613)">
     <use xlink:href="#m669fcf88e5" x="125.156413" y="171.822035" style="fill: #f08080; stroke: #f08080"/>
    </g>
   </g>
   <g id="Path3DCollection_30">
    <g clip-path="url(#p5a84e87613)">
     <use xlink:href="#m11249f092c" x="247.090981" y="135.445113" style="fill: #ffd700; stroke: #ffd700"/>
    </g>
   </g>
   <g id="Path3DCollection_31">
    <g clip-path="url(#p5a84e87613)">
     <use xlink:href="#m11249f092c" x="329.671263" y="137.910031" style="fill: #ffd700; stroke: #ffd700"/>
    </g>
   </g>
   <g id="Path3DCollection_32">
    <g clip-path="url(#p5a84e87613)">
     <use xlink:href="#m669fcf88e5" x="176.027072" y="156.344288" style="fill: #f08080; stroke: #f08080"/>
    </g>
   </g>
   <g id="Path3DCollection_33">
    <g clip-path="url(#p5a84e87613)">
     <use xlink:href="#m11249f092c" x="278.516982" y="139.339059" style="fill: #ffd700; stroke: #ffd700"/>
    </g>
   </g>
   <g id="Path3DCollection_34">
    <g clip-path="url(#p5a84e87613)">
     <use xlink:href="#m669fcf88e5" x="227.207025" y="140.772436" style="fill: #f08080; stroke: #f08080"/>
    </g>
   </g>
   <g id="Path3DCollection_35">
    <g clip-path="url(#p5a84e87613)">
     <use xlink:href="#m669fcf88e5" x="155.875318" y="168.851072" style="fill: #f08080; stroke: #f08080"/>
    </g>
   </g>
   <g id="Path3DCollection_36">
    <g clip-path="url(#p5a84e87613)">
     <use xlink:href="#m11249f092c" x="310.204963" y="143.265467" style="fill: #ffd700; stroke: #ffd700"/>
    </g>
   </g>
   <g id="Path3DCollection_37">
    <defs>
     <path id="m4e78ee1295" d="M 0 2.236068 
C 0.593012 2.236068 1.161816 2.000462 1.581139 1.581139 
C 2.000462 1.161816 2.236068 0.593012 2.236068 0 
C 2.236068 -0.593012 2.000462 -1.161816 1.581139 -1.581139 
C 1.161816 -2.000462 0.593012 -2.236068 0 -2.236068 
C -0.593012 -2.236068 -1.161816 -2.000462 -1.581139 -1.581139 
C -2.000462 -1.161816 -2.236068 -0.593012 -2.236068 0 
C -2.236068 0.593012 -2.000462 1.161816 -1.581139 1.581139 
C -1.161816 2.000462 -0.593012 2.236068 0 2.236068 
z
" style="stroke: #808080"/>
    </defs>
    <g clip-path="url(#p5a84e87613)">
     <use xlink:href="#m4e78ee1295" x="135.686342" y="184.426083" style="fill: #808080; stroke: #808080"/>
    </g>
   </g>
   <g id="Path3DCollection_38">
    <g clip-path="url(#p5a84e87613)">
     <use xlink:href="#m669fcf88e5" x="207.168304" y="153.264277" style="fill: #f08080; stroke: #f08080"/>
    </g>
   </g>
   <g id="Path3DCollection_39">
    <g clip-path="url(#p5a84e87613)">
     <use xlink:href="#m11249f092c" x="258.729227" y="144.710828" style="fill: #ffd700; stroke: #ffd700"/>
    </g>
   </g>
   <g id="Path3DCollection_40">
    <g clip-path="url(#p5a84e87613)">
     <use xlink:href="#m11249f092c" x="342.158213" y="147.224744" style="fill: #ffd700; stroke: #ffd700"/>
    </g>
   </g>
   <g id="Path3DCollection_41">
    <g clip-path="url(#p5a84e87613)">
     <use xlink:href="#m669fcf88e5" x="186.992467" y="165.841594" style="fill: #f08080; stroke: #f08080"/>
    </g>
   </g>
   <g id="Path3DCollection_42">
    <g clip-path="url(#p5a84e87613)">
     <use xlink:href="#m4e78ee1295" x="146.768571" y="209.273498" style="fill: #808080; stroke: #808080"/>
    </g>
   </g>
   <g id="Path3DCollection_43">
    <g clip-path="url(#p5a84e87613)">
     <use xlink:href="#m11249f092c" x="290.515717" y="148.682239" style="fill: #ffd700; stroke: #ffd700"/>
    </g>
   </g>
   <g id="Path3DCollection_44">
    <defs>
     <path id="m852dcd72be" d="M 0 2.236068 
C 0.593012 2.236068 1.161816 2.000462 1.581139 1.581139 
C 2.000462 1.161816 2.236068 0.593012 2.236068 0 
C 2.236068 -0.593012 2.000462 -1.161816 1.581139 -1.581139 
C 1.161816 -2.000462 0.593012 -2.236068 0 -2.236068 
C -0.593012 -2.236068 -1.161816 -2.000462 -1.581139 -1.581139 
C -2.000462 -1.161816 -2.236068 -0.593012 -2.236068 0 
C -2.236068 0.593012 -2.000462 1.161816 -1.581139 1.581139 
C -1.161816 2.000462 -0.593012 2.236068 0 2.236068 
z
" style="stroke: #006400"/>
    </defs>
    <g clip-path="url(#p5a84e87613)">
     <use xlink:href="#m852dcd72be" x="166.783769" y="183.010813" style="fill: #006400; stroke: #006400"/>
    </g>
   </g>
   <g id="Path3DCollection_45">
    <g clip-path="url(#p5a84e87613)">
     <use xlink:href="#m669fcf88e5" x="238.714496" y="150.144213" style="fill: #f08080; stroke: #f08080"/>
    </g>
   </g>
   <g id="Path3DCollection_46">
    <g clip-path="url(#p5a84e87613)">
     <use xlink:href="#m11249f092c" x="322.56983" y="152.687087" style="fill: #ffd700; stroke: #ffd700"/>
    </g>
   </g>
   <g id="Path3DCollection_47">
    <g clip-path="url(#p5a84e87613)">
     <use xlink:href="#m4e78ee1295" x="157.962169" y="234.370611" style="fill: #808080; stroke: #808080"/>
    </g>
   </g>
   <g id="Path3DCollection_48">
    <g clip-path="url(#p5a84e87613)">
     <use xlink:href="#m669fcf88e5" x="218.515657" y="162.792845" style="fill: #f08080; stroke: #f08080"/>
    </g>
   </g>
   <g id="Path3DCollection_49">
    <g clip-path="url(#p5a84e87613)">
     <use xlink:href="#m852dcd72be" x="178.089302" y="208.00109" style="fill: #006400; stroke: #006400"/>
    </g>
   </g>
   <g id="Path3DCollection_50">
    <g clip-path="url(#p5a84e87613)">
     <use xlink:href="#m11249f092c" x="270.599672" y="154.161406" style="fill: #ffd700; stroke: #ffd700"/>
    </g>
   </g>
   <g id="Path3DCollection_51">
    <g clip-path="url(#p5a84e87613)">
     <use xlink:href="#m852dcd72be" x="198.256986" y="181.578441" style="fill: #006400; stroke: #006400"/>
    </g>
   </g>
   <g id="Path3DCollection_52">
    <g clip-path="url(#p5a84e87613)">
     <use xlink:href="#m11249f092c" x="354.894961" y="156.725797" style="fill: #ffd700; stroke: #ffd700"/>
    </g>
   </g>
   <g id="Path3DCollection_53">
    <g clip-path="url(#p5a84e87613)">
     <use xlink:href="#m4e78ee1295" x="169.268823" y="259.721206" style="fill: #808080; stroke: #808080"/>
    </g>
   </g>
   <g id="Path3DCollection_54">
    <g clip-path="url(#p5a84e87613)">
     <use xlink:href="#m11249f092c" x="302.754855" y="158.212617" style="fill: #ffd700; stroke: #ffd700"/>
    </g>
   </g>
   <g id="Path3DCollection_55">
    <g clip-path="url(#p5a84e87613)">
     <use xlink:href="#m852dcd72be" x="189.509138" y="233.244024" style="fill: #006400; stroke: #006400"/>
    </g>
   </g>
   <g id="Path3DCollection_56">
    <g clip-path="url(#p5a84e87613)">
     <use xlink:href="#m852dcd72be" x="209.790437" y="206.713228" style="fill: #006400; stroke: #006400"/>
    </g>
   </g>
   <g id="Path3DCollection_57">
    <g clip-path="url(#p5a84e87613)">
     <use xlink:href="#m669fcf88e5" x="250.452887" y="159.704053" style="fill: #f08080; stroke: #f08080"/>
    </g>
   </g>
   <g id="Path3DCollection_58">
    <g clip-path="url(#p5a84e87613)">
     <use xlink:href="#m852dcd72be" x="230.112846" y="180.128654" style="fill: #006400; stroke: #006400"/>
    </g>
   </g>
   <g id="Path3DCollection_59">
    <g clip-path="url(#p5a84e87613)">
     <use xlink:href="#m11249f092c" x="335.18349" y="162.29828" style="fill: #ffd700; stroke: #ffd700"/>
    </g>
   </g>
   <g id="Path3DCollection_60">
    <g clip-path="url(#p5a84e87613)">
     <use xlink:href="#m4e78ee1295" x="180.690255" y="285.329144" style="fill: #808080; stroke: #808080"/>
    </g>
   </g>
   <g id="Path3DCollection_61">
    <g clip-path="url(#p5a84e87613)">
     <use xlink:href="#m852dcd72be" x="201.045017" y="258.743469" style="fill: #006400; stroke: #006400"/>
    </g>
   </g>
   <g id="Path3DCollection_62">
    <g clip-path="url(#p5a84e87613)">
     <use xlink:href="#m11249f092c" x="282.709333" y="163.802436" style="fill: #ffd700; stroke: #ffd700"/>
    </g>
   </g>
   <g id="Path3DCollection_63">
    <g clip-path="url(#p5a84e87613)">
     <use xlink:href="#m852dcd72be" x="221.441206" y="232.103685" style="fill: #006400; stroke: #006400"/>
    </g>
   </g>
   <g id="Path3DCollection_64">
    <g clip-path="url(#p5a84e87613)">
     <use xlink:href="#m852dcd72be" x="241.878948" y="205.409629" style="fill: #006400; stroke: #006400"/>
    </g>
   </g>
   <g id="Path3DCollection_65">
    <g clip-path="url(#p5a84e87613)">
     <use xlink:href="#m11249f092c" x="367.889079" y="166.418836" style="fill: #ffd700; stroke: #ffd700"/>
    </g>
   </g>
   <g id="Path3DCollection_66">
    <g clip-path="url(#p5a84e87613)">
     <use xlink:href="#m852dcd72be" x="262.35837" y="178.661133" style="fill: #006400; stroke: #006400"/>
    </g>
   </g>
   <g id="Path3DCollection_67">
    <g clip-path="url(#p5a84e87613)">
     <use xlink:href="#m4e78ee1295" x="192.22822" y="311.198362" style="fill: #808080; stroke: #808080"/>
    </g>
   </g>
   <g id="Path3DCollection_68">
    <g clip-path="url(#p5a84e87613)">
     <use xlink:href="#m11249f092c" x="315.241695" y="167.935876" style="fill: #ffd700; stroke: #ffd700"/>
    </g>
   </g>
   <g id="Path3DCollection_69">
    <g clip-path="url(#p5a84e87613)">
     <use xlink:href="#m852dcd72be" x="212.698719" y="284.503352" style="fill: #006400; stroke: #006400"/>
    </g>
   </g>
   <g id="Path3DCollection_70">
    <g clip-path="url(#p5a84e87613)">
     <use xlink:href="#m852dcd72be" x="233.211092" y="257.753734" style="fill: #006400; stroke: #006400"/>
    </g>
   </g>
   <g id="Path3DCollection_71">
    <g clip-path="url(#p5a84e87613)">
     <use xlink:href="#m852dcd72be" x="253.76547" y="230.94934" style="fill: #006400; stroke: #006400"/>
    </g>
   </g>
   <g id="Path3DCollection_72">
    <g clip-path="url(#p5a84e87613)">
     <use xlink:href="#m852dcd72be" x="274.36198" y="204.090002" style="fill: #006400; stroke: #006400"/>
    </g>
   </g>
   <g id="Path3DCollection_73">
    <g clip-path="url(#p5a84e87613)">
     <use xlink:href="#m11249f092c" x="348.053528" y="172.104824" style="fill: #ffd700; stroke: #ffd700"/>
    </g>
   </g>
   <g id="Path3DCollection_74">
    <defs>
     <path id="m877eb9e379" d="M 0 2.236068 
C 0.593012 2.236068 1.161816 2.000462 1.581139 1.581139 
C 2.000462 1.161816 2.236068 0.593012 2.236068 0 
C 2.236068 -0.593012 2.000462 -1.161816 1.581139 -1.581139 
C 1.161816 -2.000462 0.593012 -2.236068 0 -2.236068 
C -0.593012 -2.236068 -1.161816 -2.000462 -1.581139 -1.581139 
C -2.000462 -1.161816 -2.236068 -0.593012 -2.236068 0 
C -2.236068 0.593012 -2.000462 1.161816 -1.581139 1.581139 
C -1.161816 2.000462 -0.593012 2.236068 0 2.236068 
z
" style="stroke: #000000"/>
    </defs>
    <g clip-path="url(#p5a84e87613)">
     <use xlink:href="#m877eb9e379" x="203.884513" y="337.33288" style="stroke: #000000"/>
    </g>
   </g>
   <g id="Path3DCollection_75">
    <g clip-path="url(#p5a84e87613)">
     <use xlink:href="#m852dcd72be" x="295.000752" y="177.175551" style="fill: #006400; stroke: #006400"/>
    </g>
   </g>
   <g id="Path3DCollection_76">
    <defs>
     <path id="ma0461cc7ca" d="M 0 2.236068 
C 0.593012 2.236068 1.161816 2.000462 1.581139 1.581139 
C 2.000462 1.161816 2.236068 0.593012 2.236068 0 
C 2.236068 -0.593012 2.000462 -1.161816 1.581139 -1.581139 
C 1.161816 -2.000462 0.593012 -2.236068 0 -2.236068 
C -0.593012 -2.236068 -1.161816 -2.000462 -1.581139 -1.581139 
C -2.000462 -1.161816 -2.236068 -0.593012 -2.236068 0 
C -2.236068 0.593012 -2.000462 1.161816 -1.581139 1.581139 
C -1.161816 2.000462 -0.593012 2.236068 0 2.236068 
z
" style="stroke: #98fb98"/>
    </defs>
    <g clip-path="url(#p5a84e87613)">
     <use xlink:href="#ma0461cc7ca" x="224.472057" y="310.527686" style="fill: #98fb98; stroke: #98fb98"/>
    </g>
   </g>
   <g id="Path3DCollection_77">
    <g clip-path="url(#p5a84e87613)">
     <use xlink:href="#ma0461cc7ca" x="245.101932" y="283.667376" style="fill: #98fb98; stroke: #98fb98"/>
    </g>
   </g>
   <g id="Path3DCollection_78">
    <g clip-path="url(#p5a84e87613)">
     <use xlink:href="#ma0461cc7ca" x="265.774269" y="256.751781" style="fill: #98fb98; stroke: #98fb98"/>
    </g>
   </g>
   <g id="Path3DCollection_79">
    <g clip-path="url(#p5a84e87613)">
     <use xlink:href="#ma0461cc7ca" x="286.489198" y="229.78073" style="fill: #98fb98; stroke: #98fb98"/>
    </g>
   </g>
   <g id="Path3DCollection_80">
    <g clip-path="url(#p5a84e87613)">
     <use xlink:href="#ma0461cc7ca" x="307.246852" y="202.754051" style="fill: #98fb98; stroke: #98fb98"/>
    </g>
   </g>
   <g id="Poly3DCollection_1">
    <path d="M 263.091799 107.366792 
L 282.080025 102.409067 
L 270.738313 93.948649 
L 251.867006 98.81387 
z
" clip-path="url(#p5a84e87613)" style="fill: #fde725; fill-opacity: 0.15"/>
    <path d="M 243.894401 112.379131 
L 263.091799 107.366792 
L 251.867006 98.81387 
L 232.78978 103.732179 
z
" clip-path="url(#p5a84e87613)" style="fill: #fde725; fill-opacity: 0.15"/>
    <path d="M 274.531629 116.083565 
L 293.63782 111.030672 
L 282.080025 102.409067 
L 263.091799 107.366792 
z
" clip-path="url(#p5a84e87613)" style="fill: #fde725; fill-opacity: 0.15"/>
    <path d="M 224.484355 117.446991 
L 243.894401 112.379131 
L 232.78978 103.732179 
L 213.503245 108.704451 
z
" clip-path="url(#p5a84e87613)" style="fill: #fde725; fill-opacity: 0.15"/>
    <path d="M 255.21294 121.192656 
L 274.531629 116.083565 
L 263.091799 107.366792 
L 243.894401 112.379131 
z
" clip-path="url(#p5a84e87613)" style="fill: #fde725; fill-opacity: 0.15"/>
    <path d="M 204.858108 122.5713 
L 224.484355 117.446991 
L 213.503245 108.704451 
L 194.003937 113.731577 
z
" clip-path="url(#p5a84e87613)" style="fill: #fde725; fill-opacity: 0.15"/>
    <path d="M 286.192736 124.968943 
L 305.417931 119.818115 
L 293.63782 111.030672 
L 274.531629 116.083565 
z
" clip-path="url(#p5a84e87613)" style="fill: #fde725; fill-opacity: 0.15"/>
    <path d="M 235.678187 126.358889 
L 255.21294 121.192656 
L 243.894401 112.379131 
L 224.484355 117.446991 
z
" clip-path="url(#p5a84e87613)" style="fill: #fde725; fill-opacity: 0.15"/>
    <path d="M 185.132553 134.760477 
L 204.858108 122.5713 
L 194.003937 113.731577 
L 174.431523 125.774638 
z
" clip-path="url(#p5a84e87613)" style="fill: #eae51a; fill-opacity: 0.15"/>
    <path d="M 165.274647 147.03144 
L 185.132553 134.760477 
L 174.431523 125.774638 
L 154.729047 137.897726 
z
" clip-path="url(#p5a84e87613)" style="fill: #bade28; fill-opacity: 0.15"/>
    <path d="M 266.751638 130.177615 
L 286.192736 124.968943 
L 274.531629 116.083565 
L 255.21294 121.192656 
z
" clip-path="url(#p5a84e87613)" style="fill: #fde725; fill-opacity: 0.15"/>
    <path d="M 215.923724 131.583227 
L 235.678187 126.358889 
L 224.484355 117.446991 
L 204.858108 122.5713 
z
" clip-path="url(#p5a84e87613)" style="fill: #fde725; fill-opacity: 0.15"/>
    <path d="M 145.283052 159.385013 
L 165.274647 147.03144 
L 154.729047 137.897726 
L 134.89521 150.101643 
z
" clip-path="url(#p5a84e87613)" style="fill: #8ed645; fill-opacity: 0.15"/>
    <path d="M 298.081601 134.027865 
L 317.426835 128.776227 
L 305.417931 119.818115 
L 286.192736 124.968943 
z
" clip-path="url(#p5a84e87613)" style="fill: #fde725; fill-opacity: 0.15"/>
    <path d="M 247.090981 135.445113 
L 266.751638 130.177615 
L 255.21294 121.192656 
L 235.678187 126.358889 
z
" clip-path="url(#p5a84e87613)" style="fill: #fde725; fill-opacity: 0.15"/>
    <path d="M 196.042749 143.921957 
L 215.923724 131.583227 
L 204.858108 122.5713 
L 185.132553 134.760477 
z
" clip-path="url(#p5a84e87613)" style="fill: #eae51a; fill-opacity: 0.15"/>
    <path d="M 125.156413 171.822035 
L 145.283052 159.385013 
L 134.89521 150.101643 
L 114.928692 162.387199 
z
" clip-path="url(#p5a84e87613)" style="fill: #65cb5e; fill-opacity: 0.15"/>
    <path d="M 176.027072 156.344288 
L 196.042749 143.921957 
L 185.132553 134.760477 
L 165.274647 147.03144 
z
" clip-path="url(#p5a84e87613)" style="fill: #bade28; fill-opacity: 0.15"/>
    <path d="M 278.516982 139.339059 
L 298.081601 134.027865 
L 286.192736 124.968943 
L 266.751638 130.177615 
z
" clip-path="url(#p5a84e87613)" style="fill: #fde725; fill-opacity: 0.15"/>
    <path d="M 227.207025 140.772436 
L 247.090981 135.445113 
L 235.678187 126.358889 
L 215.923724 131.583227 
z
" clip-path="url(#p5a84e87613)" style="fill: #fde725; fill-opacity: 0.15"/>
    <path d="M 155.875318 168.851072 
L 176.027072 156.344288 
L 165.274647 147.03144 
L 145.283052 159.385013 
z
" clip-path="url(#p5a84e87613)" style="fill: #8ed645; fill-opacity: 0.15"/>
    <path d="M 310.204963 143.265467 
L 329.671263 137.910031 
L 317.426835 128.776227 
L 298.081601 134.027865 
z
" clip-path="url(#p5a84e87613)" style="fill: #fde725; fill-opacity: 0.15"/>
    <path d="M 258.729227 144.710828 
L 278.516982 139.339059 
L 266.751638 130.177615 
L 247.090981 135.445113 
z
" clip-path="url(#p5a84e87613)" style="fill: #fde725; fill-opacity: 0.15"/>
    <path d="M 207.168304 153.264277 
L 227.207025 140.772436 
L 215.923724 131.583227 
L 196.042749 143.921957 
z
" clip-path="url(#p5a84e87613)" style="fill: #eae51a; fill-opacity: 0.15"/>
    <path d="M 135.686342 184.426083 
L 155.875318 168.851072 
L 145.283052 159.385013 
L 125.156413 171.822035 
z
" clip-path="url(#p5a84e87613)" style="fill: #60ca60; fill-opacity: 0.15"/>
    <path d="M 186.992467 165.841594 
L 207.168304 153.264277 
L 196.042749 143.921957 
L 176.027072 156.344288 
z
" clip-path="url(#p5a84e87613)" style="fill: #bade28; fill-opacity: 0.15"/>
    <path d="M 290.515717 148.682239 
L 310.204963 143.265467 
L 298.081601 134.027865 
L 278.516982 139.339059 
z
" clip-path="url(#p5a84e87613)" style="fill: #fde725; fill-opacity: 0.15"/>
    <path d="M 238.714496 150.144213 
L 258.729227 144.710828 
L 247.090981 135.445113 
L 227.207025 140.772436 
z
" clip-path="url(#p5a84e87613)" style="fill: #fde725; fill-opacity: 0.15"/>
    <path d="M 166.783769 183.010813 
L 186.992467 165.841594 
L 176.027072 156.344288 
L 155.875318 168.851072 
z
" clip-path="url(#p5a84e87613)" style="fill: #86d549; fill-opacity: 0.15"/>
    <path d="M 322.56983 152.687087 
L 342.158213 147.224744 
L 329.671263 137.910031 
L 310.204963 143.265467 
z
" clip-path="url(#p5a84e87613)" style="fill: #fde725; fill-opacity: 0.15"/>
    <path d="M 146.768571 209.273498 
L 166.783769 183.010813 
L 155.875318 168.851072 
L 135.686342 184.426083 
z
" clip-path="url(#p5a84e87613)" style="fill: #44bf70; fill-opacity: 0.15"/>
    <path d="M 270.599672 154.161406 
L 290.515717 148.682239 
L 278.516982 139.339059 
L 258.729227 144.710828 
z
" clip-path="url(#p5a84e87613)" style="fill: #fde725; fill-opacity: 0.15"/>
    <path d="M 218.515657 162.792845 
L 238.714496 150.144213 
L 227.207025 140.772436 
L 207.168304 153.264277 
z
" clip-path="url(#p5a84e87613)" style="fill: #eae51a; fill-opacity: 0.15"/>
    <path d="M 198.256986 181.578441 
L 218.515657 162.792845 
L 207.168304 153.264277 
L 186.992467 165.841594 
z
" clip-path="url(#p5a84e87613)" style="fill: #b2dd2d; fill-opacity: 0.15"/>
    <path d="M 302.754855 158.212617 
L 322.56983 152.687087 
L 310.204963 143.265467 
L 290.515717 148.682239 
z
" clip-path="url(#p5a84e87613)" style="fill: #fde725; fill-opacity: 0.15"/>
    <path d="M 157.962169 234.370611 
L 178.089302 208.00109 
L 166.783769 183.010813 
L 146.768571 209.273498 
z
" clip-path="url(#p5a84e87613)" style="fill: #20a386; fill-opacity: 0.15"/>
    <path d="M 178.089302 208.00109 
L 198.256986 181.578441 
L 186.992467 165.841594 
L 166.783769 183.010813 
z
" clip-path="url(#p5a84e87613)" style="fill: #60ca60; fill-opacity: 0.15"/>
    <path d="M 250.452887 159.704053 
L 270.599672 154.161406 
L 258.729227 144.710828 
L 238.714496 150.144213 
z
" clip-path="url(#p5a84e87613)" style="fill: #fde725; fill-opacity: 0.15"/>
    <path d="M 335.18349 162.29828 
L 354.894961 156.725797 
L 342.158213 147.224744 
L 322.56983 152.687087 
z
" clip-path="url(#p5a84e87613)" style="fill: #fde725; fill-opacity: 0.15"/>
    <path d="M 169.268823 259.721206 
L 189.509138 233.244024 
L 178.089302 208.00109 
L 157.962169 234.370611 
z
" clip-path="url(#p5a84e87613)" style="fill: #26818e; fill-opacity: 0.15"/>
    <path d="M 230.112846 180.128654 
L 250.452887 159.704053 
L 238.714496 150.144213 
L 218.515657 162.792845 
z
" clip-path="url(#p5a84e87613)" style="fill: #dde318; fill-opacity: 0.15"/>
    <path d="M 282.709333 163.802436 
L 302.754855 158.212617 
L 290.515717 148.682239 
L 270.599672 154.161406 
z
" clip-path="url(#p5a84e87613)" style="fill: #fde725; fill-opacity: 0.15"/>
    <path d="M 189.509138 233.244024 
L 209.790437 206.713228 
L 198.256986 181.578441 
L 178.089302 208.00109 
z
" clip-path="url(#p5a84e87613)" style="fill: #2ab07f; fill-opacity: 0.15"/>
    <path d="M 209.790437 206.713228 
L 230.112846 180.128654 
L 218.515657 162.792845 
L 198.256986 181.578441 
z
" clip-path="url(#p5a84e87613)" style="fill: #84d44b; fill-opacity: 0.15"/>
    <path d="M 315.241695 167.935876 
L 335.18349 162.29828 
L 322.56983 152.687087 
L 302.754855 158.212617 
z
" clip-path="url(#p5a84e87613)" style="fill: #fde725; fill-opacity: 0.15"/>
    <path d="M 180.690255 285.329144 
L 201.045017 258.743469 
L 189.509138 233.244024 
L 169.268823 259.721206 
z
" clip-path="url(#p5a84e87613)" style="fill: #365d8d; fill-opacity: 0.15"/>
    <path d="M 262.35837 178.661133 
L 282.709333 163.802436 
L 270.599672 154.161406 
L 250.452887 159.704053 
z
" clip-path="url(#p5a84e87613)" style="fill: #f1e51d; fill-opacity: 0.15"/>
    <path d="M 201.045017 258.743469 
L 221.441206 232.103685 
L 209.790437 206.713228 
L 189.509138 233.244024 
z
" clip-path="url(#p5a84e87613)" style="fill: #218e8d; fill-opacity: 0.15"/>
    <path d="M 221.441206 232.103685 
L 241.878948 205.409629 
L 230.112846 180.128654 
L 209.790437 206.713228 
z
" clip-path="url(#p5a84e87613)" style="fill: #3fbc73; fill-opacity: 0.15"/>
    <path d="M 241.878948 205.409629 
L 262.35837 178.661133 
L 250.452887 159.704053 
L 230.112846 180.128654 
z
" clip-path="url(#p5a84e87613)" style="fill: #aadc32; fill-opacity: 0.15"/>
    <path d="M 348.053528 172.104824 
L 367.889079 166.418836 
L 354.894961 156.725797 
L 335.18349 162.29828 
z
" clip-path="url(#p5a84e87613)" style="fill: #fde725; fill-opacity: 0.15"/>
    <path d="M 192.22822 311.198362 
L 212.698719 284.503352 
L 201.045017 258.743469 
L 180.690255 285.329144 
z
" clip-path="url(#p5a84e87613)" style="fill: #46337f; fill-opacity: 0.15"/>
    <path d="M 295.000752 177.175551 
L 315.241695 167.935876 
L 302.754855 158.212617 
L 282.709333 163.802436 
z
" clip-path="url(#p5a84e87613)" style="fill: #f8e621; fill-opacity: 0.15"/>
    <path d="M 212.698719 284.503352 
L 233.211092 257.753734 
L 221.441206 232.103685 
L 201.045017 258.743469 
z
" clip-path="url(#p5a84e87613)" style="fill: #2f6b8e; fill-opacity: 0.15"/>
    <path d="M 233.211092 257.753734 
L 253.76547 230.94934 
L 241.878948 205.409629 
L 221.441206 232.103685 
z
" clip-path="url(#p5a84e87613)" style="fill: #1f9a8a; fill-opacity: 0.15"/>
    <path d="M 253.76547 230.94934 
L 274.36198 204.090002 
L 262.35837 178.661133 
L 241.878948 205.409629 
z
" clip-path="url(#p5a84e87613)" style="fill: #58c765; fill-opacity: 0.15"/>
    <path d="M 274.36198 204.090002 
L 295.000752 177.175551 
L 282.709333 163.802436 
L 262.35837 178.661133 
z
" clip-path="url(#p5a84e87613)" style="fill: #c5e021; fill-opacity: 0.15"/>
    <path d="M 327.983835 177.857931 
L 348.053528 172.104824 
L 335.18349 162.29828 
L 315.241695 167.935876 
z
" clip-path="url(#p5a84e87613)" style="fill: #fde725; fill-opacity: 0.15"/>
    <path d="M 203.884513 337.33288 
L 224.472057 310.527686 
L 212.698719 284.503352 
L 192.22822 311.198362 
z
" clip-path="url(#p5a84e87613)" style="fill: #440154; fill-opacity: 0.15"/>
    <path d="M 224.472057 310.527686 
L 245.101932 283.667376 
L 233.211092 257.753734 
L 212.698719 284.503352 
z
" clip-path="url(#p5a84e87613)" style="fill: #414287; fill-opacity: 0.15"/>
    <path d="M 245.101932 283.667376 
L 265.774269 256.751781 
L 253.76547 230.94934 
L 233.211092 257.753734 
z
" clip-path="url(#p5a84e87613)" style="fill: #2a778e; fill-opacity: 0.15"/>
    <path d="M 265.774269 256.751781 
L 286.489198 229.78073 
L 274.36198 204.090002 
L 253.76547 230.94934 
z
" clip-path="url(#p5a84e87613)" style="fill: #22a785; fill-opacity: 0.15"/>
    <path d="M 307.246852 202.754051 
L 327.983835 177.857931 
L 315.241695 167.935876 
L 295.000752 177.175551 
z
" clip-path="url(#p5a84e87613)" style="fill: #dde318; fill-opacity: 0.15"/>
    <path d="M 286.489198 229.78073 
L 307.246852 202.754051 
L 295.000752 177.175551 
L 274.36198 204.090002 
z
" clip-path="url(#p5a84e87613)" style="fill: #77d153; fill-opacity: 0.15"/>
   </g>
   <g id="Line3DCollection_4">
    <path d="M 203.884513 337.33288 
L 224.472057 310.527686 
L 245.101932 283.667376 
L 265.774269 256.751781 
L 286.489198 229.78073 
L 307.246852 202.754051 
L 327.983835 177.857931 
L 348.053528 172.104824 
L 367.889079 166.418836 
" clip-path="url(#p5a84e87613)" style="fill: none; stroke: #000000; stroke-opacity: 0.15; stroke-width: 1.5"/>
    <path d="M 192.22822 311.198362 
L 212.698719 284.503352 
L 233.211092 257.753734 
L 253.76547 230.94934 
L 274.36198 204.090002 
L 295.000752 177.175551 
L 315.241695 167.935876 
L 335.18349 162.29828 
L 354.894961 156.725797 
" clip-path="url(#p5a84e87613)" style="fill: none; stroke: #000000; stroke-opacity: 0.15; stroke-width: 1.5"/>
    <path d="M 180.690255 285.329144 
L 201.045017 258.743469 
L 221.441206 232.103685 
L 241.878948 205.409629 
L 262.35837 178.661133 
L 282.709333 163.802436 
L 302.754855 158.212617 
L 322.56983 152.687087 
L 342.158213 147.224744 
" clip-path="url(#p5a84e87613)" style="fill: none; stroke: #000000; stroke-opacity: 0.15; stroke-width: 1.5"/>
    <path d="M 169.268823 259.721206 
L 189.509138 233.244024 
L 209.790437 206.713228 
L 230.112846 180.128654 
L 250.452887 159.704053 
L 270.599672 154.161406 
L 290.515717 148.682239 
L 310.204963 143.265467 
L 329.671263 137.910031 
" clip-path="url(#p5a84e87613)" style="fill: none; stroke: #000000; stroke-opacity: 0.15; stroke-width: 1.5"/>
    <path d="M 157.962169 234.370611 
L 178.089302 208.00109 
L 198.256986 181.578441 
L 218.515657 162.792845 
L 238.714496 150.144213 
L 258.729227 144.710828 
L 278.516982 139.339059 
L 298.081601 134.027865 
L 317.426835 128.776227 
" clip-path="url(#p5a84e87613)" style="fill: none; stroke: #000000; stroke-opacity: 0.15; stroke-width: 1.5"/>
    <path d="M 146.768571 209.273498 
L 166.783769 183.010813 
L 186.992467 165.841594 
L 207.168304 153.264277 
L 227.207025 140.772436 
L 247.090981 135.445113 
L 266.751638 130.177615 
L 286.192736 124.968943 
L 305.417931 119.818115 
" clip-path="url(#p5a84e87613)" style="fill: none; stroke: #000000; stroke-opacity: 0.15; stroke-width: 1.5"/>
    <path d="M 135.686342 184.426083 
L 155.875318 168.851072 
L 176.027072 156.344288 
L 196.042749 143.921957 
L 215.923724 131.583227 
L 235.678187 126.358889 
L 255.21294 121.192656 
L 274.531629 116.083565 
L 293.63782 111.030672 
" clip-path="url(#p5a84e87613)" style="fill: none; stroke: #000000; stroke-opacity: 0.15; stroke-width: 1.5"/>
    <path d="M 125.156413 171.822035 
L 145.283052 159.385013 
L 165.274647 147.03144 
L 185.132553 134.760477 
L 204.858108 122.5713 
L 224.484355 117.446991 
L 243.894401 112.379131 
L 263.091799 107.366792 
L 282.080025 102.409067 
" clip-path="url(#p5a84e87613)" style="fill: none; stroke: #000000; stroke-opacity: 0.15; stroke-width: 1.5"/>
    <path d="M 114.928692 162.387199 
L 134.89521 150.101643 
L 154.729047 137.897726 
L 174.431523 125.774638 
L 194.003937 113.731577 
L 213.503245 108.704451 
L 232.78978 103.732179 
L 251.867006 98.81387 
L 270.738313 93.948649 
" clip-path="url(#p5a84e87613)" style="fill: none; stroke: #000000; stroke-opacity: 0.15; stroke-width: 1.5"/>
    <path d="M 203.884513 337.33288 
L 192.22822 311.198362 
L 180.690255 285.329144 
L 169.268823 259.721206 
L 157.962169 234.370611 
L 146.768571 209.273498 
L 135.686342 184.426083 
L 125.156413 171.822035 
L 114.928692 162.387199 
" clip-path="url(#p5a84e87613)" style="fill: none; stroke: #000000; stroke-opacity: 0.15; stroke-width: 1.5"/>
    <path d="M 224.472057 310.527686 
L 212.698719 284.503352 
L 201.045017 258.743469 
L 189.509138 233.244024 
L 178.089302 208.00109 
L 166.783769 183.010813 
L 155.875318 168.851072 
L 145.283052 159.385013 
L 134.89521 150.101643 
" clip-path="url(#p5a84e87613)" style="fill: none; stroke: #000000; stroke-opacity: 0.15; stroke-width: 1.5"/>
    <path d="M 245.101932 283.667376 
L 233.211092 257.753734 
L 221.441206 232.103685 
L 209.790437 206.713228 
L 198.256986 181.578441 
L 186.992467 165.841594 
L 176.027072 156.344288 
L 165.274647 147.03144 
L 154.729047 137.897726 
" clip-path="url(#p5a84e87613)" style="fill: none; stroke: #000000; stroke-opacity: 0.15; stroke-width: 1.5"/>
    <path d="M 265.774269 256.751781 
L 253.76547 230.94934 
L 241.878948 205.409629 
L 230.112846 180.128654 
L 218.515657 162.792845 
L 207.168304 153.264277 
L 196.042749 143.921957 
L 185.132553 134.760477 
L 174.431523 125.774638 
" clip-path="url(#p5a84e87613)" style="fill: none; stroke: #000000; stroke-opacity: 0.15; stroke-width: 1.5"/>
    <path d="M 286.489198 229.78073 
L 274.36198 204.090002 
L 262.35837 178.661133 
L 250.452887 159.704053 
L 238.714496 150.144213 
L 227.207025 140.772436 
L 215.923724 131.583227 
L 204.858108 122.5713 
L 194.003937 113.731577 
" clip-path="url(#p5a84e87613)" style="fill: none; stroke: #000000; stroke-opacity: 0.15; stroke-width: 1.5"/>
    <path d="M 307.246852 202.754051 
L 295.000752 177.175551 
L 282.709333 163.802436 
L 270.599672 154.161406 
L 258.729227 144.710828 
L 247.090981 135.445113 
L 235.678187 126.358889 
L 224.484355 117.446991 
L 213.503245 108.704451 
" clip-path="url(#p5a84e87613)" style="fill: none; stroke: #000000; stroke-opacity: 0.15; stroke-width: 1.5"/>
    <path d="M 327.983835 177.857931 
L 315.241695 167.935876 
L 302.754855 158.212617 
L 290.515717 148.682239 
L 278.516982 139.339059 
L 266.751638 130.177615 
L 255.21294 121.192656 
L 243.894401 112.379131 
L 232.78978 103.732179 
" clip-path="url(#p5a84e87613)" style="fill: none; stroke: #000000; stroke-opacity: 0.15; stroke-width: 1.5"/>
    <path d="M 348.053528 172.104824 
L 335.18349 162.29828 
L 322.56983 152.687087 
L 310.204963 143.265467 
L 298.081601 134.027865 
L 286.192736 124.968943 
L 274.531629 116.083565 
L 263.091799 107.366792 
L 251.867006 98.81387 
" clip-path="url(#p5a84e87613)" style="fill: none; stroke: #000000; stroke-opacity: 0.15; stroke-width: 1.5"/>
    <path d="M 367.889079 166.418836 
L 354.894961 156.725797 
L 342.158213 147.224744 
L 329.671263 137.910031 
L 317.426835 128.776227 
L 305.417931 119.818115 
L 293.63782 111.030672 
L 282.080025 102.409067 
L 270.738313 93.948649 
" clip-path="url(#p5a84e87613)" style="fill: none; stroke: #000000; stroke-opacity: 0.15; stroke-width: 1.5"/>
   </g>
   <g id="Path3DCollection_81">
    <g clip-path="url(#p5a84e87613)">
     <use xlink:href="#m11249f092c" x="327.983835" y="177.857931" style="fill: #ffd700; stroke: #ffd700"/>
    </g>
   </g>
  </g>
  <g id="patch_6">
   <path d="M 437.236364 255.501818 
L 518.4 255.501818 
L 518.4 174.338182 
L 437.236364 174.338182 
z
" style="fill: #ffffff"/>
  </g>
  <g id="axes_2">
   <g id="text_30">
    <!-- DAV Mitglied  -->
    <g transform="translate(437.823494 100.900807) scale(0.12 -0.12)">
     <defs>
      <path id="DejaVuSans-44" d="M 1259 4147 
L 1259 519 
L 2022 519 
Q 2988 519 3436 956 
Q 3884 1394 3884 2338 
Q 3884 3275 3436 3711 
Q 2988 4147 2022 4147 
L 1259 4147 
z
M 628 4666 
L 1925 4666 
Q 3281 4666 3915 4102 
Q 4550 3538 4550 2338 
Q 4550 1131 3912 565 
Q 3275 0 1925 0 
L 628 0 
L 628 4666 
z
" transform="scale(0.015625)"/>
      <path id="DejaVuSans-41" d="M 2188 4044 
L 1331 1722 
L 3047 1722 
L 2188 4044 
z
M 1831 4666 
L 2547 4666 
L 4325 0 
L 3669 0 
L 3244 1197 
L 1141 1197 
L 716 0 
L 50 0 
L 1831 4666 
z
" transform="scale(0.015625)"/>
      <path id="DejaVuSans-56" d="M 1831 0 
L 50 4666 
L 709 4666 
L 2188 738 
L 3669 4666 
L 4325 4666 
L 2547 0 
L 1831 0 
z
" transform="scale(0.015625)"/>
     </defs>
     <use xlink:href="#DejaVuSans-44"/>
     <use xlink:href="#DejaVuSans-41" x="75.251953"/>
     <use xlink:href="#DejaVuSans-56" x="137.285156"/>
     <use xlink:href="#DejaVuSans-20" x="205.693359"/>
     <use xlink:href="#DejaVuSans-4d" x="237.480469"/>
     <use xlink:href="#DejaVuSans-69" x="323.759766"/>
     <use xlink:href="#DejaVuSans-74" x="351.542969"/>
     <use xlink:href="#DejaVuSans-67" x="390.751953"/>
     <use xlink:href="#DejaVuSans-6c" x="454.228516"/>
     <use xlink:href="#DejaVuSans-69" x="482.011719"/>
     <use xlink:href="#DejaVuSans-65" x="509.794922"/>
     <use xlink:href="#DejaVuSans-64" x="571.318359"/>
     <use xlink:href="#DejaVuSans-20" x="634.794922"/>
    </g>
    <!-- &amp; Ermigt -->
    <g transform="translate(443.950994 114.338182) scale(0.12 -0.12)">
     <defs>
      <path id="DejaVuSans-26" d="M 1556 2509 
Q 1272 2256 1139 2004 
Q 1006 1753 1006 1478 
Q 1006 1022 1337 719 
Q 1669 416 2169 416 
Q 2466 416 2725 514 
Q 2984 613 3213 813 
L 1556 2509 
z
M 1997 2859 
L 3584 1234 
Q 3769 1513 3872 1830 
Q 3975 2147 3994 2503 
L 4575 2503 
Q 4538 2091 4375 1687 
Q 4213 1284 3922 891 
L 4794 0 
L 4006 0 
L 3559 459 
Q 3234 181 2878 45 
Q 2522 -91 2113 -91 
Q 1359 -91 881 339 
Q 403 769 403 1441 
Q 403 1841 612 2192 
Q 822 2544 1241 2853 
Q 1091 3050 1012 3245 
Q 934 3441 934 3628 
Q 934 4134 1281 4442 
Q 1628 4750 2203 4750 
Q 2463 4750 2720 4694 
Q 2978 4638 3244 4525 
L 3244 3956 
Q 2972 4103 2725 4179 
Q 2478 4256 2266 4256 
Q 1938 4256 1733 4082 
Q 1528 3909 1528 3634 
Q 1528 3475 1620 3314 
Q 1713 3153 1997 2859 
z
" transform="scale(0.015625)"/>
      <path id="DejaVuSans-45" d="M 628 4666 
L 3578 4666 
L 3578 4134 
L 1259 4134 
L 1259 2753 
L 3481 2753 
L 3481 2222 
L 1259 2222 
L 1259 531 
L 3634 531 
L 3634 0 
L 628 0 
L 628 4666 
z
" transform="scale(0.015625)"/>
      <path id="DejaVuSans-e4" d="M 2194 1759 
Q 1497 1759 1228 1600 
Q 959 1441 959 1056 
Q 959 750 1161 570 
Q 1363 391 1709 391 
Q 2188 391 2477 730 
Q 2766 1069 2766 1631 
L 2766 1759 
L 2194 1759 
z
M 3341 1997 
L 3341 0 
L 2766 0 
L 2766 531 
Q 2569 213 2275 61 
Q 1981 -91 1556 -91 
Q 1019 -91 701 211 
Q 384 513 384 1019 
Q 384 1609 779 1909 
Q 1175 2209 1959 2209 
L 2766 2209 
L 2766 2266 
Q 2766 2663 2505 2880 
Q 2244 3097 1772 3097 
Q 1472 3097 1187 3025 
Q 903 2953 641 2809 
L 641 3341 
Q 956 3463 1253 3523 
Q 1550 3584 1831 3584 
Q 2591 3584 2966 3190 
Q 3341 2797 3341 1997 
z
M 2150 4850 
L 2784 4850 
L 2784 4219 
L 2150 4219 
L 2150 4850 
z
M 928 4850 
L 1562 4850 
L 1562 4219 
L 928 4219 
L 928 4850 
z
" transform="scale(0.015625)"/>
      <path id="DejaVuSans-df" d="M 581 3553 
Q 581 4178 954 4520 
Q 1328 4863 2009 4863 
Q 2659 4863 3001 4500 
Q 3344 4138 3353 3438 
Q 2881 3413 2618 3233 
Q 2356 3053 2356 2753 
Q 2356 2606 2447 2479 
Q 2538 2353 2741 2222 
L 2919 2106 
Q 3438 1775 3588 1553 
Q 3738 1331 3738 1019 
Q 3738 481 3386 195 
Q 3034 -91 2375 -91 
Q 2175 -91 1962 -52 
Q 1750 -13 1522 63 
L 1522 575 
Q 1772 481 1990 436 
Q 2209 391 2413 391 
Q 2775 391 2962 539 
Q 3150 688 3150 972 
Q 3150 1169 3058 1300 
Q 2966 1431 2650 1625 
L 2363 1797 
Q 2063 1981 1927 2192 
Q 1791 2403 1791 2688 
Q 1791 3084 2052 3353 
Q 2313 3622 2784 3713 
Q 2759 4034 2554 4209 
Q 2350 4384 1997 4384 
Q 1591 4384 1378 4167 
Q 1166 3950 1166 3541 
L 1166 0 
L 581 0 
L 581 3553 
z
" transform="scale(0.015625)"/>
     </defs>
     <use xlink:href="#DejaVuSans-26"/>
     <use xlink:href="#DejaVuSans-20" x="77.978516"/>
     <use xlink:href="#DejaVuSans-45" x="109.765625"/>
     <use xlink:href="#DejaVuSans-72" x="172.949219"/>
     <use xlink:href="#DejaVuSans-6d" x="212.3125"/>
     <use xlink:href="#DejaVuSans-e4" x="309.724609"/>
     <use xlink:href="#DejaVuSans-df" x="371.003906"/>
     <use xlink:href="#DejaVuSans-69" x="433.992188"/>
     <use xlink:href="#DejaVuSans-67" x="461.775391"/>
     <use xlink:href="#DejaVuSans-74" x="525.251953"/>
    </g>
   </g>
   <g id="legend_1">
    <g id="patch_7">
     <path d="M 411.391619 260.454375 
L 544.244744 260.454375 
Q 546.244744 260.454375 546.244744 258.454375 
L 546.244744 171.385625 
Q 546.244744 169.385625 544.244744 169.385625 
L 411.391619 169.385625 
Q 409.391619 169.385625 409.391619 171.385625 
L 409.391619 258.454375 
Q 409.391619 260.454375 411.391619 260.454375 
z
" style="fill: #ffffff; opacity: 0.8; stroke: #cccccc; stroke-linejoin: miter"/>
    </g>
    <g id="Path3DCollection_82">
     <g>
      <use xlink:href="#m877eb9e379" x="423.391619" y="178.359062" style="stroke: #000000"/>
     </g>
    </g>
    <g id="text_31">
     <!-- Tagesk. B; Tagesk. K -->
     <g transform="translate(441.391619 180.984062) scale(0.1 -0.1)">
      <defs>
       <path id="DejaVuSans-6b" d="M 581 4863 
L 1159 4863 
L 1159 1991 
L 2875 3500 
L 3609 3500 
L 1753 1863 
L 3688 0 
L 2938 0 
L 1159 1709 
L 1159 0 
L 581 0 
L 581 4863 
z
" transform="scale(0.015625)"/>
       <path id="DejaVuSans-2e" d="M 684 794 
L 1344 794 
L 1344 0 
L 684 0 
L 684 794 
z
" transform="scale(0.015625)"/>
       <path id="DejaVuSans-3b" d="M 750 3309 
L 1409 3309 
L 1409 2516 
L 750 2516 
L 750 3309 
z
M 750 794 
L 1409 794 
L 1409 256 
L 897 -744 
L 494 -744 
L 750 256 
L 750 794 
z
" transform="scale(0.015625)"/>
      </defs>
      <use xlink:href="#DejaVuSans-54"/>
      <use xlink:href="#DejaVuSans-61" x="44.583984"/>
      <use xlink:href="#DejaVuSans-67" x="105.863281"/>
      <use xlink:href="#DejaVuSans-65" x="169.339844"/>
      <use xlink:href="#DejaVuSans-73" x="230.863281"/>
      <use xlink:href="#DejaVuSans-6b" x="282.962891"/>
      <use xlink:href="#DejaVuSans-2e" x="340.873047"/>
      <use xlink:href="#DejaVuSans-20" x="372.660156"/>
      <use xlink:href="#DejaVuSans-42" x="404.447266"/>
      <use xlink:href="#DejaVuSans-3b" x="473.050781"/>
      <use xlink:href="#DejaVuSans-20" x="506.742188"/>
      <use xlink:href="#DejaVuSans-54" x="538.529297"/>
      <use xlink:href="#DejaVuSans-61" x="583.113281"/>
      <use xlink:href="#DejaVuSans-67" x="644.392578"/>
      <use xlink:href="#DejaVuSans-65" x="707.869141"/>
      <use xlink:href="#DejaVuSans-73" x="769.392578"/>
      <use xlink:href="#DejaVuSans-6b" x="821.492188"/>
      <use xlink:href="#DejaVuSans-2e" x="879.402344"/>
      <use xlink:href="#DejaVuSans-20" x="911.189453"/>
      <use xlink:href="#DejaVuSans-4b" x="942.976562"/>
     </g>
    </g>
    <g id="Path3DCollection_83">
     <g>
      <use xlink:href="#ma0461cc7ca" x="423.391619" y="193.037187" style="fill: #98fb98; stroke: #98fb98"/>
     </g>
    </g>
    <g id="text_32">
     <!-- Tagesk. B; 10er K -->
     <g transform="translate(441.391619 195.662187) scale(0.1 -0.1)">
      <use xlink:href="#DejaVuSans-54"/>
      <use xlink:href="#DejaVuSans-61" x="44.583984"/>
      <use xlink:href="#DejaVuSans-67" x="105.863281"/>
      <use xlink:href="#DejaVuSans-65" x="169.339844"/>
      <use xlink:href="#DejaVuSans-73" x="230.863281"/>
      <use xlink:href="#DejaVuSans-6b" x="282.962891"/>
      <use xlink:href="#DejaVuSans-2e" x="340.873047"/>
      <use xlink:href="#DejaVuSans-20" x="372.660156"/>
      <use xlink:href="#DejaVuSans-42" x="404.447266"/>
      <use xlink:href="#DejaVuSans-3b" x="473.050781"/>
      <use xlink:href="#DejaVuSans-20" x="506.742188"/>
      <use xlink:href="#DejaVuSans-31" x="538.529297"/>
      <use xlink:href="#DejaVuSans-30" x="602.152344"/>
      <use xlink:href="#DejaVuSans-65" x="665.775391"/>
      <use xlink:href="#DejaVuSans-72" x="727.298828"/>
      <use xlink:href="#DejaVuSans-20" x="768.412109"/>
      <use xlink:href="#DejaVuSans-4b" x="800.199219"/>
     </g>
    </g>
    <g id="Path3DCollection_84">
     <g>
      <use xlink:href="#m11249f092c" x="423.391619" y="207.715312" style="fill: #ffd700; stroke: #ffd700"/>
     </g>
    </g>
    <g id="text_33">
     <!-- Monatsk. K -->
     <g transform="translate(441.391619 210.340312) scale(0.1 -0.1)">
      <use xlink:href="#DejaVuSans-4d"/>
      <use xlink:href="#DejaVuSans-6f" x="86.279297"/>
      <use xlink:href="#DejaVuSans-6e" x="147.460938"/>
      <use xlink:href="#DejaVuSans-61" x="210.839844"/>
      <use xlink:href="#DejaVuSans-74" x="272.119141"/>
      <use xlink:href="#DejaVuSans-73" x="311.328125"/>
      <use xlink:href="#DejaVuSans-6b" x="363.427734"/>
      <use xlink:href="#DejaVuSans-2e" x="421.337891"/>
      <use xlink:href="#DejaVuSans-20" x="453.125"/>
      <use xlink:href="#DejaVuSans-4b" x="484.912109"/>
     </g>
    </g>
    <g id="Path3DCollection_85">
     <g>
      <use xlink:href="#m4e78ee1295" x="423.391619" y="222.393438" style="fill: #808080; stroke: #808080"/>
     </g>
    </g>
    <g id="text_34">
     <!-- 10er B; +4 K -->
     <g transform="translate(441.391619 225.018438) scale(0.1 -0.1)">
      <defs>
       <path id="DejaVuSans-2b" d="M 2944 4013 
L 2944 2272 
L 4684 2272 
L 4684 1741 
L 2944 1741 
L 2944 0 
L 2419 0 
L 2419 1741 
L 678 1741 
L 678 2272 
L 2419 2272 
L 2419 4013 
L 2944 4013 
z
" transform="scale(0.015625)"/>
       <path id="DejaVuSans-20ac" d="M 3647 4306 
L 3647 3641 
Q 3363 3969 3098 4109 
Q 2834 4250 2516 4250 
Q 2025 4250 1709 3937 
Q 1394 3625 1294 3041 
L 3097 3041 
L 2925 2656 
L 1244 2656 
Q 1238 2581 1236 2509 
Q 1234 2438 1234 2328 
Q 1234 2228 1236 2156 
Q 1238 2084 1244 2009 
L 2638 2009 
L 2463 1625 
L 1294 1625 
Q 1394 1041 1709 725 
Q 2025 409 2516 409 
Q 2834 409 3098 550 
Q 3363 691 3647 1019 
L 3647 359 
Q 3369 134 3080 21 
Q 2791 -91 2491 -91 
Q 1750 -91 1267 362 
Q 784 816 659 1625 
L 0 1625 
L 172 2009 
L 606 2009 
Q 606 2081 604 2154 
Q 603 2228 603 2328 
Q 603 2438 604 2511 
Q 606 2584 606 2656 
L 0 2656 
L 172 3041 
L 659 3041 
Q 784 3844 1268 4297 
Q 1753 4750 2491 4750 
Q 2797 4750 3086 4639 
Q 3375 4528 3647 4306 
z
" transform="scale(0.015625)"/>
      </defs>
      <use xlink:href="#DejaVuSans-31"/>
      <use xlink:href="#DejaVuSans-30" x="63.623047"/>
      <use xlink:href="#DejaVuSans-65" x="127.246094"/>
      <use xlink:href="#DejaVuSans-72" x="188.769531"/>
      <use xlink:href="#DejaVuSans-20" x="229.882812"/>
      <use xlink:href="#DejaVuSans-42" x="261.669922"/>
      <use xlink:href="#DejaVuSans-3b" x="330.273438"/>
      <use xlink:href="#DejaVuSans-20" x="363.964844"/>
      <use xlink:href="#DejaVuSans-2b" x="395.751953"/>
      <use xlink:href="#DejaVuSans-34" x="479.541016"/>
      <use xlink:href="#DejaVuSans-20ac" x="543.164062"/>
      <use xlink:href="#DejaVuSans-20" x="606.787109"/>
      <use xlink:href="#DejaVuSans-4b" x="638.574219"/>
     </g>
    </g>
    <g id="Path3DCollection_86">
     <g>
      <use xlink:href="#m852dcd72be" x="423.391619" y="237.071562" style="fill: #006400; stroke: #006400"/>
     </g>
    </g>
    <g id="text_35">
     <!-- 10er B; 10er K -->
     <g transform="translate(441.391619 239.696562) scale(0.1 -0.1)">
      <use xlink:href="#DejaVuSans-31"/>
      <use xlink:href="#DejaVuSans-30" x="63.623047"/>
      <use xlink:href="#DejaVuSans-65" x="127.246094"/>
      <use xlink:href="#DejaVuSans-72" x="188.769531"/>
      <use xlink:href="#DejaVuSans-20" x="229.882812"/>
      <use xlink:href="#DejaVuSans-42" x="261.669922"/>
      <use xlink:href="#DejaVuSans-3b" x="330.273438"/>
      <use xlink:href="#DejaVuSans-20" x="363.964844"/>
      <use xlink:href="#DejaVuSans-31" x="395.751953"/>
      <use xlink:href="#DejaVuSans-30" x="459.375"/>
      <use xlink:href="#DejaVuSans-65" x="522.998047"/>
      <use xlink:href="#DejaVuSans-72" x="584.521484"/>
      <use xlink:href="#DejaVuSans-20" x="625.634766"/>
      <use xlink:href="#DejaVuSans-4b" x="657.421875"/>
     </g>
    </g>
    <g id="Path3DCollection_87">
     <g>
      <use xlink:href="#m669fcf88e5" x="423.391619" y="251.749687" style="fill: #f08080; stroke: #f08080"/>
     </g>
    </g>
    <g id="text_36">
     <!-- Monatsk. B; +4 K -->
     <g transform="translate(441.391619 254.374687) scale(0.1 -0.1)">
      <use xlink:href="#DejaVuSans-4d"/>
      <use xlink:href="#DejaVuSans-6f" x="86.279297"/>
      <use xlink:href="#DejaVuSans-6e" x="147.460938"/>
      <use xlink:href="#DejaVuSans-61" x="210.839844"/>
      <use xlink:href="#DejaVuSans-74" x="272.119141"/>
      <use xlink:href="#DejaVuSans-73" x="311.328125"/>
      <use xlink:href="#DejaVuSans-6b" x="363.427734"/>
      <use xlink:href="#DejaVuSans-2e" x="421.337891"/>
      <use xlink:href="#DejaVuSans-20" x="453.125"/>
      <use xlink:href="#DejaVuSans-42" x="484.912109"/>
      <use xlink:href="#DejaVuSans-3b" x="553.515625"/>
      <use xlink:href="#DejaVuSans-20" x="587.207031"/>
      <use xlink:href="#DejaVuSans-2b" x="618.994141"/>
      <use xlink:href="#DejaVuSans-34" x="702.783203"/>
      <use xlink:href="#DejaVuSans-20ac" x="766.40625"/>
      <use xlink:href="#DejaVuSans-20" x="830.029297"/>
      <use xlink:href="#DejaVuSans-4b" x="861.816406"/>
     </g>
    </g>
   </g>
  </g>
 </g>
 <defs>
  <clipPath id="p5a84e87613">
   <rect x="72" y="52.592727" width="324.654545" height="324.654545"/>
  </clipPath>
 </defs>
</svg>
